<svg width="341" height="81" viewBox="0 0 341 81" fill="none" xmlns="http://www.w3.org/2000/svg">
<path d="M24.4198 21.3381H41.2998L30.9575 65.975H14.0769L24.4198 21.3381Z" fill="white"/>
<path d="M55.2559 33.5155L48.042 64.4754H34.2412L41.4629 33.5155H55.2559Z" stroke="white" stroke-width="3"/>
<path d="M77.3948 17.302L66.426 64.4749H52.6262L63.6194 17.302H77.3948Z" stroke="white" stroke-width="3"/>
<path d="M322.06 29.0217C321.277 27.8858 320.219 27.0632 318.887 26.5541C317.595 26.0057 316.224 25.7315 314.775 25.7315C313.913 25.7315 313.071 25.8295 312.248 26.0253C311.465 26.2211 310.74 26.5345 310.074 26.9653C309.448 27.3962 308.939 27.9641 308.547 28.6691C308.155 29.335 307.959 30.1379 307.959 31.078C307.959 32.488 308.449 33.5652 309.428 34.3094C310.407 35.0535 311.622 35.6998 313.071 36.2482C314.52 36.7965 316.106 37.3253 317.83 37.8345C319.553 38.3437 321.139 39.0487 322.589 39.9496C324.038 40.8504 325.252 42.0451 326.231 43.5335C327.211 45.0218 327.7 46.9998 327.7 49.4674C327.7 51.7 327.289 53.6584 326.466 55.3426C325.644 56.9877 324.528 58.3586 323.117 59.4553C321.747 60.552 320.141 61.3745 318.3 61.9229C316.459 62.4713 314.52 62.7454 312.483 62.7454C309.898 62.7454 307.411 62.3146 305.022 61.4529C302.633 60.5912 300.576 59.142 298.853 57.1052L304.434 51.7C305.335 53.0709 306.51 54.148 307.959 54.9314C309.448 55.6756 311.014 56.0477 312.66 56.0477C313.521 56.0477 314.383 55.9302 315.245 55.6952C316.106 55.4602 316.89 55.1076 317.595 54.6376C318.3 54.1676 318.868 53.5801 319.299 52.8751C319.729 52.1309 319.945 51.2887 319.945 50.3487C319.945 48.8212 319.455 47.6461 318.476 46.8236C317.497 46.001 316.283 45.3156 314.833 44.7672C313.384 44.1797 311.798 43.6314 310.074 43.1222C308.351 42.613 306.765 41.9276 305.316 41.0659C303.866 40.165 302.652 38.9899 301.673 37.5407C300.694 36.0523 300.204 34.0743 300.204 31.6068C300.204 29.4525 300.635 27.592 301.497 26.0253C302.398 24.4586 303.553 23.166 304.963 22.1476C306.412 21.0901 308.057 20.3067 309.898 19.7976C311.739 19.2884 313.619 19.0338 315.538 19.0338C317.732 19.0338 319.847 19.3667 321.884 20.0326C323.96 20.6984 325.82 21.7951 327.465 23.3227L322.06 29.0217Z" fill="white"/>
<path d="M261.453 20.0913H268.856V37.717H269.209L286.423 20.0913H296.411L276.964 39.3033L297.703 61.6879H287.304L269.267 41.2421H268.856V61.6879H261.453V20.0913Z" fill="white"/>
<path d="M224.446 20.0913H238.899C240.896 20.0913 242.816 20.2872 244.657 20.6788C246.537 21.0313 248.201 21.658 249.651 22.5589C251.1 23.4598 252.255 24.674 253.117 26.2015C253.979 27.7291 254.409 29.6679 254.409 32.018C254.409 35.034 253.567 37.5603 251.883 39.597C250.238 41.6338 247.868 42.8676 244.774 43.2984L255.819 61.6879H246.889L237.254 44.0622H231.849V61.6879H224.446V20.0913ZM237.606 37.717C238.664 37.717 239.721 37.6778 240.779 37.5995C241.836 37.482 242.796 37.247 243.658 36.8944C244.559 36.5028 245.283 35.9348 245.832 35.1906C246.38 34.4073 246.654 33.3301 246.654 31.9593C246.654 30.745 246.4 29.7658 245.89 29.0216C245.381 28.2775 244.715 27.7291 243.893 27.3766C243.07 26.9849 242.15 26.7303 241.131 26.6128C240.152 26.4953 239.193 26.4366 238.253 26.4366H231.849V37.717H237.606Z" fill="white"/>
<path d="M173.273 41.0658C173.273 37.7366 173.822 34.7206 174.918 32.018C176.015 29.2762 177.523 26.9457 179.442 25.0265C181.401 23.1073 183.712 21.6384 186.375 20.6201C189.078 19.5625 192.035 19.0338 195.247 19.0338C198.498 18.9946 201.474 19.4842 204.177 20.5026C206.88 21.4818 209.21 22.931 211.169 24.8502C213.127 26.7695 214.655 29.0804 215.751 31.783C216.848 34.4856 217.396 37.5015 217.396 40.8308C217.396 44.0818 216.848 47.039 215.751 49.7024C214.655 52.3659 213.127 54.6572 211.169 56.5764C209.21 58.4957 206.88 60.0036 204.177 61.1004C201.474 62.1579 198.498 62.7062 195.247 62.7454C192.035 62.7454 189.078 62.2362 186.375 61.2179C183.712 60.1603 181.401 58.6915 179.442 56.8114C177.523 54.8922 176.015 52.6009 174.918 49.9374C173.822 47.274 173.273 44.3168 173.273 41.0658ZM181.029 40.5958C181.029 42.8284 181.362 44.8847 182.028 46.7648C182.733 48.6449 183.712 50.2704 184.965 51.6412C186.219 53.0121 187.707 54.0893 189.43 54.8726C191.193 55.656 193.151 56.0477 195.306 56.0477C197.46 56.0477 199.418 55.656 201.181 54.8726C202.943 54.0893 204.451 53.0121 205.705 51.6412C206.958 50.2704 207.918 48.6449 208.584 46.7648C209.289 44.8847 209.641 42.8284 209.641 40.5958C209.641 38.5199 209.289 36.5811 208.584 34.7794C207.918 32.9776 206.958 31.4109 205.705 30.0792C204.451 28.7083 202.943 27.6508 201.181 26.9066C199.418 26.1232 197.46 25.7315 195.306 25.7315C193.151 25.7315 191.193 26.1232 189.43 26.9066C187.707 27.6508 186.219 28.7083 184.965 30.0792C183.712 31.4109 182.733 32.9776 182.028 34.7794C181.362 36.5811 181.029 38.5199 181.029 40.5958Z" fill="white"/>
<path d="M114.018 20.0913H122.126L129.94 50.0549H130.057L139.399 20.0913H146.684L155.85 50.0549H155.967L164.134 20.0913H171.654L159.551 61.6879H152.501L142.865 30.0204H142.748L133.113 61.6879H126.297L114.018 20.0913Z" fill="white"/>
<path d="M100.138 19.8994H109.465L99.7198 61.6879H90.3901L100.138 19.8994Z" fill="white"/>
</svg>
