<svg width="151" height="151" viewBox="0 0 151 151" fill="none" xmlns="http://www.w3.org/2000/svg">
<path d="M40.8143 24.1033H70.2671L52.2215 101.987H22.7676L40.8143 24.1033Z" fill="url(#paint0_linear_4_117)"/>
<path d="M96.0249 44.2336L82.9175 100.487H56.5444L69.6655 44.2336H96.0249Z" stroke="url(#paint1_linear_4_117)" stroke-width="3"/>
<path d="M134.655 15.9438L114.996 100.488H88.6226L108.325 15.9438H134.655Z" stroke="url(#paint2_linear_4_117)" stroke-width="3"/>
<path d="M133.66 118.463C133.26 117.882 132.719 117.462 132.039 117.201C131.378 116.921 130.677 116.781 129.936 116.781C129.496 116.781 129.065 116.831 128.645 116.931C128.244 117.031 127.874 117.191 127.534 117.412C127.213 117.632 126.953 117.922 126.753 118.283C126.552 118.623 126.452 119.034 126.452 119.514C126.452 120.235 126.703 120.786 127.203 121.166C127.704 121.546 128.324 121.877 129.065 122.157C129.806 122.437 130.617 122.708 131.498 122.968C132.379 123.228 133.19 123.589 133.931 124.049C134.672 124.51 135.292 125.12 135.793 125.881C136.293 126.642 136.544 127.653 136.544 128.915C136.544 130.056 136.333 131.057 135.913 131.918C135.492 132.759 134.922 133.46 134.201 134.02C133.5 134.581 132.679 135.001 131.738 135.282C130.797 135.562 129.806 135.702 128.765 135.702C127.443 135.702 126.172 135.482 124.951 135.042C123.729 134.601 122.678 133.86 121.797 132.819L124.65 130.056C125.111 130.757 125.712 131.307 126.452 131.708C127.213 132.088 128.014 132.278 128.855 132.278C129.296 132.278 129.736 132.218 130.177 132.098C130.617 131.978 131.017 131.798 131.378 131.558C131.738 131.317 132.029 131.017 132.249 130.657C132.469 130.276 132.579 129.846 132.579 129.365C132.579 128.584 132.329 127.984 131.828 127.563C131.328 127.143 130.707 126.792 129.966 126.512C129.225 126.212 128.415 125.931 127.534 125.671C126.653 125.411 125.842 125.06 125.101 124.62C124.36 124.159 123.739 123.559 123.239 122.818C122.738 122.057 122.488 121.046 122.488 119.784C122.488 118.683 122.708 117.732 123.149 116.931C123.609 116.13 124.2 115.47 124.921 114.949C125.661 114.408 126.502 114.008 127.443 113.748C128.385 113.487 129.346 113.357 130.327 113.357C131.448 113.357 132.529 113.527 133.57 113.868C134.632 114.208 135.583 114.769 136.424 115.55L133.66 118.463Z" fill="#383F4B"/>
<path d="M102.679 113.898H106.463V122.908H106.643L115.443 113.898H120.549L110.608 123.719L121.21 135.162H115.894L106.673 124.71H106.463V135.162H102.679V113.898Z" fill="#383F4B"/>
<path d="M83.7607 113.898H91.149C92.1702 113.898 93.1513 113.998 94.0923 114.198C95.0534 114.378 95.9044 114.699 96.6452 115.159C97.386 115.62 97.9767 116.24 98.4172 117.021C98.8577 117.802 99.0779 118.793 99.0779 119.995C99.0779 121.536 98.6475 122.828 97.7865 123.869C96.9455 124.91 95.7342 125.541 94.1524 125.761L99.7988 135.162H95.2336L90.3081 126.152H87.545V135.162H83.7607V113.898ZM90.4883 122.908C91.0289 122.908 91.5695 122.888 92.1101 122.848C92.6507 122.788 93.1413 122.668 93.5818 122.487C94.0423 122.287 94.4127 121.997 94.693 121.616C94.9733 121.216 95.1135 120.665 95.1135 119.965C95.1135 119.344 94.9833 118.843 94.7231 118.463C94.4628 118.082 94.1224 117.802 93.7019 117.622C93.2814 117.422 92.8109 117.292 92.2903 117.232C91.7898 117.171 91.2992 117.141 90.8187 117.141H87.545V122.908H90.4883Z" fill="#383F4B"/>
<path d="M57.6018 124.62C57.6018 122.918 57.8821 121.376 58.4428 119.995C59.0034 118.593 59.7742 117.402 60.7553 116.421C61.7565 115.44 62.9378 114.689 64.2993 114.168C65.6809 113.627 67.1926 113.357 68.8344 113.357C70.4963 113.337 72.018 113.587 73.3995 114.108C74.7811 114.609 75.9724 115.349 76.9736 116.331C77.9747 117.312 78.7556 118.493 79.3162 119.875C79.8768 121.256 80.1571 122.798 80.1571 124.5C80.1571 126.162 79.8768 127.673 79.3162 129.035C78.7556 130.396 77.9747 131.568 76.9736 132.549C75.9724 133.53 74.7811 134.301 73.3995 134.861C72.018 135.402 70.4963 135.682 68.8344 135.702C67.1926 135.702 65.6809 135.442 64.2993 134.921C62.9378 134.381 61.7565 133.63 60.7553 132.669C59.7742 131.688 59.0034 130.516 58.4428 129.155C57.8821 127.793 57.6018 126.282 57.6018 124.62ZM61.5663 124.38C61.5663 125.521 61.7364 126.572 62.0768 127.533C62.4372 128.494 62.9378 129.325 63.5785 130.026C64.2192 130.727 64.9801 131.277 65.8611 131.678C66.7621 132.078 67.7632 132.278 68.8645 132.278C69.9657 132.278 70.9668 132.078 71.8678 131.678C72.7688 131.277 73.5397 130.727 74.1804 130.026C74.8211 129.325 75.3117 128.494 75.6521 127.533C76.0125 126.572 76.1927 125.521 76.1927 124.38C76.1927 123.318 76.0125 122.327 75.6521 121.406C75.3117 120.485 74.8211 119.684 74.1804 119.004C73.5397 118.303 72.7688 117.762 71.8678 117.382C70.9668 116.981 69.9657 116.781 68.8645 116.781C67.7632 116.781 66.7621 116.981 65.8611 117.382C64.9801 117.762 64.2192 118.303 63.5785 119.004C62.9378 119.684 62.4372 120.485 62.0768 121.406C61.7364 122.327 61.5663 123.318 61.5663 124.38Z" fill="#383F4B"/>
<path d="M27.3105 113.898H31.4552L35.4497 129.215H35.5098L40.2851 113.898H44.0093L48.6946 129.215H48.7546L52.9293 113.898H56.7736L50.5867 135.162H46.9826L42.0571 118.973H41.997L37.0715 135.162H33.5876L27.3105 113.898Z" fill="#383F4B"/>
<path d="M20.2154 113.8H24.9835L20.0017 135.162H15.2324L20.2154 113.8Z" fill="#383F4B"/>
<defs>
<linearGradient id="paint0_linear_4_117" x1="22.7676" y1="63.0454" x2="61.0035" y2="63.0454" gradientUnits="userSpaceOnUse">
<stop stop-color="#2E3A97"/>
<stop offset="1" stop-color="#35418C"/>
</linearGradient>
<linearGradient id="paint1_linear_4_117" x1="56.8017" y1="72.3605" x2="90.6783" y2="72.3605" gradientUnits="userSpaceOnUse">
<stop stop-color="#35418C"/>
<stop offset="1" stop-color="#3C497E"/>
</linearGradient>
<linearGradient id="paint2_linear_4_117" x1="97.5058" y1="58.2156" x2="136.544" y2="58.2156" gradientUnits="userSpaceOnUse">
<stop stop-color="#3C497E"/>
<stop offset="1" stop-color="#47556A"/>
</linearGradient>
</defs>
</svg>
