<svg width="341" height="81" viewBox="0 0 341 81" fill="none" xmlns="http://www.w3.org/2000/svg">
<path d="M24.4198 21.0933H41.2998L30.9575 65.7302H14.0769L24.4198 21.0933Z" fill="url(#paint0_linear_4_184)"/>
<path d="M55.2559 33.2707L48.042 64.2307H34.2412L41.4629 33.2707H55.2559Z" stroke="url(#paint1_linear_4_184)" stroke-width="3"/>
<path d="M77.3948 17.0573L66.426 64.2301H52.6262L63.6194 17.0573H77.3948Z" stroke="url(#paint2_linear_4_184)" stroke-width="3"/>
<path d="M322.06 28.7769C321.277 27.641 320.219 26.8185 318.887 26.3093C317.595 25.761 316.224 25.4868 314.775 25.4868C313.913 25.4868 313.071 25.5847 312.248 25.7805C311.465 25.9764 310.74 26.2897 310.074 26.7206C309.448 27.1514 308.939 27.7194 308.547 28.4244C308.155 29.0903 307.959 29.8932 307.959 30.8332C307.959 32.2433 308.449 33.3204 309.428 34.0646C310.407 34.8088 311.622 35.4551 313.071 36.0034C314.52 36.5518 316.106 37.0806 317.83 37.5897C319.553 38.0989 321.139 38.804 322.589 39.7048C324.038 40.6057 325.252 41.8003 326.231 43.2887C327.211 44.7771 327.7 46.7551 327.7 49.2227C327.7 51.4553 327.289 53.4137 326.466 55.0979C325.644 56.743 324.528 58.1138 323.117 59.2106C321.747 60.3073 320.141 61.1298 318.3 61.6781C316.459 62.2265 314.52 62.5007 312.483 62.5007C309.898 62.5007 307.411 62.0698 305.022 61.2081C302.633 60.3464 300.576 58.8972 298.853 56.8605L304.434 51.4553C305.335 52.8261 306.51 53.9033 307.959 54.6866C309.448 55.4308 311.014 55.8029 312.66 55.8029C313.521 55.8029 314.383 55.6854 315.245 55.4504C316.106 55.2154 316.89 54.8629 317.595 54.3929C318.3 53.9229 318.868 53.3353 319.299 52.6303C319.729 51.8861 319.945 51.044 319.945 50.104C319.945 48.5764 319.455 47.4014 318.476 46.5788C317.497 45.7563 316.283 45.0709 314.833 44.5225C313.384 43.935 311.798 43.3866 310.074 42.8774C308.351 42.3683 306.765 41.6828 305.316 40.8211C303.866 39.9202 302.652 38.7452 301.673 37.296C300.694 35.8076 300.204 33.8296 300.204 31.362C300.204 29.2078 300.635 27.3473 301.497 25.7805C302.398 24.2138 303.553 22.9213 304.963 21.9029C306.412 20.8454 308.057 20.062 309.898 19.5528C311.739 19.0436 313.619 18.789 315.538 18.789C317.732 18.789 319.847 19.122 321.884 19.7878C323.96 20.4537 325.82 21.5504 327.465 23.0779L322.06 28.7769Z" fill="#383F4B"/>
<path d="M261.453 19.8466H268.856V37.4722H269.209L286.423 19.8466H296.411L276.964 39.0585L297.703 61.4431H287.304L269.267 40.9974H268.856V61.4431H261.453V19.8466Z" fill="#383F4B"/>
<path d="M224.446 19.8466H238.899C240.896 19.8466 242.816 20.0424 244.657 20.4341C246.537 20.7866 248.201 21.4133 249.651 22.3142C251.1 23.215 252.255 24.4292 253.117 25.9568C253.979 27.4843 254.409 29.4232 254.409 31.7733C254.409 34.7892 253.567 37.3155 251.883 39.3523C250.238 41.389 247.868 42.6228 244.774 43.0537L255.819 61.4431H246.889L237.254 43.8175H231.849V61.4431H224.446V19.8466ZM237.606 37.4722C238.664 37.4722 239.721 37.4331 240.779 37.3547C241.836 37.2372 242.796 37.0022 243.658 36.6497C244.559 36.258 245.283 35.6901 245.832 34.9459C246.38 34.1625 246.654 33.0854 246.654 31.7145C246.654 30.5003 246.4 29.5211 245.89 28.7769C245.381 28.0327 244.715 27.4843 243.893 27.1318C243.07 26.7401 242.15 26.4856 241.131 26.3681C240.152 26.2505 239.193 26.1918 238.253 26.1918H231.849V37.4722H237.606Z" fill="#383F4B"/>
<path d="M173.273 40.8211C173.273 37.4918 173.822 34.4759 174.918 31.7732C176.015 29.0315 177.523 26.701 179.442 24.7817C181.401 22.8625 183.712 21.3937 186.375 20.3753C189.078 19.3178 192.035 18.789 195.247 18.789C198.498 18.7498 201.474 19.2394 204.177 20.2578C206.88 21.237 209.21 22.6862 211.169 24.6055C213.127 26.5247 214.655 28.8356 215.751 31.5382C216.848 34.2408 217.396 37.2568 217.396 40.5861C217.396 43.837 216.848 46.7942 215.751 49.4577C214.655 52.1211 213.127 54.4124 211.169 56.3317C209.21 58.2509 206.88 59.7589 204.177 60.8556C201.474 61.9131 198.498 62.4615 195.247 62.5007C192.035 62.5007 189.078 61.9915 186.375 60.9731C183.712 59.9156 181.401 58.4468 179.442 56.5667C177.523 54.6474 176.015 52.3561 174.918 49.6927C173.822 47.0292 173.273 44.072 173.273 40.8211ZM181.029 40.3511C181.029 42.5837 181.362 44.64 182.028 46.5201C182.733 48.4001 183.712 50.0256 184.965 51.3965C186.219 52.7674 187.707 53.8445 189.43 54.6279C191.193 55.4112 193.151 55.8029 195.306 55.8029C197.46 55.8029 199.418 55.4112 201.181 54.6279C202.943 53.8445 204.451 52.7674 205.705 51.3965C206.958 50.0256 207.918 48.4001 208.584 46.5201C209.289 44.64 209.641 42.5837 209.641 40.3511C209.641 38.2752 209.289 36.3363 208.584 34.5346C207.918 32.7329 206.958 31.1661 205.705 29.8344C204.451 28.4635 202.943 27.406 201.181 26.6618C199.418 25.8784 197.46 25.4868 195.306 25.4868C193.151 25.4868 191.193 25.8784 189.43 26.6618C187.707 27.406 186.219 28.4635 184.965 29.8344C183.712 31.1661 182.733 32.7329 182.028 34.5346C181.362 36.3363 181.029 38.2752 181.029 40.3511Z" fill="#383F4B"/>
<path d="M114.018 19.8466H122.126L129.94 49.8102H130.057L139.399 19.8466H146.684L155.85 49.8102H155.967L164.134 19.8466H171.654L159.551 61.4431H152.501L142.865 29.7757H142.748L133.113 61.4431H126.297L114.018 19.8466Z" fill="#383F4B"/>
<path d="M100.138 19.6547H109.465L99.7198 61.4431H90.3901L100.138 19.6547Z" fill="#383F4B"/>
<defs>
<linearGradient id="paint0_linear_4_184" x1="14.0769" y1="43.4118" x2="35.9907" y2="43.4118" gradientUnits="userSpaceOnUse">
<stop stop-color="#2E3A97"/>
<stop offset="1" stop-color="#35418C"/>
</linearGradient>
<linearGradient id="paint1_linear_4_184" x1="33.5826" y1="48.7505" x2="52.9979" y2="48.7505" gradientUnits="userSpaceOnUse">
<stop stop-color="#35418C"/>
<stop offset="1" stop-color="#3C497E"/>
</linearGradient>
<linearGradient id="paint2_linear_4_184" x1="56.9107" y1="40.6437" x2="79.284" y2="40.6437" gradientUnits="userSpaceOnUse">
<stop stop-color="#3C497E"/>
<stop offset="1" stop-color="#47556A"/>
</linearGradient>
</defs>
</svg>
