<svg width="151" height="151" viewBox="0 0 151 151" fill="none" xmlns="http://www.w3.org/2000/svg">
<path d="M40.8143 24.3481H70.2671L52.2215 102.232H22.7676L40.8143 24.3481Z" fill="white"/>
<path d="M96.0249 44.4784L82.9175 100.732H56.5444L69.6655 44.4784H96.0249Z" stroke="white" stroke-width="3"/>
<path d="M134.655 16.1886L114.996 100.733H88.6226L108.325 16.1886H134.655Z" stroke="white" stroke-width="3"/>
<path d="M133.66 118.708C133.26 118.127 132.719 117.707 132.039 117.446C131.378 117.166 130.677 117.026 129.936 117.026C129.496 117.026 129.065 117.076 128.645 117.176C128.244 117.276 127.874 117.436 127.534 117.657C127.213 117.877 126.953 118.167 126.753 118.528C126.552 118.868 126.452 119.278 126.452 119.759C126.452 120.48 126.703 121.03 127.203 121.411C127.704 121.791 128.324 122.122 129.065 122.402C129.806 122.682 130.617 122.952 131.498 123.213C132.379 123.473 133.19 123.833 133.931 124.294C134.672 124.755 135.292 125.365 135.793 126.126C136.293 126.887 136.544 127.898 136.544 129.159C136.544 130.301 136.333 131.302 135.913 132.163C135.492 133.004 134.922 133.705 134.201 134.265C133.5 134.826 132.679 135.246 131.738 135.527C130.797 135.807 129.806 135.947 128.765 135.947C127.443 135.947 126.172 135.727 124.951 135.286C123.729 134.846 122.678 134.105 121.797 133.064L124.65 130.301C125.111 131.002 125.712 131.552 126.452 131.953C127.213 132.333 128.014 132.523 128.855 132.523C129.296 132.523 129.736 132.463 130.177 132.343C130.617 132.223 131.017 132.043 131.378 131.802C131.738 131.562 132.029 131.262 132.249 130.901C132.469 130.521 132.579 130.091 132.579 129.61C132.579 128.829 132.329 128.228 131.828 127.808C131.328 127.387 130.707 127.037 129.966 126.757C129.225 126.456 128.415 126.176 127.534 125.916C126.653 125.656 125.842 125.305 125.101 124.865C124.36 124.404 123.739 123.803 123.239 123.063C122.738 122.302 122.488 121.291 122.488 120.029C122.488 118.928 122.708 117.977 123.149 117.176C123.609 116.375 124.2 115.714 124.921 115.194C125.661 114.653 126.502 114.253 127.443 113.992C128.385 113.732 129.346 113.602 130.327 113.602C131.448 113.602 132.529 113.772 133.57 114.113C134.632 114.453 135.583 115.014 136.424 115.794L133.66 118.708Z" fill="white"/>
<path d="M102.679 114.143H106.463V123.153H106.643L115.443 114.143H120.549L110.608 123.964L121.21 135.406H115.894L106.673 124.955H106.463V135.406H102.679V114.143Z" fill="white"/>
<path d="M83.7607 114.143H91.149C92.1702 114.143 93.1513 114.243 94.0923 114.443C95.0534 114.623 95.9044 114.944 96.6452 115.404C97.386 115.865 97.9767 116.485 98.4172 117.266C98.8577 118.047 99.0779 119.038 99.0779 120.239C99.0779 121.781 98.6475 123.073 97.7865 124.114C96.9455 125.155 95.7342 125.786 94.1524 126.006L99.7988 135.406H95.2336L90.3081 126.396H87.545V135.406H83.7607V114.143ZM90.4883 123.153C91.0289 123.153 91.5695 123.133 92.1101 123.093C92.6507 123.033 93.1413 122.912 93.5818 122.732C94.0423 122.532 94.4127 122.242 94.693 121.861C94.9733 121.461 95.1135 120.91 95.1135 120.209C95.1135 119.589 94.9833 119.088 94.7231 118.708C94.4628 118.327 94.1224 118.047 93.7019 117.867C93.2814 117.667 92.8109 117.536 92.2903 117.476C91.7898 117.416 91.2992 117.386 90.8187 117.386H87.545V123.153H90.4883Z" fill="white"/>
<path d="M57.6018 124.865C57.6018 123.163 57.8821 121.621 58.4428 120.239C59.0034 118.838 59.7742 117.647 60.7553 116.665C61.7565 115.684 62.9378 114.933 64.2993 114.413C65.6809 113.872 67.1926 113.602 68.8344 113.602C70.4963 113.582 72.018 113.832 73.3995 114.353C74.7811 114.853 75.9724 115.594 76.9736 116.575C77.9747 117.556 78.7556 118.738 79.3162 120.119C79.8768 121.501 80.1571 123.043 80.1571 124.745C80.1571 126.406 79.8768 127.918 79.3162 129.28C78.7556 130.641 77.9747 131.812 76.9736 132.794C75.9724 133.775 74.7811 134.546 73.3995 135.106C72.018 135.647 70.4963 135.927 68.8344 135.947C67.1926 135.947 65.6809 135.687 64.2993 135.166C62.9378 134.626 61.7565 133.875 60.7553 132.914C59.7742 131.933 59.0034 130.761 58.4428 129.4C57.8821 128.038 57.6018 126.527 57.6018 124.865ZM61.5663 124.624C61.5663 125.766 61.7364 126.817 62.0768 127.778C62.4372 128.739 62.9378 129.57 63.5785 130.271C64.2192 130.972 64.9801 131.522 65.8611 131.923C66.7621 132.323 67.7632 132.523 68.8645 132.523C69.9657 132.523 70.9668 132.323 71.8678 131.923C72.7688 131.522 73.5397 130.972 74.1804 130.271C74.8211 129.57 75.3117 128.739 75.6521 127.778C76.0125 126.817 76.1927 125.766 76.1927 124.624C76.1927 123.563 76.0125 122.572 75.6521 121.651C75.3117 120.73 74.8211 119.929 74.1804 119.248C73.5397 118.548 72.7688 118.007 71.8678 117.627C70.9668 117.226 69.9657 117.026 68.8645 117.026C67.7632 117.026 66.7621 117.226 65.8611 117.627C64.9801 118.007 64.2192 118.548 63.5785 119.248C62.9378 119.929 62.4372 120.73 62.0768 121.651C61.7364 122.572 61.5663 123.563 61.5663 124.624Z" fill="white"/>
<path d="M27.3105 114.143H31.4552L35.4497 129.46H35.5098L40.2851 114.143H44.0093L48.6946 129.46H48.7546L52.9293 114.143H56.7736L50.5867 135.406H46.9826L42.0571 119.218H41.997L37.0715 135.406H33.5876L27.3105 114.143Z" fill="white"/>
<path d="M20.2154 114.044H24.9835L20.0017 135.406H15.2324L20.2154 114.044Z" fill="white"/>
</svg>
