<svg width="1111" height="1381" viewBox="0 0 1111 1381" fill="none" xmlns="http://www.w3.org/2000/svg">
<path d="M178.973 15.0532L231.213 34.2L227.76 43.6133L175.52 24.4667L178.973 15.0532ZM127.733 82.2266C135.613 85.1199 143.573 84.7334 148.973 81.8C149.347 81.8667 149.706 81.8933 150.066 81.8933C152.64 81.8933 155.053 80.3066 155.987 77.7599L171.187 36.3065L223.413 55.4532L213.587 82.2667C210.76 79.56 207.106 77.24 202.826 75.68C190.8 71.2666 178.586 74.4265 175.546 82.7198C172.506 91.0132 179.786 101.306 191.813 105.72C199.706 108.613 207.653 108.227 213.066 105.293C213.426 105.36 213.786 105.386 214.146 105.386C216.72 105.386 219.133 103.8 220.08 101.253L245.226 32.6133C246.426 29.3467 244.746 25.7198 241.48 24.5198L177.387 1.0266C174.12 -0.173399 170.493 1.5065 169.293 4.7865L149.507 58.7732C146.68 56.0799 143.013 53.7465 138.746 52.1865C126.72 47.7732 114.506 50.9333 111.466 59.2266C108.426 67.5199 115.706 77.8133 127.733 82.2266Z" fill="#040606"/>
<path d="M40.3733 222.467C39.8667 216.027 42.48 210.053 47.5466 206.053C52.6133 202.053 59.0401 200.92 65.1735 202.92C75.1201 206.173 85.9466 204.24 94.1599 197.773C102.373 191.307 106.773 181.213 105.933 170.787L93.7735 171.773C94.2935 178.2 91.68 184.187 86.6 188.187C81.5334 192.173 75.1068 193.32 68.9735 191.32C59.0268 188.067 48.2001 189.987 39.9867 196.467C31.7734 202.933 27.3733 213.027 28.2133 223.44L40.3733 222.467Z" fill="#040606"/>
<path d="M962.773 175.56C953.853 175.56 946.626 182.787 946.626 191.707C946.626 200.613 953.853 207.84 962.773 207.84C971.68 207.84 978.907 200.613 978.907 191.707C978.907 182.787 971.68 175.56 962.773 175.56Z" fill="#040606"/>
<path d="M925.48 99.6137L934.12 108.254L966.4 75.9736V121.627H978.6V75.9736L1010.89 108.254L1019.52 99.6137L987.24 67.347H1032.89V55.1337H987.24L1019.52 22.8535L1010.89 14.2137L978.6 46.4936V0.840242H966.4V46.4936L934.12 14.2137L925.48 22.8535L957.76 55.1337H912.12V67.347H957.76L925.48 99.6137Z" fill="#040606"/>
<path d="M1089.37 176.56C1088.36 173.227 1084.84 171.333 1081.51 172.347C1078.17 173.36 1076.28 176.88 1077.29 180.213L1093.96 235.253C1090.08 234.787 1085.76 235.147 1081.4 236.467C1069.15 240.173 1061.28 250.04 1063.84 258.493C1066.4 266.947 1078.41 270.8 1090.67 267.08C1098.72 264.64 1104.85 259.547 1107.4 253.947C1110.07 252.573 1111.45 249.48 1110.56 246.52L1089.37 176.56Z" fill="#040606"/>
<path d="M987.626 641.173C1001.32 633.72 1013.72 623.84 1024.17 611.88C1045.35 587.693 1057 556.64 1057 524.44C1057 470.96 1025.24 424.773 979.6 403.72C983.653 416.48 989.587 438.12 993.84 466.693C999.893 507.293 1003.44 569.667 987.626 641.173Z" fill="#83BFEA"/>
<path d="M105 398.013C99.1866 417.413 68.7865 528.667 95.9598 647.573C103.626 650.68 111.586 653.08 119.76 654.72V519.027C119.76 475.16 126.546 432.334 139.56 391.734C127.56 392.294 115.973 394.453 105 398.013Z" fill="#040606"/>
<path d="M950.227 519.027V654.72C958.067 653.16 965.707 650.88 973.08 647.96C990.973 574.547 987.533 510.227 981.427 469C975.813 431.12 967.013 405.36 964.213 397.76C953.467 394.347 942.147 392.28 930.427 391.734C943.453 432.334 950.227 475.16 950.227 519.027Z" fill="#040606"/>
<path d="M268.533 1313.67C268.533 1315.64 267.613 1317.49 266.04 1318.69L219.96 1353.65C215.64 1356.93 216.733 1361.44 217.16 1362.75C217.6 1364.04 219.453 1368.29 224.88 1368.29H491.36V1278.49H268.533V1313.67Z" fill="#83BFEA"/>
<path d="M76.9999 471.214C81.0265 440.827 86.5731 417.307 90.2131 403.814C44.6665 424.907 12.9866 471.04 12.9866 524.44C12.9866 556.64 24.6531 587.68 45.8131 611.88C56.0531 623.587 68.1865 633.293 81.5465 640.707C68.1065 574.853 71.5065 512.76 76.9999 471.214Z" fill="#83BFEA"/>
<path d="M241.373 225.414C319.8 146.987 424.08 103.787 534.987 103.787C645.907 103.787 750.186 146.987 828.613 225.414C872.76 269.56 905.733 321.893 926.133 378.987C935.08 379.107 943.84 380.04 952.333 381.707C948.6 370.36 944.373 359.08 939.707 348.053C917.573 295.747 885.907 248.773 845.587 208.44C805.253 168.107 758.28 136.44 705.973 114.32C651.8 91.4134 594.28 79.7868 534.987 79.7868C475.707 79.7868 418.186 91.4134 364.013 114.32C311.706 136.44 264.733 168.107 224.4 208.44C184.08 248.773 152.413 295.747 130.28 348.053C125.626 359.067 121.413 370.373 117.667 381.707C126.16 380.04 134.907 379.107 143.853 378.987C164.253 321.893 197.24 269.56 241.373 225.414Z" fill="#83BFEA"/>
<path d="M268.533 1265.88H491.36V1109.85H268.533V1265.88Z" fill="#F579C3"/>
<path d="M682.067 529.107C701.533 529.107 718.973 516.6 727.987 497.067C721.907 500.974 715.013 503.173 707.693 503.173C683.24 503.173 663.4 478.52 663.4 448.107C663.4 431.547 669.28 416.694 678.6 406.6C651.387 408.707 629.787 435.333 629.787 467.773C629.787 501.6 653.24 529.107 682.067 529.107Z" fill="white"/>
<path d="M836.867 1353.65L790.8 1318.69C789.227 1317.49 788.293 1315.64 788.293 1313.67V1278.49H565.467V1368.29H831.946C837.373 1368.29 839.227 1364.04 839.667 1362.75C840.107 1361.44 841.2 1356.93 836.867 1353.65Z" fill="#83BFEA"/>
<path d="M852.493 792.787C804.2 823.76 760.64 844.507 719.52 856.147V980.32C719.52 983.814 716.693 986.627 713.213 986.627H356.773C353.293 986.627 350.467 983.814 350.467 980.32V856.387C309.08 844.8 265.253 823.987 216.613 792.787C213.68 790.907 212.827 787.014 214.707 784.08C216.587 781.147 220.493 780.294 223.426 782.174C269.653 811.814 311.293 831.854 350.467 843.294V777.64C311.867 766 271.013 745.214 225.707 714.147C222.84 712.174 222.106 708.24 224.08 705.374C226.04 702.494 229.973 701.76 232.853 703.734C278.48 735.027 319.333 755.6 357.693 766.627H711.4C749.773 755.6 790.613 735.027 836.253 703.734C839.12 701.76 843.053 702.494 845.026 705.374C847 708.24 846.267 712.174 843.387 714.147C798.44 744.974 757.853 765.68 719.52 777.374V843.027C758.427 831.547 799.8 811.587 845.68 782.174C848.613 780.28 852.507 781.134 854.387 784.08C856.28 787.014 855.426 790.907 852.493 792.787ZM389.346 393.827C390.666 393.827 392.053 393.88 393.467 393.974C427.547 396.414 454.24 428.827 454.24 467.774C454.24 475.414 453.226 482.934 451.213 490.134C442.653 521 417.786 541.734 389.346 541.734C353.56 541.734 324.44 508.56 324.44 467.774C324.44 427 353.56 393.827 389.346 393.827ZM492.907 558.934C496.173 557.734 499.813 559.387 501.026 562.654C505.933 575.867 519.413 584.734 534.546 584.734C550.626 584.734 564.72 574.734 568.813 560.414C569.773 557.067 573.266 555.12 576.613 556.08C579.973 557.04 581.906 560.534 580.946 563.88C575.306 583.587 556.226 597.36 534.546 597.36C514.16 597.36 495.933 585.174 489.187 567.054C487.973 563.787 489.64 560.16 492.907 558.934ZM535.707 496.867C559.76 496.867 577.226 506.307 577.226 519.294C577.226 532.294 559.76 541.734 535.707 541.734C511.64 541.734 494.187 532.294 494.187 519.294C494.187 506.307 511.64 496.867 535.707 496.867ZM682.066 393.827C683.386 393.827 684.773 393.88 686.187 393.974C720.267 396.414 746.96 428.827 746.96 467.774C746.96 475.414 745.946 482.934 743.933 490.134C735.373 521 710.506 541.734 682.066 541.734C646.28 541.734 617.16 508.56 617.16 467.774C617.16 427 646.28 393.827 682.066 393.827ZM937.613 519.027C937.613 473.8 930.173 429.734 915.933 388.16C915.666 387.64 915.48 387.08 915.36 386.494C895.68 329.867 863.32 277.974 819.68 234.334C743.64 158.294 642.533 116.414 535 116.414C427.453 116.414 326.347 158.294 250.307 234.334C206.653 277.987 174.293 329.894 154.613 386.52C154.506 387.094 154.32 387.627 154.067 388.134C139.813 429.707 132.373 473.787 132.373 519.027V1097.24H937.613V519.027Z" fill="#F579C3"/>
<path d="M788.293 1265.88V1109.85H565.467V1265.88H788.293Z" fill="#F579C3"/>
<path d="M535.707 529.107C554.467 529.107 564.6 522.147 564.6 519.293C564.6 516.453 554.467 509.493 535.707 509.493C516.933 509.493 506.8 516.453 506.8 519.293C506.8 522.147 516.933 529.107 535.707 529.107Z" fill="#F9E444"/>
<path d="M514.987 816.734L591.12 876.627L514.987 936.534V816.734ZM363.08 974.014H706.907V853.814C706.813 853.587 706.72 853.36 706.653 853.107C706.293 851.747 706.413 850.374 706.907 849.16V779.254H363.08V974.014Z" fill="white"/>
<path d="M389.347 529.107C408.813 529.107 426.253 516.6 435.267 497.067C429.187 500.974 422.293 503.173 414.973 503.173C390.52 503.173 370.68 478.52 370.68 448.107C370.68 431.547 376.56 416.694 385.88 406.6C358.667 408.707 337.067 435.333 337.067 467.773C337.067 501.6 360.52 529.107 389.347 529.107Z" fill="white"/>
<path d="M514.987 816.734V936.534L591.12 876.627L514.987 816.734Z" fill="#040606"/>
<path d="M535.707 509.493C554.467 509.493 564.6 516.453 564.6 519.293C564.6 522.147 554.467 529.107 535.707 529.107C516.933 529.107 506.8 522.147 506.8 519.293C506.8 516.453 516.933 509.493 535.707 509.493ZM535.707 541.733C559.76 541.733 577.227 532.293 577.227 519.293C577.227 506.307 559.76 496.867 535.707 496.867C511.64 496.867 494.187 506.307 494.187 519.293C494.187 532.293 511.64 541.733 535.707 541.733Z" fill="#040606"/>
<path d="M678.6 406.6C669.28 416.693 663.4 431.547 663.4 448.107C663.4 478.52 683.24 503.173 707.693 503.173C715.013 503.173 721.907 500.973 727.987 497.067C718.973 516.6 701.533 529.107 682.067 529.107C653.24 529.107 629.787 501.6 629.787 467.773C629.787 435.333 651.387 408.707 678.6 406.6ZM682.067 541.733C710.507 541.733 735.373 521 743.933 490.133C745.947 482.933 746.96 475.413 746.96 467.773C746.96 428.827 720.267 396.413 686.187 393.973C684.773 393.88 683.387 393.827 682.067 393.827C646.28 393.827 617.16 427 617.16 467.773C617.16 508.56 646.28 541.733 682.067 541.733Z" fill="#040606"/>
<path d="M385.88 406.6C376.56 416.693 370.68 431.547 370.68 448.107C370.68 478.52 390.52 503.173 414.973 503.173C422.293 503.173 429.187 500.973 435.267 497.067C426.253 516.6 408.813 529.107 389.346 529.107C360.52 529.107 337.067 501.6 337.067 467.773C337.067 435.333 358.666 408.707 385.88 406.6ZM389.346 541.733C417.786 541.733 442.653 521 451.213 490.133C453.226 482.933 454.24 475.413 454.24 467.773C454.24 428.827 427.547 396.413 393.467 393.973C392.053 393.88 390.666 393.827 389.346 393.827C353.56 393.827 324.44 427 324.44 467.773C324.44 508.56 353.56 541.733 389.346 541.733Z" fill="#040606"/>
<path d="M706.907 849.16C706.413 850.374 706.293 851.747 706.653 853.107C706.72 853.36 706.813 853.587 706.907 853.814V974.014H363.08V779.254H706.907V849.16ZM845.68 782.174C799.8 811.587 758.427 831.547 719.52 843.027V777.374C757.853 765.68 798.44 744.974 843.387 714.147C846.267 712.174 847 708.24 845.026 705.374C843.053 702.494 839.12 701.76 836.253 703.734C790.613 735.027 749.773 755.6 711.4 766.627H357.693C319.333 755.6 278.48 735.027 232.853 703.734C229.973 701.76 226.04 702.494 224.08 705.374C222.107 708.24 222.84 712.174 225.707 714.147C271.013 745.214 311.867 766 350.467 777.64V843.294C311.293 831.854 269.653 811.814 223.426 782.174C220.493 780.294 216.587 781.147 214.707 784.08C212.827 787.014 213.68 790.907 216.613 792.787C265.253 823.987 309.08 844.8 350.467 856.387V980.32C350.467 983.814 353.293 986.627 356.773 986.627H713.213C716.693 986.627 719.52 983.814 719.52 980.32V856.147C760.64 844.507 804.2 823.76 852.493 792.787C855.426 790.907 856.28 787.014 854.387 784.08C852.507 781.134 848.613 780.28 845.68 782.174Z" fill="#040606"/>
<path d="M839.667 1362.75C839.227 1364.04 837.373 1368.29 831.947 1368.29H565.467V1278.49H788.293V1313.67C788.293 1315.64 789.227 1317.49 790.8 1318.69L836.867 1353.65C841.2 1356.93 840.107 1361.44 839.667 1362.75ZM788.293 1109.85V1265.88H565.467V1109.85H788.293ZM132.373 1097.24V519.028C132.373 473.788 139.813 429.708 154.067 388.135C154.32 387.628 154.507 387.095 154.613 386.522C174.293 329.895 206.653 277.988 250.307 234.335C326.347 158.295 427.453 116.415 535 116.415C642.533 116.415 743.64 158.295 819.68 234.335C863.32 277.975 895.68 329.868 915.36 386.495C915.48 387.082 915.667 387.642 915.933 388.162C930.173 429.735 937.613 473.802 937.613 519.028V1097.24H132.373ZM491.36 1265.88H268.533V1109.85H491.36V1265.88ZM491.36 1368.29H224.88C219.453 1368.29 217.6 1364.04 217.16 1362.75C216.733 1361.44 215.64 1356.93 219.96 1353.65L266.04 1318.69C267.613 1317.49 268.533 1315.64 268.533 1313.67V1278.49H491.36V1368.29ZM119.76 519.028V654.722C111.587 653.082 103.627 650.682 95.9599 647.575C68.7865 528.668 99.1866 417.415 105 398.015C115.973 394.455 127.56 392.295 139.56 391.735C126.547 432.335 119.76 475.162 119.76 519.028ZM45.8133 611.882C24.6533 587.682 12.9867 556.642 12.9867 524.442C12.9867 471.042 44.6666 424.908 90.2133 403.815C86.5733 417.308 81.0266 440.828 77 471.215C71.5066 512.762 68.1066 574.855 81.5466 640.708C68.1866 633.295 56.0533 623.588 45.8133 611.882ZM130.28 348.055C152.413 295.748 184.08 248.775 224.4 208.442C264.733 168.108 311.707 136.442 364.013 114.322C418.187 91.4149 475.707 79.7882 534.987 79.7882C594.28 79.7882 651.8 91.4149 705.973 114.322C758.28 136.442 805.253 168.108 845.587 208.442C885.907 248.775 917.573 295.748 939.707 348.055C944.373 359.082 948.6 370.362 952.333 381.708C943.84 380.042 935.08 379.108 926.133 378.988C905.733 321.895 872.76 269.562 828.613 225.415C750.187 146.988 645.907 103.788 534.987 103.788C424.08 103.788 319.8 146.988 241.373 225.415C197.24 269.562 164.253 321.895 143.853 378.988C134.907 379.108 126.16 380.042 117.667 381.708C121.413 370.375 125.627 359.068 130.28 348.055ZM981.426 469.002C987.533 510.228 990.973 574.548 973.08 647.962C965.707 650.882 958.066 653.162 950.226 654.722V519.028C950.226 475.162 943.453 432.335 930.426 391.735C942.146 392.282 953.467 394.348 964.213 397.762C967.013 405.362 975.813 431.122 981.426 469.002ZM1057 524.442C1057 556.642 1045.35 587.695 1024.17 611.882C1013.72 623.842 1001.32 633.722 987.626 641.175C1003.44 569.668 999.893 507.295 993.84 466.695C989.587 438.122 983.653 416.482 979.6 403.722C1025.24 424.775 1057 470.962 1057 524.442ZM844.493 1343.6L800.92 1310.54V1274.6C801.227 1273.86 801.4 1273.04 801.4 1272.19C801.4 1271.33 801.227 1270.52 800.92 1269.77V1109.85H943.92C947.4 1109.85 950.226 1107.03 950.226 1103.55V667.588C982.466 661.735 1011.93 645.055 1033.68 620.202C1056.87 593.695 1069.63 559.695 1069.63 524.442C1069.63 459.042 1026.24 403.588 966.747 385.322C962.333 371.108 957.16 356.922 951.333 343.135C928.573 289.322 895.987 241.002 854.507 199.522C813.027 158.028 764.707 125.455 710.893 102.695C655.16 79.1217 595.973 67.1749 534.987 67.1749C474.013 67.1749 414.827 79.1217 359.093 102.695C305.28 125.455 256.96 158.028 215.48 199.522C174 241.002 141.413 289.322 118.653 343.135C113.173 356.108 108.24 369.455 104.013 382.815C103.773 383.602 103.693 384.402 103.747 385.175C101.92 385.735 100.12 386.322 98.32 386.948C98.1467 386.988 98.0001 387.055 97.8401 387.108C41.1468 406.988 0.373291 461.042 0.373291 524.442C0.373291 559.695 13.1334 593.695 36.32 620.188C58.0534 645.042 87.5199 661.735 119.76 667.588V1103.55C119.76 1107.03 122.587 1109.85 126.067 1109.85H255.907V1310.54L212.333 1343.6C205.107 1349.08 202.307 1358.17 205.2 1366.76C208.093 1375.36 215.813 1380.91 224.88 1380.91H497.68C501.16 1380.91 503.987 1378.08 503.987 1374.6V1109.85H552.84V1374.6C552.84 1378.08 555.667 1380.91 559.16 1380.91H831.947C841.013 1380.91 848.733 1375.36 851.626 1366.76C854.52 1358.17 851.72 1349.08 844.493 1343.6Z" fill="#040606"/>
<path d="M534.546 597.36C556.226 597.36 575.306 583.587 580.946 563.88C581.906 560.533 579.973 557.04 576.613 556.08C573.266 555.12 569.773 557.067 568.813 560.413C564.72 574.733 550.626 584.734 534.546 584.734C519.413 584.734 505.933 575.867 501.026 562.653C499.813 559.387 496.173 557.734 492.907 558.934C489.64 560.16 487.973 563.787 489.187 567.053C495.933 585.173 514.16 597.36 534.546 597.36Z" fill="#040606"/>
</svg>
