<svg width="1261" height="1215" viewBox="0 0 1261 1215" fill="none" xmlns="http://www.w3.org/2000/svg">
<path d="M426.027 567.361C453.467 559.055 482.44 574.561 490.747 602.001C499.053 629.428 483.547 658.415 456.12 666.722C428.68 675.028 399.707 659.522 391.4 632.082C383.093 604.655 398.6 575.668 426.027 567.361ZM337.4 709.775C335.92 708.988 334.813 707.641 334.333 706.041L330.293 692.722C330.147 692.762 330 692.815 329.853 692.855C328.947 693.122 327.987 693.375 327.013 693.615C326.813 693.668 326.627 693.708 326.427 693.761C325.48 693.975 324.493 694.188 323.493 694.388C323.28 694.428 323.067 694.455 322.853 694.495C321.867 694.681 320.853 694.855 319.827 695.001C319.733 695.015 319.653 695.028 319.56 695.041C318.467 695.201 317.347 695.335 316.213 695.468C315.96 695.495 315.693 695.522 315.44 695.548C314.32 695.668 313.187 695.762 312.027 695.855C311.787 695.868 311.547 695.881 311.293 695.895C310.2 695.975 309.08 696.028 307.96 696.082C307.8 696.082 307.653 696.095 307.493 696.095C306.28 696.148 305.04 696.161 303.8 696.175C303.507 696.175 303.213 696.175 302.92 696.188C301.68 696.188 300.427 696.175 299.16 696.148C298.933 696.135 298.693 696.122 298.453 696.122C297.267 696.082 296.08 696.041 294.88 695.975C294.693 695.961 294.493 695.948 294.307 695.935C293 695.868 291.707 695.762 290.4 695.655C290.093 695.628 289.8 695.601 289.493 695.575C288.187 695.455 286.88 695.321 285.56 695.161C285.36 695.135 285.147 695.108 284.947 695.082C283.707 694.935 282.48 694.761 281.253 694.575C281.04 694.548 280.827 694.522 280.613 694.482C279.293 694.282 277.987 694.055 276.68 693.815C276.387 693.762 276.093 693.708 275.813 693.655C274.493 693.402 273.173 693.121 271.867 692.828C271.707 692.801 271.547 692.762 271.387 692.722C270.16 692.442 268.96 692.148 267.747 691.828C267.52 691.761 267.28 691.708 267.053 691.641C265.787 691.308 264.547 690.948 263.307 690.575C263.173 690.535 263.04 690.495 262.907 690.455C275.613 719.415 297.64 743.055 326.04 757.908C358.653 774.961 396.013 778.468 431.24 767.801C467.787 756.735 497.533 731.922 515 697.922C516.347 695.322 519.293 693.975 522.133 694.682C541.52 699.468 561.933 698.921 581.16 693.108C632.027 677.708 665.147 628.188 659.92 575.375C659.613 572.375 661.48 569.588 664.36 568.708L710.56 554.722C705.547 543.922 702.067 532.722 700.107 522.988L654.68 536.748C651.8 537.615 648.707 536.335 647.28 533.668C622.333 486.828 567.307 464.015 516.44 479.415C497.2 485.242 479.92 496.108 466.467 510.855C464.493 513.015 461.28 513.535 458.733 512.108C425.36 493.508 386.84 489.362 350.267 500.428C339.747 503.615 329.693 507.988 320.28 513.468C320.373 513.548 320.453 513.628 320.547 513.708C321.253 514.281 321.947 514.868 322.587 515.468C322.613 515.495 322.653 515.522 322.68 515.548C323.36 516.188 324 516.828 324.6 517.468C324.747 517.615 324.88 517.761 325.013 517.908C325.507 518.455 325.987 519.002 326.44 519.548C326.533 519.655 326.613 519.762 326.707 519.855C327.213 520.495 327.707 521.135 328.16 521.761C328.253 521.881 328.333 522.002 328.413 522.122C328.787 522.655 329.147 523.175 329.467 523.682C329.56 523.815 329.64 523.935 329.72 524.068C330.093 524.655 330.453 525.242 330.773 525.815C330.813 525.882 330.853 525.948 330.893 526.028C331.173 526.521 331.427 527.015 331.667 527.482C331.733 527.602 331.8 527.721 331.853 527.841C332.107 528.348 332.347 528.855 332.56 529.308C337.787 530.001 342.933 531.348 347.947 533.322C348.653 533.602 349.373 533.895 350.08 534.201C364.36 540.375 372.933 551.228 374.213 564.761C375.307 576.241 371.013 586.962 365.44 593.522C371.787 604.202 376.32 622.188 362.52 638.308C364.347 642.108 366.52 647.948 366.72 654.628C366.733 655.161 366.707 655.721 366.693 656.268L377.773 692.882C378.787 696.215 376.907 699.735 373.56 700.748L342.2 710.255C341.6 710.428 340.987 710.522 340.373 710.522C339.347 710.522 338.32 710.268 337.4 709.775Z" fill="#F28453"/>
<path d="M683.92 280.508C674.44 280.508 666.747 270.135 666.747 257.348C666.747 244.562 674.44 234.188 683.92 234.188C693.4 234.188 701.093 244.562 701.093 257.348C701.093 270.135 693.4 280.508 683.92 280.508ZM587.48 357.642C558.907 357.642 535.653 338.922 535.653 315.922C535.653 292.908 558.907 274.188 587.48 274.188C616.067 274.188 639.32 292.908 639.32 315.922C639.32 338.922 616.067 357.642 587.48 357.642ZM559.853 390.442L553.613 401.255C546.613 413.375 535.32 422.042 521.8 425.668C517.293 426.868 512.706 427.468 508.16 427.468C499.08 427.468 490.133 425.095 482.053 420.428C469.947 413.428 461.28 402.135 457.653 388.628C454.027 375.108 455.893 360.988 462.88 348.882L469.133 338.055C470.88 335.042 474.733 334.002 477.76 335.748L557.547 381.815C560.573 383.562 561.6 387.415 559.853 390.442ZM491.107 234.188C500.6 234.188 508.28 244.562 508.28 257.348C508.28 270.135 500.6 280.508 491.107 280.508C481.627 280.508 473.947 270.135 473.947 257.348C473.947 244.562 481.627 234.188 491.107 234.188ZM913.04 74.7749C874.933 36.6682 823.2 15.495 763.426 13.5483C698.48 11.4283 627.053 32.6949 556.893 75.0416C554.88 76.2549 552.373 76.2549 550.373 75.0416C480.253 32.7349 408.88 11.4683 343.987 13.5349C284.253 15.4549 232.52 36.5616 194.387 74.5883C156.32 112.575 135.093 164.148 133 223.748C130.733 288.482 151.747 359.708 193.747 429.708L194.48 430.935C196.027 433.508 195.56 436.802 193.347 438.828C150.453 478.322 121.08 536.068 113.933 564.468C106.907 592.442 112.52 621.215 128.987 641.442C143.093 658.788 163.587 667.788 186.68 666.828C213.987 665.682 236.507 662.922 236.733 662.895C238.68 662.655 240.627 663.335 242 664.735C245.32 668.108 249.613 671.122 254.76 673.695C267.053 679.868 282.227 682.735 296.013 683.402C308.147 683.988 319.187 682.855 326.267 680.762C328.32 680.148 330.32 679.482 332.226 678.775V678.762C341.56 675.255 347.92 670.762 351.28 665.375C352.947 662.722 353.893 659.868 354.08 656.788C354.387 651.535 352.56 646.682 351.133 643.748C350.28 641.988 349.573 640.935 349.547 640.908C349.267 640.495 349.066 640.068 348.893 639.628C346.666 638.322 342.333 636.295 337.16 636.468C333.706 636.588 330.76 633.855 330.64 630.362C330.533 626.882 333.267 623.975 336.747 623.855C344.293 623.615 350.56 626.162 354.373 628.242C364.347 614.428 355.253 600.588 352.733 597.242C351.173 596.188 346.147 593.175 339.867 593.375C336.4 593.508 333.466 590.762 333.36 587.282C333.24 583.788 335.973 580.882 339.467 580.762C346.507 580.535 352.44 582.748 356.307 584.735C359.453 580.655 362.36 573.468 361.653 565.962C361.547 564.828 361.36 563.748 361.107 562.695C359.333 555.308 353.947 549.628 345.067 545.788C340.827 543.948 336.48 542.682 332.067 541.988C330.6 541.762 329.12 541.588 327.64 541.495C327.627 541.495 327.6 541.482 327.587 541.482C316.747 540.668 304.893 540.642 295.853 541.428C292.387 541.748 289.32 539.162 289.013 535.682C288.72 532.215 291.293 529.148 294.76 528.855C301.466 528.282 309.333 528.108 317.347 528.335C314.853 525.135 311.16 521.708 305.787 519.322C301.107 517.228 295.627 516.162 289.507 516.162C289.2 516.162 288.893 516.162 288.573 516.175C255.147 516.802 229.72 545.135 229.467 545.415C228.28 546.762 226.56 547.548 224.773 547.548L185.733 547.788C185.72 547.788 185.707 547.788 185.693 547.788C182.227 547.788 179.4 544.988 179.387 541.522C179.36 538.042 182.173 535.188 185.653 535.175L221.987 534.948C229.16 527.615 254.653 504.188 288.24 503.562C288.6 503.548 289.053 503.548 289.507 503.548C296.067 503.548 302.133 504.535 307.626 506.482C319.666 498.655 332.76 492.548 346.613 488.348C384.907 476.762 425.173 480.482 460.547 498.762C475 484.162 492.96 473.335 512.787 467.335C567.733 450.695 627.04 474.135 655.88 523.188L698.346 510.335C698.253 508.908 698.2 507.548 698.213 506.295C698.413 486.455 703.867 472.602 714.467 465.108C724.12 458.268 735.32 458.788 741.693 459.895C753.4 442.188 771.946 441.615 783.96 444.775C788.733 437.615 797.84 430.548 809.173 428.442C822.547 425.948 835.346 431.202 845.213 443.242C849.12 448.015 852.307 453.188 854.707 458.668C866.533 460.282 884.96 468.975 891.667 494.282C900.293 526.748 884.773 557.708 879.707 566.615L889.467 601.615C890.4 604.962 888.44 608.442 885.08 609.388C881.733 610.322 878.24 608.362 877.307 605.002L866.813 567.402C866.333 565.668 866.613 563.802 867.587 562.295C867.787 561.975 888.026 529.748 879.48 497.522C875.466 482.428 866.72 475.922 859.853 473.122C862.267 480.762 864.266 488.362 865.56 494.962C866.226 498.388 863.987 501.695 860.573 502.362C860.16 502.442 859.76 502.482 859.36 502.482C856.4 502.482 853.76 500.388 853.173 497.375C851.44 488.468 848.147 477.055 844.387 466.868C844.387 466.855 844.387 466.855 844.387 466.842L844.373 466.828C842.36 461.255 839.36 456.015 835.453 451.255C828.44 442.695 820.373 439.188 811.48 440.842C804.066 442.228 797.96 447.002 794.92 451.148C797.893 454.308 801.64 459.415 803.36 466.255C804.213 469.628 802.16 473.055 798.773 473.908C798.267 474.042 797.747 474.095 797.24 474.095C794.413 474.095 791.84 472.188 791.12 469.322C789.587 463.228 785.307 459.215 783.867 458.015C779.987 456.522 764.16 451.575 753.613 464.962C756.666 468.055 760.84 473.388 762.68 480.708C763.52 484.082 761.466 487.508 758.093 488.362C757.573 488.495 757.053 488.548 756.546 488.548C753.72 488.548 751.146 486.642 750.426 483.775C749.173 478.762 746.04 475.148 744.173 473.362C743.693 473.308 743.213 473.228 742.733 473.068C742.64 473.042 730.52 469.135 721.693 475.455C714.64 480.495 710.987 490.908 710.84 506.415C710.653 525.908 725.16 569.802 749.4 583.028C750.44 583.602 751.293 584.442 751.88 585.468C752.026 585.722 766.733 611.815 778.56 637.042C787.293 655.668 803.84 671.735 823.946 681.122C844.666 690.788 866.693 692.482 885.946 685.895C891.866 683.868 912.413 675.602 928.133 654.295C946.92 628.842 951.96 594.602 943.12 552.508C942.413 549.095 944.6 545.748 948 545.028C951.413 544.322 954.76 546.508 955.48 549.908C965.093 595.682 959.306 633.322 938.293 661.788C920.4 686.042 896.827 695.508 890.04 697.828C881 700.922 871.533 702.388 861.987 702.388C823.693 702.388 784.227 678.842 767.133 642.402C757.133 621.055 745 599.042 741.733 593.175C731.573 587.122 723.16 577.268 716.533 566.095L672.88 579.322C676.106 636.135 639.76 688.548 584.813 705.188C565 711.175 544.053 712.135 523.92 708.015C504.613 742.868 473.173 768.295 434.893 779.882C420.32 784.295 405.413 786.482 390.587 786.482C366.32 786.482 342.267 780.628 320.187 769.095C285.44 750.922 259.453 720.668 246.747 683.708C242.44 681.362 238.586 678.708 235.293 675.775C228.2 676.562 209.213 678.522 187.213 679.442C167.44 680.282 149.253 674.842 134.387 663.935C142.413 737.162 181.347 796.908 242.587 829.162C326.907 873.548 439.093 860.495 550.373 793.335C552.373 792.122 554.88 792.122 556.893 793.335C627.053 835.682 698.48 856.948 763.426 854.842C823.2 852.895 874.933 831.722 913.04 793.602C951.147 755.495 972.32 703.762 974.28 643.988C976.386 579.042 955.12 507.615 912.773 437.455C911.56 435.442 911.56 432.935 912.773 430.935C955.12 360.762 976.386 289.348 974.28 224.402C972.32 164.628 951.147 112.882 913.04 74.7749Z" fill="#8FD467"/>
<path d="M363.867 690.495L359.387 675.695C359.36 675.722 359.32 675.762 359.293 675.802C358.906 676.255 358.506 676.708 358.08 677.162C357.973 677.282 357.866 677.402 357.746 677.522C357.293 678.002 356.813 678.495 356.307 678.975C356.227 679.042 356.147 679.122 356.067 679.188C355.6 679.615 355.12 680.042 354.626 680.468C354.506 680.575 354.373 680.682 354.253 680.788C353.68 681.255 353.093 681.735 352.467 682.188C352.36 682.282 352.24 682.362 352.12 682.442C351.56 682.855 350.987 683.268 350.387 683.668C350.253 683.762 350.133 683.842 350 683.935C349.307 684.388 348.6 684.828 347.853 685.282C347.707 685.362 347.547 685.455 347.4 685.535C346.707 685.935 346 686.335 345.267 686.722C345.16 686.788 345.04 686.855 344.933 686.908C344.107 687.335 343.253 687.762 342.36 688.175C342.293 688.215 342.213 688.255 342.146 688.282L344.587 696.335L363.867 690.495Z" fill="white"/>
<path d="M587.48 286.815C565.867 286.815 548.267 299.868 548.267 315.921C548.267 331.961 565.867 345.015 587.48 345.015C609.107 345.015 626.707 331.961 626.707 315.921C626.707 299.868 609.107 286.815 587.48 286.815Z" fill="#F9E444"/>
<path d="M473.813 355.188C468.507 364.388 467.093 375.095 469.84 385.361C472.587 395.615 479.173 404.188 488.373 409.495C497.56 414.815 508.28 416.215 518.533 413.468C528.8 410.721 537.373 404.148 542.68 394.948L545.773 389.588L476.907 349.828L473.813 355.188Z" fill="#F2526C"/>
<path d="M763.827 867.455C699.427 869.562 629.133 849.642 559.933 809.788V956.042H794.12L772.347 867.028C769.52 867.215 766.693 867.362 763.827 867.455Z" fill="#8FD467"/>
<path d="M221.6 1088.96C202.24 1079.84 183.107 1077.59 176.107 1077.04C155.547 1099.09 141.24 1127.05 136.067 1158.08H272.64C268.307 1126.12 251.16 1102.89 221.6 1088.96Z" fill="white"/>
<path d="M559.933 1158.08H820.227C825.92 1111.57 855.04 1088.55 879 1077.35C894.253 1070.23 909.107 1066.97 919.2 1065.49C891.653 1041.57 855.707 1027.07 816.44 1027.07C815.96 1027.07 815.493 1027 815.04 1026.89H757.853C754.36 1026.89 751.533 1024.07 751.533 1020.57C751.533 1017.09 754.36 1014.27 757.853 1014.27H808.36L804.347 997.882C804.333 997.882 804.333 997.895 804.32 997.895H744.32C740.84 997.895 738.013 995.068 738.013 991.575C738.013 988.095 740.84 985.268 744.32 985.268H801.267L797.187 968.615C797.04 968.628 796.893 968.655 796.733 968.655H559.933V1158.08Z" fill="#F2526C"/>
<path d="M832.933 1158.08H971.187C966 1127.01 951.667 1099 931.04 1076.93C925.88 1077.23 905.053 1079.03 883.973 1088.96C854.413 1102.89 837.267 1126.12 832.933 1158.08Z" fill="white"/>
<path d="M559.933 1202.15H955.147C965.173 1202.15 973.333 1193.99 973.333 1183.96C973.333 1179.49 973.133 1175.07 972.76 1170.71H559.933V1202.15Z" fill="white"/>
<path d="M133.92 1183.96C133.92 1193.99 142.08 1202.15 152.107 1202.15H547.32V1170.71H134.493C134.12 1175.07 133.92 1179.49 133.92 1183.96Z" fill="white"/>
<path d="M334.88 867.135L313.133 956.042H547.32V809.788C480.68 848.175 413.8 867.695 352.467 867.695C346.56 867.695 340.693 867.495 334.88 867.135Z" fill="#8FD467"/>
<path d="M310.067 968.615L305.987 985.268H364.347C367.84 985.268 370.667 988.095 370.667 991.575C370.667 995.068 367.84 997.895 364.347 997.895H304.36C303.867 997.895 303.4 997.828 302.947 997.722L298.893 1014.27H350.827C354.307 1014.27 357.133 1017.09 357.133 1020.57C357.133 1024.07 354.307 1026.89 350.827 1026.89H292.573C292.053 1027 291.467 1027.07 290.813 1027.07C251.427 1027.07 215.387 1041.65 187.813 1065.72C197.84 1067.29 212.027 1070.56 226.573 1077.35C250.533 1088.55 279.653 1111.57 285.347 1158.08H547.32V968.655H310.52C310.36 968.655 310.213 968.628 310.067 968.615Z" fill="#F2526C"/>
<path d="M456.12 666.722C483.546 658.415 499.053 629.428 490.746 602.002C482.44 574.562 453.466 559.055 426.026 567.362C398.6 575.668 383.093 604.655 391.4 632.082C399.706 659.522 428.68 675.028 456.12 666.722Z" fill="#040606"/>
<path d="M683.92 234.188C674.44 234.188 666.747 244.561 666.747 257.348C666.747 270.135 674.44 280.508 683.92 280.508C693.4 280.508 701.093 270.135 701.093 257.348C701.093 244.561 693.4 234.188 683.92 234.188Z" fill="#040606"/>
<path d="M491.107 280.508C500.6 280.508 508.28 270.135 508.28 257.348C508.28 244.561 500.6 234.188 491.107 234.188C481.627 234.188 473.947 244.561 473.947 257.348C473.947 270.135 481.627 280.508 491.107 280.508Z" fill="#040606"/>
<path d="M1242.81 268.855L1188.41 248.921L1192.12 238.788L1246.52 258.734L1242.81 268.855ZM1256.79 249.055L1190.53 224.774C1187.27 223.574 1183.64 225.255 1182.44 228.521L1161.95 284.428C1159.01 281.561 1155.16 279.108 1150.65 277.455C1138.23 272.895 1125.6 276.161 1122.45 284.734C1119.31 293.308 1126.84 303.961 1139.27 308.508C1147.59 311.561 1155.99 311.095 1161.57 307.895C1161.84 307.921 1162.09 307.961 1162.36 307.961C1164.93 307.961 1167.35 306.375 1168.28 303.815L1184.07 260.761L1238.47 280.708L1228.2 308.708C1225.27 305.854 1221.41 303.388 1216.91 301.734C1204.48 297.188 1191.85 300.441 1188.71 309.015C1185.56 317.588 1193.09 328.241 1205.52 332.801C1213.84 335.841 1222.24 335.374 1227.84 332.174C1228.09 332.201 1228.36 332.241 1228.61 332.241C1231.19 332.241 1233.6 330.654 1234.53 328.108L1260.55 257.148C1261.75 253.881 1260.07 250.255 1256.79 249.055Z" fill="#040606"/>
<path d="M1084.91 82.5084C1083.89 79.1751 1080.36 77.2951 1077.03 78.3084C1073.69 79.3084 1071.81 82.8418 1072.83 86.1751L1090.08 143.162C1086 142.642 1081.45 142.988 1076.85 144.375C1064.19 148.215 1056.07 158.415 1058.71 167.162C1061.36 175.895 1073.77 179.882 1086.44 176.042C1094.92 173.468 1101.35 168.055 1103.89 162.135C1106.39 160.708 1107.67 157.708 1106.8 154.842L1084.91 82.5084Z" fill="#040606"/>
<path d="M4.79992 301.095C2.94659 301.682 1.46664 303.095 0.786644 304.909C0.106644 306.735 0.306592 308.762 1.33326 310.415L32.5066 361.135C28.4399 361.669 24.1199 363.175 20.0399 365.682C8.7599 372.615 3.49321 384.549 8.27987 392.335C13.0532 400.109 26.08 400.802 37.36 393.869C44.9066 389.229 49.7333 382.349 50.6933 375.989C52.7466 373.962 53.2266 370.735 51.6533 368.189L16.9333 311.695C26.2666 310.975 41.4666 312.589 52.1066 327.682C54.1199 330.535 58.0532 331.215 60.9066 329.202C63.7466 327.189 64.4266 323.255 62.4266 320.402C45.2666 296.095 17.2266 297.149 4.79992 301.095Z" fill="#040606"/>
<path d="M542.68 394.948C537.373 404.148 528.8 410.722 518.533 413.468C508.28 416.215 497.56 414.815 488.373 409.495C479.173 404.188 472.587 395.615 469.84 385.362C467.093 375.095 468.507 364.388 473.813 355.188L476.907 349.828L545.773 389.588L542.68 394.948ZM557.547 381.815L477.76 335.748C474.733 334.002 470.88 335.042 469.133 338.055L462.88 348.882C455.893 360.988 454.027 375.108 457.653 388.628C461.28 402.135 469.947 413.428 482.053 420.428C490.133 425.095 499.08 427.468 508.16 427.468C512.707 427.468 517.293 426.868 521.8 425.668C535.32 422.042 546.613 413.375 553.613 401.255L559.853 390.442C561.6 387.415 560.573 383.562 557.547 381.815Z" fill="#040606"/>
<path d="M587.48 345.015C565.867 345.015 548.267 331.962 548.267 315.922C548.267 299.868 565.867 286.815 587.48 286.815C609.107 286.815 626.707 299.868 626.707 315.922C626.707 331.962 609.107 345.015 587.48 345.015ZM587.48 274.188C558.907 274.188 535.653 292.908 535.653 315.922C535.653 338.922 558.907 357.642 587.48 357.642C616.067 357.642 639.32 338.922 639.32 315.922C639.32 292.908 616.067 274.188 587.48 274.188Z" fill="#040606"/>
<path d="M342.147 688.282C342.213 688.255 342.293 688.215 342.36 688.175C343.253 687.762 344.107 687.335 344.933 686.908C345.04 686.855 345.16 686.788 345.267 686.722C346 686.335 346.707 685.935 347.4 685.535C347.547 685.455 347.707 685.362 347.853 685.282C348.6 684.828 349.307 684.388 350 683.935C350.133 683.842 350.253 683.762 350.387 683.668C350.987 683.268 351.56 682.855 352.12 682.442C352.24 682.362 352.36 682.282 352.467 682.188C353.093 681.735 353.68 681.255 354.253 680.788C354.373 680.682 354.507 680.575 354.627 680.468C355.12 680.042 355.6 679.615 356.067 679.188C356.147 679.122 356.227 679.042 356.307 678.975C356.813 678.495 357.293 678.002 357.747 677.522C357.867 677.402 357.973 677.282 358.08 677.162C358.507 676.708 358.907 676.255 359.293 675.802C359.32 675.762 359.36 675.722 359.387 675.695L363.867 690.495L344.587 696.335L342.147 688.282ZM342.2 710.255L373.56 700.748C376.907 699.735 378.787 696.215 377.773 692.882L366.693 656.268C366.707 655.722 366.733 655.162 366.72 654.628C366.52 647.948 364.347 642.108 362.52 638.308C376.32 622.188 371.787 604.202 365.44 593.522C371.013 586.962 375.307 576.242 374.213 564.762C372.933 551.228 364.36 540.375 350.08 534.202C349.373 533.895 348.653 533.602 347.947 533.322C342.933 531.348 337.787 530.002 332.56 529.308C332.347 528.855 332.107 528.348 331.853 527.842C331.8 527.722 331.733 527.602 331.667 527.482C331.427 527.015 331.173 526.522 330.893 526.028C330.853 525.948 330.813 525.882 330.773 525.815C330.453 525.242 330.093 524.655 329.72 524.068C329.64 523.935 329.56 523.815 329.467 523.682C329.147 523.175 328.787 522.655 328.413 522.122C328.333 522.002 328.253 521.882 328.16 521.762C327.707 521.135 327.213 520.495 326.707 519.855C326.613 519.762 326.533 519.655 326.44 519.548C325.987 519.002 325.507 518.455 325.013 517.908C324.88 517.762 324.747 517.615 324.6 517.468C324 516.828 323.36 516.188 322.68 515.548C322.653 515.522 322.613 515.495 322.587 515.468C321.947 514.868 321.253 514.282 320.547 513.708C320.453 513.628 320.373 513.548 320.28 513.468C329.693 507.988 339.747 503.615 350.267 500.428C386.84 489.362 425.36 493.508 458.733 512.108C461.28 513.535 464.493 513.015 466.467 510.855C479.92 496.108 497.2 485.242 516.44 479.415C567.307 464.015 622.333 486.828 647.28 533.668C648.707 536.335 651.8 537.615 654.68 536.748L700.107 522.988C702.067 532.722 705.547 543.922 710.56 554.722L664.36 568.708C661.48 569.588 659.613 572.375 659.92 575.375C665.147 628.188 632.027 677.708 581.16 693.108C561.933 698.922 541.52 699.468 522.133 694.682C519.293 693.975 516.347 695.322 515 697.922C497.533 731.922 467.787 756.735 431.24 767.802C396.013 778.468 358.653 774.962 326.04 757.908C297.64 743.055 275.613 719.415 262.907 690.455C263.04 690.495 263.173 690.535 263.307 690.575C264.547 690.948 265.787 691.308 267.053 691.642C267.28 691.708 267.52 691.762 267.747 691.828C268.96 692.148 270.16 692.442 271.387 692.722C271.547 692.762 271.707 692.802 271.867 692.828C273.173 693.122 274.493 693.402 275.813 693.655C276.093 693.708 276.387 693.762 276.68 693.815C277.987 694.055 279.293 694.282 280.613 694.482C280.827 694.522 281.04 694.548 281.253 694.575C282.48 694.762 283.707 694.935 284.947 695.082C285.147 695.108 285.36 695.135 285.56 695.162C286.88 695.322 288.187 695.455 289.493 695.575C289.8 695.602 290.093 695.628 290.4 695.655C291.707 695.762 293 695.868 294.307 695.935C294.493 695.948 294.693 695.962 294.88 695.975C296.08 696.042 297.267 696.082 298.453 696.122C298.693 696.122 298.933 696.135 299.16 696.148C300.427 696.175 301.68 696.188 302.92 696.188C303.213 696.175 303.507 696.175 303.8 696.175C305.04 696.162 306.28 696.148 307.493 696.095C307.653 696.095 307.8 696.082 307.96 696.082C309.08 696.028 310.2 695.975 311.293 695.895C311.547 695.882 311.787 695.868 312.027 695.855C313.187 695.762 314.32 695.668 315.44 695.548C315.693 695.522 315.96 695.495 316.213 695.468C317.347 695.335 318.467 695.202 319.56 695.042C319.653 695.028 319.733 695.015 319.827 695.002C320.853 694.855 321.867 694.682 322.853 694.495C323.067 694.455 323.28 694.428 323.493 694.388C324.493 694.188 325.48 693.975 326.427 693.762C326.627 693.708 326.813 693.668 327.013 693.615C327.987 693.375 328.947 693.122 329.853 692.855C330 692.815 330.147 692.762 330.293 692.722L334.333 706.042C334.813 707.642 335.92 708.988 337.4 709.775C338.32 710.268 339.347 710.522 340.373 710.522C340.987 710.522 341.6 710.428 342.2 710.255ZM912.773 430.935C911.56 432.935 911.56 435.442 912.773 437.455C955.12 507.615 976.387 579.042 974.28 643.988C972.32 703.762 951.147 755.495 913.04 793.602C874.933 831.722 823.2 852.895 763.427 854.842C698.48 856.948 627.053 835.682 556.893 793.335C554.88 792.122 552.373 792.122 550.373 793.335C439.093 860.495 326.907 873.548 242.587 829.162C181.347 796.908 142.413 737.162 134.387 663.935C149.253 674.842 167.44 680.282 187.213 679.442C209.213 678.522 228.2 676.562 235.293 675.775C238.587 678.708 242.44 681.362 246.747 683.708C259.453 720.668 285.44 750.922 320.187 769.095C342.267 780.628 366.32 786.482 390.587 786.482C405.413 786.482 420.32 784.295 434.893 779.882C473.173 768.295 504.613 742.868 523.92 708.015C544.053 712.135 565 711.175 584.813 705.188C639.76 688.548 676.107 636.135 672.88 579.322L716.533 566.095C723.16 577.268 731.573 587.122 741.733 593.175C745 599.042 757.133 621.055 767.133 642.402C784.227 678.842 823.693 702.388 861.987 702.388C871.533 702.388 881 700.922 890.04 697.828C896.827 695.508 920.4 686.042 938.293 661.788C959.307 633.322 965.093 595.682 955.48 549.908C954.76 546.508 951.413 544.322 948 545.028C944.6 545.748 942.413 549.095 943.12 552.508C951.96 594.602 946.92 628.842 928.133 654.295C912.413 675.602 891.867 683.868 885.947 685.895C866.693 692.482 844.667 690.788 823.947 681.122C803.84 671.735 787.293 655.668 778.56 637.042C766.733 611.815 752.027 585.722 751.88 585.468C751.293 584.442 750.44 583.602 749.4 583.028C725.16 569.802 710.653 525.908 710.84 506.415C710.987 490.908 714.64 480.495 721.693 475.455C730.52 469.135 742.64 473.042 742.733 473.068C743.213 473.228 743.693 473.308 744.173 473.362C746.04 475.148 749.173 478.762 750.427 483.775C751.147 486.642 753.72 488.548 756.547 488.548C757.053 488.548 757.573 488.495 758.093 488.362C761.467 487.508 763.52 484.082 762.68 480.708C760.84 473.388 756.667 468.055 753.613 464.962C764.16 451.575 779.987 456.522 783.867 458.015C785.307 459.215 789.587 463.228 791.12 469.322C791.84 472.188 794.413 474.095 797.24 474.095C797.747 474.095 798.267 474.042 798.773 473.908C802.16 473.055 804.213 469.628 803.36 466.255C801.64 459.415 797.893 454.308 794.92 451.148C797.96 447.002 804.067 442.228 811.48 440.842C820.373 439.188 828.44 442.695 835.453 451.255C839.36 456.015 842.36 461.255 844.373 466.828L844.387 466.842C844.387 466.855 844.387 466.855 844.387 466.868C848.147 477.055 851.44 488.468 853.173 497.375C853.76 500.388 856.4 502.482 859.36 502.482C859.76 502.482 860.16 502.442 860.573 502.362C863.987 501.695 866.227 498.388 865.56 494.962C864.267 488.362 862.267 480.762 859.853 473.122C866.72 475.922 875.467 482.428 879.48 497.522C888.027 529.748 867.787 561.975 867.587 562.295C866.613 563.802 866.333 565.668 866.813 567.402L877.307 605.002C878.24 608.362 881.733 610.322 885.08 609.388C888.44 608.442 890.4 604.962 889.467 601.615L879.707 566.615C884.773 557.708 900.293 526.748 891.667 494.282C884.96 468.975 866.533 460.282 854.707 458.668C852.307 453.188 849.12 448.015 845.213 443.242C835.347 431.202 822.547 425.948 809.173 428.442C797.84 430.548 788.733 437.615 783.96 444.775C771.947 441.615 753.4 442.188 741.693 459.895C735.32 458.788 724.12 458.268 714.467 465.108C703.867 472.602 698.413 486.455 698.213 506.295C698.2 507.548 698.253 508.908 698.347 510.335L655.88 523.188C627.04 474.135 567.733 450.695 512.787 467.335C492.96 473.335 475 484.162 460.547 498.762C425.173 480.482 384.907 476.762 346.613 488.348C332.76 492.548 319.667 498.655 307.627 506.482C302.133 504.535 296.067 503.548 289.507 503.548C289.053 503.548 288.6 503.548 288.24 503.562C254.653 504.188 229.16 527.615 221.987 534.948L185.653 535.175C182.173 535.188 179.36 538.042 179.387 541.522C179.4 544.988 182.227 547.788 185.693 547.788C185.707 547.788 185.72 547.788 185.733 547.788L224.773 547.548C226.56 547.548 228.28 546.762 229.467 545.415C229.72 545.135 255.147 516.802 288.573 516.175C288.893 516.162 289.2 516.162 289.507 516.162C295.627 516.162 301.107 517.228 305.787 519.322C311.16 521.708 314.853 525.135 317.347 528.335C309.333 528.108 301.467 528.282 294.76 528.855C291.293 529.148 288.72 532.215 289.013 535.682C289.32 539.162 292.387 541.748 295.853 541.428C304.893 540.642 316.747 540.668 327.587 541.482C327.6 541.482 327.627 541.495 327.64 541.495C329.12 541.588 330.6 541.762 332.067 541.988C336.48 542.682 340.827 543.948 345.067 545.788C353.947 549.628 359.333 555.308 361.107 562.695C361.36 563.748 361.547 564.828 361.653 565.962C362.36 573.468 359.453 580.655 356.307 584.735C352.44 582.748 346.507 580.535 339.467 580.762C335.973 580.882 333.24 583.788 333.36 587.282C333.467 590.762 336.4 593.508 339.867 593.375C346.147 593.175 351.173 596.188 352.733 597.242C355.253 600.588 364.347 614.428 354.373 628.242C350.56 626.162 344.293 623.615 336.747 623.855C333.267 623.975 330.533 626.882 330.64 630.362C330.76 633.855 333.707 636.588 337.16 636.468C342.333 636.295 346.667 638.322 348.893 639.628C349.067 640.068 349.267 640.495 349.547 640.908C349.573 640.935 350.28 641.988 351.133 643.748C352.56 646.682 354.387 651.535 354.08 656.788C353.893 659.868 352.947 662.722 351.28 665.375C347.92 670.762 341.56 675.255 332.227 678.762V678.775C330.32 679.482 328.32 680.148 326.267 680.762C319.187 682.855 308.147 683.988 296.013 683.402C282.227 682.735 267.053 679.868 254.76 673.695C249.613 671.122 245.32 668.108 242 664.735C240.627 663.335 238.68 662.655 236.733 662.895C236.507 662.922 213.987 665.682 186.68 666.828C163.587 667.788 143.093 658.788 128.987 641.442C112.52 621.215 106.907 592.442 113.933 564.468C121.08 536.068 150.453 478.322 193.347 438.828C195.56 436.802 196.027 433.508 194.48 430.935L193.747 429.708C151.747 359.708 130.733 288.482 133 223.748C135.093 164.149 156.32 112.575 194.387 74.5885C232.52 36.5618 284.253 15.4551 343.987 13.5351C408.88 11.4684 480.253 32.7351 550.373 75.0417C552.373 76.2551 554.88 76.2551 556.893 75.0417C627.053 32.6951 698.48 11.4285 763.427 13.5485C823.2 15.4952 874.933 36.6684 913.04 74.7751C951.147 112.882 972.32 164.628 974.28 224.402C976.387 289.348 955.12 360.762 912.773 430.935ZM794.12 956.042H559.933V809.788C629.133 849.642 699.427 869.562 763.827 867.455C766.693 867.362 769.52 867.215 772.347 867.028L794.12 956.042ZM797.187 968.615L801.267 985.268H744.32C740.84 985.268 738.013 988.095 738.013 991.575C738.013 995.068 740.84 997.895 744.32 997.895H804.32C804.333 997.895 804.333 997.882 804.347 997.882L808.36 1014.27H757.853C754.36 1014.27 751.533 1017.1 751.533 1020.58C751.533 1024.07 754.36 1026.9 757.853 1026.9H815.04C815.493 1027 815.96 1027.07 816.44 1027.07C855.707 1027.07 891.653 1041.58 919.2 1065.5C909.107 1066.98 894.253 1070.23 879 1077.35C855.04 1088.55 825.92 1111.58 820.227 1158.08H559.933V968.655H796.733C796.893 968.655 797.04 968.628 797.187 968.615ZM971.187 1158.08H832.933C837.267 1126.12 854.413 1102.9 883.973 1088.96C905.053 1079.03 925.88 1077.23 931.04 1076.94C951.667 1099 966 1127.02 971.187 1158.08ZM973.333 1183.96C973.333 1193.99 965.173 1202.15 955.147 1202.15H559.933V1170.71H972.76C973.133 1175.07 973.333 1179.5 973.333 1183.96ZM547.32 956.042H313.133L334.88 867.135C340.693 867.495 346.56 867.695 352.467 867.695C413.8 867.695 480.68 848.175 547.32 809.788V956.042ZM547.32 1158.08H285.347C279.653 1111.58 250.533 1088.55 226.573 1077.35C212.027 1070.56 197.84 1067.3 187.813 1065.72C215.387 1041.66 251.427 1027.07 290.813 1027.07C291.467 1027.07 292.053 1027 292.573 1026.9H350.827C354.307 1026.9 357.133 1024.07 357.133 1020.58C357.133 1017.1 354.307 1014.27 350.827 1014.27H298.893L302.947 997.722C303.4 997.828 303.867 997.895 304.36 997.895H364.347C367.84 997.895 370.667 995.068 370.667 991.575C370.667 988.095 367.84 985.268 364.347 985.268H305.987L310.067 968.615C310.213 968.628 310.36 968.655 310.52 968.655H547.32V1158.08ZM547.32 1202.15H152.107C142.08 1202.15 133.92 1193.99 133.92 1183.96C133.92 1179.5 134.12 1175.07 134.493 1170.71H547.32V1202.15ZM176.107 1077.04C183.107 1077.59 202.24 1079.84 221.6 1088.96C251.16 1102.9 268.307 1126.12 272.64 1158.08H136.067C141.24 1127.06 155.547 1099.1 176.107 1077.04ZM986.893 223.988C984.84 160.948 962.387 106.268 921.973 65.8551C881.547 25.4285 826.867 2.98843 763.827 0.935098C697.453 -1.2249 624.853 19.9752 553.627 62.2818C482.467 20.0152 409.92 -1.17152 343.573 0.921817C280.587 2.94848 225.92 25.3218 185.48 65.6551C145.093 105.935 122.587 160.455 120.387 223.308C118.067 289.508 139.04 361.962 181.053 433.068C135.947 476.308 108.52 534.268 101.707 561.388C93.6933 593.202 100.24 626.108 119.2 649.415C119.693 650.015 120.187 650.615 120.68 651.202C120.68 651.348 120.693 651.495 120.693 651.655C125.587 735.308 167.88 804.082 236.707 840.322C262.947 854.148 291.693 862.682 322.16 866.055C310.08 915.428 290.747 994.482 285.84 1014.52C240.267 1015.84 199.16 1035.23 169.427 1065.76C169.013 1066.11 168.613 1066.48 168.307 1066.94C139.2 1097.38 121.307 1138.62 121.307 1183.96C121.307 1200.95 135.12 1214.76 152.107 1214.76H553.627H955.147C972.133 1214.76 985.947 1200.95 985.947 1183.96C985.947 1092.15 912.6 1017.15 821.413 1014.52L785.067 865.948C839.16 860.028 886.16 838.335 921.973 802.535C962.387 762.108 984.84 707.428 986.893 644.402C989.053 578.015 967.853 505.415 925.533 434.188C967.853 362.975 989.053 290.362 986.893 223.988Z" fill="#040606"/>
</svg>
