<svg width="1317" height="1492" viewBox="0 0 1317 1492" fill="none" xmlns="http://www.w3.org/2000/svg">
<path d="M1007.52 253.36L986.414 251.614L984.12 279.414L1005.23 281.147L1007.52 253.36Z" fill="#F9E444"/>
<path d="M432.52 585.973C432.52 561.213 452.653 541.08 477.413 541.08C481.76 541.08 486.053 541.707 490.173 542.934C497.307 545.027 503.867 548.934 509.147 554.227C513.093 558.174 516.227 562.747 518.467 567.814C521.013 573.56 522.293 579.667 522.293 585.973V646.307C522.293 649.787 519.467 652.614 515.987 652.614H438.827C435.347 652.614 432.52 649.787 432.52 646.307V585.973ZM530.4 676.56C530.4 687.667 539.44 696.707 550.547 696.707C561.653 696.707 570.693 687.667 570.693 676.56C570.693 673.08 573.52 670.253 577 670.253C580.493 670.253 583.32 673.08 583.32 676.56C583.32 694.627 568.613 709.334 550.547 709.334C532.48 709.334 517.773 694.627 517.773 676.56C517.773 673.08 520.6 670.253 524.093 670.253C527.573 670.253 530.4 673.08 530.4 676.56ZM575.253 585.973C575.253 561.213 595.387 541.08 620.133 541.08C624.48 541.08 628.773 541.707 632.893 542.934C640.013 545.027 646.587 548.934 651.88 554.214C655.853 558.214 658.973 562.787 661.2 567.827C663.747 573.534 665.027 579.653 665.027 585.973V646.307C665.027 649.787 662.213 652.614 658.72 652.614H581.56C578.08 652.614 575.253 649.787 575.253 646.307V585.973ZM30.2133 933.547C32.3866 930.827 36.3599 930.374 39.0799 932.56C41.7999 934.734 42.2533 938.694 40.0799 941.427C34.5466 948.347 31.7332 957.4 32.3599 966.24C32.4532 967.667 32.0534 969.013 31.32 970.12C36.3467 974.747 41.9867 978.72 47.8534 981.787C48.2934 972.64 51.1466 963.68 56.1599 955.973C58.0666 953.04 61.9732 952.213 64.8932 954.12C67.8132 956.027 68.6399 959.933 66.7466 962.853C62.1999 969.84 59.9599 978.507 60.4932 986.84C62.7599 987.453 65.0132 987.933 67.2266 988.227C77.4799 989.573 86.3199 987.267 93.4932 981.36C94.6266 980.427 95.6932 979.4 96.6932 978.28C96.6932 973.36 98.2934 963.96 108.04 951.853C110.227 949.133 114.2 948.707 116.907 950.88C119.627 953.067 120.053 957.04 117.88 959.76C111.093 968.2 109.627 974.267 109.373 977.147C115.08 980.427 123.267 977.12 128.973 972.894C144.187 961.6 150.12 934.787 132.013 905.387C131.813 905.067 131.613 904.747 131.4 904.44L131.253 904.214C129.547 901.6 129.987 898.133 132.32 896.053C172.733 859.827 218.76 831.253 269.12 811.12C272.36 809.827 276.027 811.4 277.32 814.64C278.613 817.867 277.04 821.547 273.8 822.84C267.907 825.187 262.08 827.667 256.32 830.253L109.133 1154.16H1003.64L799.986 711.6C799.853 711.454 799.72 711.307 799.6 711.147C798.867 710.2 798.467 709.12 798.347 708.027L679.68 450.147C679.52 449.8 679.4 449.44 679.307 449.067C643.547 445.28 602.933 443.28 561.093 443.28C513.28 443.28 467.787 445.84 428.8 450.68L305.04 723.04C305.547 723.68 305.92 724.44 306.147 725.294C307.04 728.654 305.027 732.107 301.653 733C300.813 733.227 299.96 733.467 299.12 733.694C298.093 734.374 296.893 734.734 295.653 734.734C295.56 734.734 295.467 734.733 295.373 734.72C255.613 745.893 211.907 764.4 171.56 787.214C126.453 812.734 88.0534 841.96 60.5068 871.747C59.8401 872.467 59.0132 873.027 58.0932 873.373C49.0932 876.733 39.9866 882.84 31.0266 891.534C8.49323 913.374 9.51994 940.254 20.1466 957.067C21.3599 948.52 24.8266 940.294 30.2133 933.547Z" fill="#55C06E"/>
<path d="M655.573 397.76L553.573 176.093L452.653 398.187C484.653 395.147 520.267 393.56 556.413 393.56C590.733 393.56 624.76 395.013 655.573 397.76Z" fill="#040606"/>
<path d="M652.413 619.907H621.48C616.253 619.907 612.026 615.667 612.026 610.44V582.267C612.026 571.094 616.787 561.04 624.387 553.987C622.987 553.8 621.56 553.694 620.133 553.694C602.347 553.694 587.88 568.174 587.88 585.974V639.987H652.413V619.907Z" fill="white"/>
<path d="M946.12 577.293C946.36 577.053 946.64 576.867 946.907 576.667L962.147 392.147C959.493 380.133 955.186 372.933 949.96 371.84C945.04 370.813 939.12 375.147 937.2 377.867C933.973 382.413 932.186 399.6 934.786 420.493C934.88 421.267 934.827 422.053 934.64 422.813C934.547 423.213 924.827 463.4 943.147 494.147C943.213 494.267 943.253 494.387 943.307 494.507C943.413 494.707 943.52 494.907 943.6 495.12C943.667 495.307 943.72 495.507 943.773 495.693C943.84 495.893 943.893 496.08 943.92 496.293C943.96 496.493 943.973 496.707 943.986 496.907C944.013 497.107 944.027 497.307 944.013 497.493C944.013 497.707 943.987 497.907 943.973 498.107C943.947 498.307 943.92 498.507 943.88 498.707C943.84 498.907 943.773 499.093 943.72 499.28C943.653 499.48 943.587 499.667 943.507 499.853C943.427 500.053 943.333 500.24 943.226 500.413C943.133 500.587 943.04 500.76 942.933 500.92C942.8 501.12 942.653 501.293 942.507 501.467C942.413 501.56 942.36 501.667 942.267 501.76C883.947 562.2 789.653 635.813 781.813 641.907L807.253 697.187C828.266 680.64 895.8 626.667 946.12 577.293Z" fill="#55C06E"/>
<path d="M989.92 404.867C987.12 412.88 989.52 416.28 990.32 417.387C994.533 423.333 1006.68 426.614 1024.52 426.614C1028 426.614 1030.83 429.44 1030.83 432.92C1030.83 436.4 1028 439.227 1024.52 439.227C1018.08 439.227 1012.28 438.827 1007.09 438.04C992.52 437.8 990.573 443.467 989.92 445.334C987.12 453.347 989.52 456.747 990.32 457.853C994.533 463.8 1006.68 467.08 1024.52 467.08C1028 467.08 1030.83 469.907 1030.83 473.387C1030.83 476.88 1028 479.694 1024.52 479.694C1018.36 479.694 1012.79 479.32 1007.77 478.614C1000.53 478.067 991.08 479.947 988.226 486.987C986.813 490.453 987.56 493.6 988.44 495.64C990.053 499.374 993.507 502.64 997.44 504.174C1006.13 507.534 1016.68 506.92 1023.85 506.16C1040.87 504.374 1043.4 483.44 1043.71 474.52C1043.8 471.64 1043.84 465.614 1043.88 459.214C1044.03 434.187 1044.2 431.4 1044.99 429.4C1048.32 420.92 1047.93 413.573 1043.81 407.587C1041.24 403.813 1037.15 401.133 1032.31 400.053C1014.89 396.16 993.346 395.094 989.92 404.867Z" fill="#55C06E"/>
<path d="M977.227 620.12L986.147 512.174C982.107 509.16 978.813 505.16 976.853 500.64C974.267 494.627 974.147 488.094 976.534 482.24C978.56 477.254 981.974 473.6 986.04 471.04C983.614 469.334 981.6 467.374 980.027 465.16C976.84 460.68 973.907 452.88 978.014 441.16C979.281 437.547 981.667 433.613 986.053 430.587C983.627 428.867 981.6 426.907 980.027 424.694C976.84 420.214 973.907 412.4 978.014 400.694C979.827 395.494 984.547 388.734 996.574 385.88L1004.19 293.734L983.081 291.987L956.12 618.387L977.227 620.12Z" fill="#040606"/>
<path d="M509.68 619.907H478.746C473.52 619.907 469.28 615.667 469.28 610.44V582.267C469.28 571.094 474.053 561.04 481.653 553.987C480.253 553.8 478.84 553.694 477.413 553.694C459.613 553.694 445.146 568.174 445.146 585.974V639.987H509.68V619.907Z" fill="white"/>
<path d="M414.907 450.747C413.56 449.773 412.586 448.28 412.333 446.507C411.866 443.053 414.28 439.867 417.733 439.4C459.266 433.68 508.84 430.667 561.093 430.667C607.453 430.667 652.373 433.08 691 437.68C694.466 438.08 696.933 441.227 696.52 444.68C696.28 446.8 695 448.533 693.266 449.48L702.213 468.92C764.533 459.173 778.386 446.613 778.386 442.507C778.386 439.987 772.453 433.413 749.987 426.48C729.493 420.16 700.2 414.933 665.253 411.36C632.08 407.973 594.44 406.173 556.413 406.173C516.533 406.173 477.333 408.133 443.053 411.84C354.4 421.4 334.44 437.587 334.44 442.507C334.44 446.467 347.627 458.627 406.92 468.333L414.907 450.747Z" fill="#040606"/>
<path d="M1122.17 74.0801C1126.53 65.2267 1133.24 57.7466 1141.56 52.44C1133.24 47.12 1126.53 39.6401 1122.17 30.8001C1117.8 39.6401 1111.11 47.12 1102.77 52.44C1111.11 57.7466 1117.8 65.2267 1122.17 74.0801Z" fill="white"/>
<path d="M670.546 1452.72H909.747C896.12 1411.83 857.547 1382.25 812.147 1382.19C806.147 1382.53 789.546 1384.72 781.906 1390.83C780.746 1391.76 779.346 1392.21 777.973 1392.21C776.12 1392.21 774.28 1391.4 773.04 1389.84C770.853 1387.12 771.293 1383.15 774.026 1380.97C782.946 1373.83 797.466 1371.12 805.693 1370.12V1316.33H644.333L670.546 1452.72Z" fill="#040606"/>
<path d="M675.653 1479.29H914.853C914.586 1474.55 913.973 1469.89 913.08 1465.35H672.973L675.653 1479.29Z" fill="white"/>
<path d="M615.586 1166.77L641.906 1303.71H788.093L755.026 1166.77H615.586Z" fill="#55C06E"/>
<path d="M295.4 1370.12C303.627 1371.12 318.147 1373.83 327.067 1380.97C329.787 1383.15 330.24 1387.12 328.053 1389.84C326.813 1391.4 324.973 1392.21 323.12 1392.21C321.747 1392.21 320.347 1391.76 319.187 1390.83C311.547 1384.71 294.933 1382.53 288.933 1382.19C243.547 1382.25 204.96 1411.84 191.347 1452.72H430.547L456.76 1316.33H295.4V1370.12Z" fill="#040606"/>
<path d="M313 1303.71H459.187L485.507 1166.77H346.067L313 1303.71Z" fill="#55C06E"/>
<path d="M186.24 1479.29H425.44L428.12 1465.35H188.013C187.12 1469.89 186.507 1474.55 186.24 1479.29Z" fill="white"/>
<path d="M1249.97 124.387L1233.27 87.1201L1216.91 124.547C1216 126.614 1214.05 128.053 1211.8 128.293L1171.2 132.667L1201.73 159.787C1203.43 161.293 1204.19 163.587 1203.72 165.8L1195.35 205.773L1230.57 185.107C1232.52 183.96 1234.93 183.96 1236.91 185.08L1272.32 205.4L1263.56 165.52C1263.08 163.307 1263.81 161 1265.49 159.48L1295.76 132.08L1255.12 128.08C1252.87 127.867 1250.91 126.453 1249.97 124.387Z" fill="#F2526C"/>
<path d="M420.52 902.334C420.52 910.254 414.093 916.68 406.173 916.68C398.24 916.68 391.826 910.254 391.826 902.334C391.826 894.4 398.24 887.973 406.173 887.973C414.093 887.973 420.52 894.4 420.52 902.334Z" fill="white"/>
<path d="M403.546 965.934L422.986 1009.29L470.293 1013.95L435.066 1045.84L445.253 1092.27L404.04 1068.61L363.04 1092.65L372.786 1046.15L337.253 1014.59L384.506 1009.48L403.546 965.934Z" fill="#F9E444"/>
<path d="M309.96 877.64L311.213 884.573C313.933 899.693 324.814 912.04 339.454 916.68C324.814 921.307 313.933 933.667 311.213 948.773L309.96 955.707L308.707 948.773C305.974 933.667 295.107 921.307 280.467 916.68C295.107 912.04 305.974 899.693 308.707 884.573L309.96 877.64Z" fill="#F579C3"/>
<path d="M1265.49 159.48C1263.81 161 1263.08 163.307 1263.56 165.52L1272.32 205.4L1236.91 185.08C1234.93 183.96 1232.52 183.96 1230.57 185.107L1195.35 205.773L1203.72 165.8C1204.19 163.587 1203.43 161.293 1201.73 159.787L1171.2 132.667L1211.8 128.293C1214.05 128.053 1216 126.613 1216.91 124.547L1233.27 87.1199L1249.97 124.387C1250.91 126.453 1252.87 127.867 1255.12 128.08L1295.76 132.08L1265.49 159.48ZM1311.17 120.907L1260 115.88L1238.95 68.96C1237.93 66.68 1235.68 65.2266 1233.19 65.2266C1233.19 65.2266 1233.17 65.2266 1233.16 65.2266C1230.67 65.24 1228.41 66.72 1227.41 69.0134L1206.81 116.133L1155.68 121.653C1153.2 121.92 1151.11 123.627 1150.35 126C1149.59 128.387 1150.29 130.987 1152.16 132.64L1190.61 166.8L1180.07 217.133C1179.56 219.573 1180.53 222.093 1182.56 223.547C1183.65 224.333 1184.95 224.733 1186.24 224.733C1187.35 224.733 1188.44 224.44 1189.44 223.867L1233.8 197.853L1278.4 223.44C1280.57 224.68 1283.27 224.533 1285.28 223.053C1287.29 221.573 1288.24 219.053 1287.71 216.613L1276.68 166.387L1314.8 131.867C1316.65 130.187 1317.33 127.573 1316.56 125.213C1315.77 122.84 1313.67 121.147 1311.17 120.907Z" fill="#040606"/>
<path d="M1122.17 30.8004C1126.53 39.6404 1133.24 47.1202 1141.56 52.4402C1133.24 57.7469 1126.53 65.227 1122.17 74.0803C1117.8 65.227 1111.11 57.7469 1102.77 52.4402C1111.11 47.1202 1117.8 39.6404 1122.17 30.8004ZM1086.08 58.4535C1100.87 63.1202 1111.76 75.5069 1114.51 90.7603L1115.96 98.8004C1116.51 101.8 1119.12 103.987 1122.17 103.987C1125.23 103.987 1127.84 101.8 1128.39 98.8004L1129.83 90.7603C1132.59 75.5069 1143.48 63.1202 1158.25 58.4535C1160.88 57.6268 1162.67 55.1869 1162.67 52.4402C1162.67 49.6802 1160.88 47.2536 1158.25 46.4136C1143.48 41.747 1132.59 29.3602 1129.83 14.1069L1128.39 6.08031C1127.84 3.06698 1125.23 0.880312 1122.17 0.880312C1119.12 0.880312 1116.51 3.06698 1115.96 6.08031L1114.51 14.1069C1111.76 29.3602 1100.87 41.747 1086.08 46.4136C1083.45 47.2536 1081.68 49.6802 1081.68 52.4402C1081.68 55.1869 1083.45 57.6268 1086.08 58.4535Z" fill="#040606"/>
<path d="M1023 209.573C1023.27 209.573 1023.55 209.56 1023.81 209.52C1043.03 207.04 1059.68 194.413 1067.27 176.6C1073.12 162.867 1085.93 153.16 1100.73 151.24C1104.19 150.787 1106.63 147.627 1106.17 144.173C1105.73 140.72 1102.57 138.267 1099.11 138.72C1079.89 141.213 1063.25 153.827 1055.65 171.653C1049.81 185.373 1036.99 195.093 1022.2 197.013C1018.75 197.453 1016.31 200.613 1016.75 204.08C1017.16 207.253 1019.88 209.573 1023 209.573Z" fill="#040606"/>
<path d="M517.773 676.56C517.773 694.627 532.48 709.333 550.547 709.333C568.613 709.333 583.32 694.627 583.32 676.56C583.32 673.08 580.493 670.253 577 670.253C573.52 670.253 570.693 673.08 570.693 676.56C570.693 687.667 561.653 696.707 550.547 696.707C539.44 696.707 530.4 687.667 530.4 676.56C530.4 673.08 527.573 670.253 524.093 670.253C520.6 670.253 517.773 673.08 517.773 676.56Z" fill="#040606"/>
<path d="M587.88 585.973C587.88 568.173 602.347 553.693 620.133 553.693C621.56 553.693 622.987 553.8 624.387 553.987C616.787 561.04 612.027 571.094 612.027 582.267V610.44C612.027 615.667 616.253 619.907 621.48 619.907H652.413V639.987H587.88V585.973ZM581.56 652.614H658.72C662.213 652.614 665.027 649.787 665.027 646.307V585.973C665.027 579.653 663.747 573.533 661.2 567.827C658.973 562.787 655.853 558.214 651.88 554.214C646.587 548.934 640.013 545.027 632.893 542.934C628.773 541.707 624.48 541.08 620.133 541.08C595.387 541.08 575.253 561.213 575.253 585.973V646.307C575.253 649.787 578.08 652.614 581.56 652.614Z" fill="#040606"/>
<path d="M445.147 585.973C445.147 568.173 459.613 553.693 477.413 553.693C478.84 553.693 480.253 553.8 481.653 553.987C474.053 561.04 469.28 571.094 469.28 582.267V610.44C469.28 615.667 473.52 619.907 478.747 619.907H509.68V639.987H445.147V585.973ZM438.827 652.614H515.987C519.467 652.614 522.293 649.787 522.293 646.307V585.973C522.293 579.667 521.013 573.56 518.467 567.814C516.227 562.747 513.093 558.173 509.147 554.227C503.867 548.933 497.307 545.027 490.173 542.934C486.053 541.707 481.76 541.08 477.413 541.08C452.653 541.08 432.52 561.213 432.52 585.973V646.307C432.52 649.787 435.347 652.614 438.827 652.614Z" fill="#040606"/>
<path d="M31.0266 891.535C39.9866 882.842 49.0933 876.735 58.0933 873.375C59.0133 873.028 59.8401 872.468 60.5068 871.748C88.0535 841.962 126.453 812.735 171.56 787.215C211.907 764.402 255.613 745.895 295.373 734.722C295.467 734.735 295.56 734.735 295.653 734.735C296.893 734.735 298.093 734.375 299.12 733.695C299.96 733.468 300.813 733.228 301.653 733.002C305.027 732.108 307.04 728.655 306.147 725.295C305.92 724.442 305.547 723.682 305.04 723.042L428.8 450.682C467.787 445.842 513.28 443.282 561.093 443.282C602.933 443.282 643.547 445.282 679.307 449.068C679.4 449.442 679.52 449.802 679.68 450.148L798.347 708.028C798.467 709.122 798.867 710.202 799.6 711.148C799.72 711.308 799.853 711.455 799.986 711.602L1003.64 1154.16H109.133L256.32 830.255C262.08 827.668 267.907 825.188 273.8 822.842C277.04 821.548 278.613 817.868 277.32 814.642C276.027 811.402 272.36 809.828 269.12 811.122C218.76 831.255 172.733 859.828 132.32 896.055C129.987 898.135 129.547 901.602 131.253 904.215L131.4 904.442C131.613 904.748 131.813 905.068 132.013 905.388C150.12 934.788 144.187 961.602 128.973 972.895C123.267 977.122 115.08 980.428 109.373 977.148C109.627 974.268 111.093 968.202 117.88 959.762C120.053 957.042 119.627 953.068 116.907 950.882C114.2 948.708 110.227 949.135 108.04 951.855C98.2935 963.962 96.6933 973.362 96.6933 978.282C95.6933 979.402 94.6266 980.428 93.4933 981.362C86.3199 987.268 77.4799 989.575 67.2266 988.228C65.0133 987.935 62.7599 987.455 60.4933 986.842C59.9599 978.508 62.2 969.842 66.7466 962.855C68.64 959.935 67.8133 956.028 64.8933 954.122C61.9733 952.215 58.0666 953.042 56.1599 955.975C51.1466 963.682 48.2934 972.642 47.8534 981.788C41.9867 978.722 36.3467 974.748 31.3201 970.122C32.0534 969.015 32.4533 967.668 32.3599 966.242C31.7333 957.402 34.5466 948.348 40.08 941.428C42.2533 938.695 41.8 934.735 39.08 932.562C36.36 930.375 32.3866 930.828 30.2133 933.548C24.8266 940.295 21.36 948.522 20.1466 957.068C9.51998 940.255 8.49326 913.375 31.0266 891.535ZM334.44 442.508C334.44 437.588 354.4 421.402 443.053 411.842C477.333 408.135 516.533 406.175 556.413 406.175C594.44 406.175 632.08 407.975 665.253 411.362C700.2 414.935 729.493 420.162 749.987 426.482C772.453 433.415 778.386 439.988 778.386 442.508C778.386 446.615 764.533 459.175 702.213 468.922L693.267 449.482C695 448.535 696.28 446.802 696.52 444.682C696.933 441.228 694.467 438.082 691 437.682C652.373 433.082 607.453 430.668 561.093 430.668C508.84 430.668 459.267 433.682 417.733 439.402C414.28 439.868 411.867 443.055 412.333 446.508C412.587 448.282 413.56 449.775 414.907 450.748L406.92 468.335C347.627 458.628 334.44 446.468 334.44 442.508ZM553.573 176.095L655.573 397.762C624.76 395.015 590.733 393.562 556.413 393.562C520.267 393.562 484.653 395.148 452.653 398.188L553.573 176.095ZM942.267 501.762C942.36 501.668 942.413 501.562 942.507 501.468C942.653 501.295 942.8 501.122 942.933 500.922C943.04 500.762 943.133 500.588 943.227 500.415C943.333 500.242 943.427 500.055 943.507 499.855C943.587 499.668 943.653 499.482 943.72 499.282C943.773 499.095 943.84 498.908 943.88 498.708C943.92 498.508 943.947 498.308 943.973 498.108C943.987 497.908 944.013 497.708 944.013 497.495C944.027 497.308 944.013 497.108 943.986 496.908C943.973 496.708 943.96 496.495 943.92 496.295C943.893 496.082 943.84 495.895 943.773 495.695C943.72 495.508 943.667 495.308 943.6 495.122C943.52 494.908 943.413 494.708 943.307 494.508C943.253 494.388 943.213 494.268 943.147 494.148C924.827 463.402 934.547 423.215 934.64 422.815C934.827 422.055 934.88 421.268 934.786 420.495C932.186 399.602 933.973 382.415 937.2 377.868C939.12 375.148 945.04 370.815 949.96 371.842C955.187 372.935 959.493 380.135 962.147 392.148L946.907 576.668C946.64 576.868 946.36 577.055 946.12 577.295C895.8 626.668 828.266 680.642 807.253 697.188L781.813 641.908C789.653 635.815 883.947 562.202 942.267 501.762ZM983.08 291.988L1004.19 293.735L996.573 385.882C984.547 388.735 979.827 395.495 978.013 400.695C973.907 412.402 976.84 420.215 980.027 424.695C981.6 426.908 983.626 428.868 986.053 430.588C981.666 433.615 979.28 437.548 978.013 441.162C973.907 452.882 976.84 460.682 980.027 465.162C981.6 467.375 983.613 469.335 986.04 471.042C981.973 473.602 978.56 477.255 976.533 482.242C974.147 488.095 974.266 494.628 976.853 500.642C978.813 505.162 982.107 509.162 986.147 512.175L977.227 620.122L956.12 618.388L983.08 291.988ZM986.413 251.615L1007.52 253.362L1005.23 281.148L984.12 279.415L986.413 251.615ZM1032.31 400.055C1037.15 401.135 1041.24 403.815 1043.81 407.588C1047.93 413.575 1048.32 420.922 1044.99 429.402C1044.2 431.402 1044.03 434.188 1043.88 459.215C1043.84 465.615 1043.8 471.642 1043.71 474.522C1043.4 483.442 1040.87 504.375 1023.85 506.162C1016.68 506.922 1006.13 507.535 997.44 504.175C993.507 502.642 990.053 499.375 988.44 495.642C987.56 493.602 986.813 490.455 988.227 486.988C991.08 479.948 1000.53 478.068 1007.77 478.615C1012.79 479.322 1018.36 479.695 1024.52 479.695C1028 479.695 1030.83 476.882 1030.83 473.388C1030.83 469.908 1028 467.082 1024.52 467.082C1006.68 467.082 994.533 463.802 990.32 457.855C989.52 456.748 987.12 453.348 989.92 445.335C990.573 443.468 992.52 437.802 1007.09 438.042C1012.28 438.828 1018.08 439.228 1024.52 439.228C1028 439.228 1030.83 436.402 1030.83 432.922C1030.83 429.442 1028 426.615 1024.52 426.615C1006.68 426.615 994.533 423.335 990.32 417.388C989.52 416.282 987.12 412.882 989.92 404.868C993.346 395.095 1014.89 396.162 1032.31 400.055ZM788.093 1303.71H641.907L615.587 1166.77H755.027L788.093 1303.71ZM805.693 1316.34V1370.12C797.467 1371.12 782.947 1373.83 774.027 1380.97C771.293 1383.15 770.853 1387.12 773.04 1389.84C774.28 1391.4 776.12 1392.21 777.973 1392.21C779.347 1392.21 780.747 1391.76 781.907 1390.83C789.547 1384.72 806.147 1382.53 812.147 1382.19C857.547 1382.25 896.12 1411.83 909.747 1452.72H670.547L644.333 1316.34H805.693ZM914.853 1479.29H675.653L672.973 1465.35H913.08C913.973 1469.89 914.586 1474.55 914.853 1479.29ZM459.187 1303.71H313L346.067 1166.77H485.507L459.187 1303.71ZM430.547 1452.72H191.347C204.96 1411.84 243.547 1382.25 288.933 1382.19C294.933 1382.53 311.547 1384.71 319.187 1390.83C320.347 1391.76 321.747 1392.21 323.12 1392.21C324.973 1392.21 326.813 1391.4 328.053 1389.84C330.24 1387.12 329.787 1383.15 327.067 1380.97C318.147 1373.83 303.627 1371.12 295.4 1370.12V1316.34H456.76L430.547 1452.72ZM425.44 1479.29H186.24C186.507 1474.55 187.12 1469.89 188.013 1465.35H428.12L425.44 1479.29ZM65.5867 1000.75C67.9867 1001.06 70.36 1001.22 72.68 1001.22C83.5333 1001.22 93.4001 997.775 101.507 991.108C102.427 990.348 103.32 989.562 104.173 988.722C113.293 993.295 125.32 991.322 136.493 983.028C161.68 964.335 159.693 928.815 144.653 901.988C173.307 876.895 204.787 855.695 238.627 838.682L93.5867 1157.85C92.7067 1159.81 92.8666 1162.08 94.0266 1163.88C95.1866 1165.69 97.1867 1166.77 99.3334 1166.77H333.08L300.013 1303.71H289.093C285.6 1303.71 282.773 1306.53 282.773 1310.03V1369.74C231.307 1372.51 188.693 1409.11 176.787 1457.63C176.76 1457.71 176.747 1457.79 176.733 1457.87C174.6 1466.63 173.453 1475.79 173.453 1485.2V1485.6C173.453 1489.08 176.28 1491.91 179.76 1491.91H430.653C433.68 1491.91 436.28 1489.76 436.853 1486.79L470.573 1311.32C470.6 1311.25 470.6 1311.19 470.613 1311.12L498.36 1166.77H602.733L630.467 1311.09C630.48 1311.17 630.507 1311.27 630.52 1311.35L664.24 1486.79C664.813 1489.76 667.413 1491.91 670.44 1491.91H921.333C924.813 1491.91 927.64 1489.08 927.64 1485.6V1485.2C927.64 1475.79 926.493 1466.63 924.36 1457.87C924.347 1457.79 924.333 1457.71 924.307 1457.63C912.4 1409.11 869.773 1372.51 818.32 1369.74V1310.03C818.32 1306.53 815.493 1303.71 812 1303.71H801.067L768.013 1166.77H1013.49C1015.64 1166.77 1017.64 1165.68 1018.8 1163.87C1019.96 1162.07 1020.12 1159.79 1019.23 1157.83L812.68 708.975C829.573 695.722 893.813 644.735 945.347 595.602L943.027 623.642C942.893 625.308 943.427 626.962 944.507 628.242C945.587 629.508 947.133 630.308 948.8 630.442L982.48 633.228C982.653 633.242 982.827 633.255 983.013 633.255C986.253 633.255 989.013 630.748 989.293 627.455L998.36 517.655C1003.56 518.948 1008.87 519.388 1013.76 519.388C1017.97 519.388 1021.88 519.068 1025.19 518.722C1043.83 516.762 1055.47 500.388 1056.32 474.948C1056.43 471.895 1056.45 466.055 1056.49 459.295C1056.55 450.722 1056.63 436.602 1056.96 433.455C1062.81 418.028 1058.73 407.015 1054.23 400.455C1049.83 394.028 1043.03 389.522 1035.07 387.735C1024.79 385.442 1016.32 384.508 1009.35 384.522L1020.61 248.108C1020.91 244.642 1018.32 241.588 1014.85 241.308L981.16 238.522C979.507 238.388 977.84 238.908 976.573 239.988C975.293 241.082 974.493 242.615 974.36 244.282L964.267 366.495C960.947 362.788 957.04 360.428 952.533 359.482C941.24 357.148 930.813 365.042 926.907 370.575C920.12 380.135 920.066 403.402 922.12 420.922C920.52 428.082 913.587 464.695 929.947 496.335C875.6 551.855 792.68 617.375 776.386 630.122L707.693 480.828C730.92 477.042 749.693 472.482 763.52 467.242C782.013 460.228 791 452.135 791 442.508C791 431.348 778.8 422.175 753.707 414.428C733.16 408.082 704.307 402.828 670.12 399.188L559.267 158.282C558.24 156.042 556 154.615 553.533 154.615C553.533 154.615 553.533 154.615 553.52 154.615C551.053 154.615 548.813 156.068 547.787 158.308L438.893 397.948C438.653 398.508 438.507 399.082 438.427 399.655C405.36 403.362 377.493 408.602 357.747 414.855C333.573 422.508 321.827 431.562 321.827 442.508C321.827 451.948 330.453 459.908 348.2 466.815C361.387 471.948 379.307 476.442 401.52 480.228L291.307 722.762C250.76 734.215 206.333 753.055 165.347 776.228C119.653 802.082 80.5735 831.748 52.2401 862.108C42.0935 866.162 32.0135 873.002 22.2401 882.468C11.1068 893.255 3.59998 907.162 1.07998 921.615C-1.72002 937.748 1.80003 953.268 11.2667 966.482C24.2934 984.668 45.6134 998.122 65.5867 1000.75Z" fill="#040606"/>
<path d="M762.8 1387.28C760.747 1387.28 758.733 1386.28 757.52 1384.43C755.613 1381.51 756.427 1377.6 759.347 1375.7C781.147 1361.42 806.546 1363.35 807.626 1363.44C811.093 1363.73 813.666 1366.79 813.386 1370.25C813.093 1373.73 810.027 1376.3 806.573 1376.03C806.24 1376 784.28 1374.44 766.253 1386.25C765.186 1386.95 763.987 1387.28 762.8 1387.28Z" fill="white"/>
<path d="M337.16 1387.28C335.973 1387.28 334.773 1386.95 333.707 1386.25C315.507 1374.32 293.613 1376 293.4 1376.02C289.92 1376.31 286.88 1373.73 286.587 1370.25C286.293 1366.79 288.867 1363.73 292.347 1363.44C293.413 1363.35 318.827 1361.42 340.627 1375.7C343.547 1377.6 344.36 1381.51 342.44 1384.43C341.24 1386.28 339.213 1387.28 337.16 1387.28Z" fill="white"/>
<path d="M445.133 412.493C442.186 412.493 439.546 410.413 438.946 407.413C438.266 403.987 440.493 400.667 443.907 399.987C444.907 399.787 544.413 380.467 662.4 399.4C665.84 399.96 668.173 403.187 667.626 406.64C667.08 410.08 663.853 412.427 660.4 411.867C544.76 393.307 447.347 412.173 446.373 412.373C445.96 412.453 445.546 412.493 445.133 412.493Z" fill="white"/>
</svg>
