<svg width="1312" height="1423" viewBox="0 0 1312 1423" fill="none" xmlns="http://www.w3.org/2000/svg">
<path d="M286.962 415.748C290.655 418.135 295.055 418.935 299.348 418.015C303.642 417.095 307.322 414.548 309.695 410.855C314.615 403.242 312.428 393.042 304.815 388.122C302.055 386.348 298.975 385.508 295.922 385.508C290.522 385.508 285.215 388.148 282.082 393.015C279.695 396.708 278.895 401.108 279.815 405.402C280.735 409.695 283.282 413.362 286.962 415.748Z" fill="#83BFEA"/>
<path d="M299.602 160.228C292.628 172.402 280.468 179.175 266.908 184.562C265.108 185.562 262.922 186.362 261.122 187.548C261.322 189.948 260.922 192.335 260.322 194.935C259.722 196.922 258.935 198.522 258.135 200.308C256.135 203.708 253.348 206.495 250.148 208.295C248.162 208.895 246.362 209.882 244.575 210.682C241.575 211.482 238.788 211.482 235.602 210.882C232.402 210.682 230.015 209.882 227.029 208.295C224.629 206.895 222.442 205.095 220.842 202.508C218.655 200.308 217.655 197.922 216.655 194.935C216.455 194.135 216.455 193.735 216.455 192.935C215.855 190.348 215.455 187.748 215.455 185.362C215.455 184.562 215.455 183.762 215.455 183.162C215.855 180.775 216.055 177.975 216.455 175.588C216.655 175.188 217.055 174.588 217.455 173.788C218.055 171.602 218.842 169.202 220.242 167.215C220.642 166.015 221.442 164.815 222.242 164.215C224.028 161.428 225.828 158.842 228.015 156.842C230.415 154.455 232.602 153.055 235.202 151.055C237.588 149.468 240.188 148.068 242.775 146.668C256.335 141.095 250.749 138.495 239.189 141.495C236.202 141.895 233.002 142.682 230.415 143.882C229.415 144.282 228.615 144.682 227.815 145.282C224.428 147.068 220.442 148.068 216.455 148.068C214.455 147.868 212.468 147.468 210.668 147.268C206.482 146.282 203.295 144.282 200.308 141.695C199.108 140.095 197.908 138.695 196.908 137.308C195.322 134.708 194.522 131.722 194.322 128.922C193.722 125.935 193.922 122.748 194.722 120.148C195.322 116.962 196.708 114.375 198.508 112.375C200.108 109.988 202.495 108.188 205.095 106.588C221.242 98.415 238.789 95.4284 259.322 98.2151C263.122 99.0151 266.909 100.015 270.895 101.602C293.029 109.188 314.962 136.108 299.602 160.228ZM258.335 248.375C257.735 251.162 255.935 253.362 253.548 255.548C251.748 257.348 249.362 259.335 246.362 260.335C243.775 261.535 240.789 262.135 237.989 261.935C233.602 261.935 230.015 260.735 226.229 258.935C224.829 257.548 223.428 256.548 221.842 255.548C218.655 252.762 217.055 249.562 216.055 245.575C215.655 243.788 215.455 241.988 215.055 239.802C215.055 236.602 215.655 234.015 217.055 231.428C218.055 228.428 219.642 226.242 221.842 224.242C223.828 221.855 226.228 220.255 229.015 219.455C231.815 218.055 234.602 217.468 237.989 217.668C241.775 217.668 245.575 218.655 249.162 220.455C250.549 221.655 252.148 223.242 253.548 224.242C256.535 227.028 258.535 230.228 259.722 234.015C259.722 235.815 259.922 238.002 260.122 239.802C260.322 242.788 259.722 245.575 258.335 248.375ZM398.708 262.855C398.708 262.682 398.709 262.522 398.695 262.362C398.695 262.135 398.682 261.908 398.682 261.682C398.628 258.362 401.162 255.575 404.468 255.308C422.642 253.802 439.508 245.575 451.935 232.148C464.442 218.642 471.322 201.055 471.322 182.642C471.322 145.068 443.188 113.882 405.868 110.082C402.548 109.748 400.068 106.895 400.202 103.562C400.242 102.402 400.282 101.322 400.282 100.242C400.282 52.4016 361.362 13.4817 313.535 13.4817C287.842 13.4817 263.615 24.7883 247.068 44.5083C245.868 45.935 244.108 46.7617 242.242 46.7617C240.375 46.7617 238.602 45.935 237.402 44.5083C220.855 24.7883 196.628 13.4817 170.948 13.4817C123.108 13.4817 84.2016 52.4016 84.2016 100.242C84.2016 101.322 84.2418 102.402 84.2818 103.482C84.4018 106.802 81.9218 109.748 78.6151 110.082C41.2951 113.882 13.1484 145.068 13.1484 182.642C13.1484 201.055 20.0418 218.642 32.5484 232.148C44.9751 245.575 61.8282 253.802 80.0016 255.308C83.3082 255.575 85.8416 258.362 85.8016 261.682C85.7882 261.908 85.7883 262.135 85.775 262.362C85.775 262.522 85.762 262.682 85.762 262.855C85.762 309.815 123.975 348.028 170.948 348.028C196.855 348.028 221.042 336.428 237.322 316.202C238.522 314.722 240.322 313.855 242.242 313.855C244.148 313.855 245.962 314.722 247.148 316.202C263.428 336.428 287.628 348.028 313.535 348.028C360.495 348.028 398.708 309.815 398.708 262.855Z" fill="#83BFEA"/>
<path d="M362.615 438.295C361.188 437.375 359.548 436.895 357.882 436.895C357.268 436.895 356.642 436.961 356.028 437.095C353.735 437.575 351.788 438.935 350.522 440.895C349.242 442.868 348.815 445.201 349.308 447.495C349.801 449.775 351.148 451.735 353.122 453.001C355.082 454.268 357.415 454.695 359.708 454.201C362.001 453.721 363.948 452.361 365.215 450.401C366.495 448.428 366.922 446.095 366.428 443.801C365.935 441.521 364.588 439.561 362.615 438.295Z" fill="#83BFEA"/>
<path d="M259.721 234.015C258.535 230.228 256.535 227.028 253.548 224.241C252.148 223.241 250.548 221.655 249.161 220.455C245.575 218.655 241.775 217.668 237.988 217.668C234.601 217.468 231.815 218.055 229.015 219.455C226.228 220.255 223.828 221.855 221.841 224.241C219.641 226.241 218.055 228.428 217.055 231.428C215.655 234.015 215.055 236.601 215.055 239.801C215.455 241.988 215.655 243.788 216.055 245.575C217.055 249.561 218.654 252.762 221.841 255.548C223.428 256.548 224.828 257.548 226.228 258.935C230.015 260.735 233.601 261.935 237.988 261.935C240.788 262.135 243.775 261.535 246.361 260.335C249.361 259.335 251.748 257.348 253.548 255.548C255.935 253.362 257.734 251.161 258.334 248.375C259.721 245.575 260.321 242.788 260.121 239.801C259.921 238.001 259.721 235.815 259.721 234.015Z" fill="#040606"/>
<path d="M270.895 101.602C266.908 100.015 263.122 99.0152 259.322 98.2152C238.788 95.4286 221.242 98.4152 205.095 106.589C202.495 108.189 200.108 109.988 198.508 112.375C196.708 114.375 195.322 116.962 194.722 120.149C193.922 122.749 193.722 125.935 194.322 128.922C194.522 131.722 195.321 134.708 196.908 137.308C197.908 138.695 199.108 140.095 200.308 141.695C203.295 144.282 206.481 146.282 210.668 147.268C212.468 147.468 214.455 147.868 216.455 148.068C220.442 148.068 224.428 147.069 227.815 145.282C228.615 144.682 229.415 144.282 230.415 143.882C233.001 142.682 236.202 141.895 239.188 141.495C250.748 138.495 256.335 141.095 242.775 146.668C240.188 148.068 237.588 149.469 235.201 151.055C232.601 153.055 230.415 154.455 228.015 156.842C225.828 158.842 224.028 161.429 222.241 164.215C221.441 164.815 220.641 166.015 220.241 167.215C218.841 169.202 218.055 171.602 217.455 173.789C217.055 174.589 216.655 175.189 216.455 175.589C216.055 177.975 215.855 180.775 215.455 183.162C215.455 183.762 215.455 184.562 215.455 185.362C215.455 187.748 215.855 190.348 216.455 192.935C216.455 193.735 216.455 194.135 216.655 194.935C217.655 197.922 218.655 200.308 220.841 202.508C222.441 205.095 224.628 206.895 227.028 208.295C230.015 209.882 232.401 210.682 235.601 210.882C238.788 211.482 241.575 211.482 244.575 210.682C246.361 209.882 248.161 208.895 250.148 208.295C253.348 206.495 256.135 203.708 258.135 200.308C258.935 198.522 259.722 196.922 260.322 194.935C260.922 192.335 261.322 189.949 261.122 187.549C262.922 186.362 265.108 185.562 266.908 184.562C280.468 179.175 292.628 172.402 299.601 160.228C314.961 136.109 293.028 109.188 270.895 101.602Z" fill="#040606"/>
<path d="M247.149 316.201C245.962 314.721 244.149 313.855 242.242 313.855C240.322 313.855 238.522 314.721 237.322 316.201C221.042 336.428 196.855 348.028 170.949 348.028C123.975 348.028 85.7622 309.815 85.7622 262.855C85.7622 262.681 85.7753 262.521 85.7753 262.361C85.7886 262.135 85.7885 261.908 85.8018 261.681C85.8418 258.361 83.3085 255.575 80.0018 255.308C61.8285 253.801 44.9754 245.575 32.5487 232.148C20.042 218.641 13.1487 201.055 13.1487 182.641C13.1487 145.068 41.2954 113.881 78.6154 110.081C81.922 109.748 84.402 106.801 84.282 103.481C84.242 102.401 84.2018 101.321 84.2018 100.241C84.2018 52.4014 123.109 13.4815 170.949 13.4815C196.629 13.4815 220.855 24.788 237.402 44.508C238.602 45.9347 240.375 46.7614 242.242 46.7614C244.109 46.7614 245.869 45.9347 247.069 44.508C263.615 24.788 287.842 13.4815 313.535 13.4815C361.362 13.4815 400.282 52.4014 400.282 100.241C400.282 101.321 400.242 102.401 400.202 103.561C400.069 106.895 402.549 109.748 405.869 110.081C443.189 113.881 471.322 145.068 471.322 182.641C471.322 201.055 464.442 218.641 451.935 232.148C439.509 245.575 422.642 253.801 404.469 255.308C401.162 255.575 398.629 258.361 398.682 261.681C398.682 261.908 398.696 262.135 398.696 262.361C398.709 262.521 398.709 262.681 398.709 262.855C398.709 309.815 360.495 348.028 313.535 348.028C287.629 348.028 263.429 336.428 247.149 316.201ZM411.242 267.215C430.362 264.335 447.935 255.055 461.202 240.721C475.869 224.881 483.949 204.255 483.949 182.641C483.949 140.521 453.775 105.228 412.882 98.308C411.855 44.4014 367.682 0.868178 313.535 0.868178C286.522 0.868178 260.922 11.7747 242.242 31.0281C223.562 11.7747 197.962 0.868178 170.949 0.868178C116.802 0.868178 72.6288 44.4014 71.5888 98.308C30.6955 105.228 0.535156 140.521 0.535156 182.641C0.535156 204.255 8.61537 224.881 23.282 240.721C36.5487 255.055 54.1219 264.335 73.2419 267.215C75.5353 319.121 118.482 360.655 170.949 360.655C198.189 360.655 223.775 349.481 242.242 329.775C260.709 349.481 286.295 360.655 313.535 360.655C366.002 360.655 408.949 319.121 411.242 267.215Z" fill="#040606"/>
<path d="M365.215 450.402C363.948 452.362 362.001 453.722 359.708 454.202C357.414 454.695 355.081 454.268 353.121 453.002C351.148 451.735 349.801 449.775 349.308 447.495C348.814 445.202 349.241 442.868 350.521 440.895C351.788 438.935 353.735 437.575 356.028 437.095C356.641 436.962 357.268 436.895 357.881 436.895C359.548 436.895 361.188 437.375 362.615 438.295C364.588 439.562 365.935 441.522 366.428 443.802C366.921 446.095 366.495 448.428 365.215 450.402ZM353.374 424.748C347.788 425.948 343.014 429.255 339.908 434.055C333.521 443.948 336.374 457.202 346.268 463.602C349.774 465.868 353.761 467.028 357.828 467.028C359.335 467.028 360.855 466.868 362.361 466.548C367.948 465.348 372.721 462.042 375.828 457.242C382.215 447.348 379.374 434.095 369.468 427.695C364.668 424.588 358.961 423.548 353.374 424.748Z" fill="#040606"/>
<path d="M282.082 393.015C285.215 388.148 290.522 385.508 295.922 385.508C298.975 385.508 302.055 386.348 304.815 388.122C312.428 393.042 314.615 403.242 309.695 410.855C307.322 414.548 303.642 417.095 299.348 418.015C295.055 418.935 290.655 418.135 286.962 415.748C283.282 413.362 280.735 409.695 279.815 405.402C278.895 401.108 279.695 396.708 282.082 393.015ZM280.122 426.348C284.988 429.495 290.441 430.988 295.841 430.988C305.388 430.988 314.748 426.308 320.308 417.708C329.001 404.242 325.122 386.215 311.655 377.522C298.202 368.828 280.175 372.708 271.482 386.175C267.268 392.695 265.842 400.455 267.482 408.055C269.108 415.642 273.602 422.135 280.122 426.348Z" fill="#040606"/>
<path d="M822.908 573.055C830.401 582.482 835.041 595.428 835.041 609.735C835.041 638.548 816.255 661.922 793.068 661.922C787.521 661.922 782.241 660.575 777.401 658.148C785.975 673.242 800.428 682.548 816.282 682.548C842.095 682.548 863.095 657.868 863.095 627.535C863.095 599.828 845.601 576.855 822.908 573.055Z" fill="white"/>
<path d="M696.175 683.841C682.055 683.841 666.322 690.601 666.322 700.321C666.322 710.028 682.055 716.788 696.175 716.788C710.282 716.788 726.015 710.028 726.015 700.321C726.015 690.601 710.282 683.841 696.175 683.841Z" fill="#040606"/>
<path d="M576.055 682.548C601.869 682.548 622.868 657.868 622.868 627.535C622.868 599.828 605.362 576.855 582.682 573.055C590.175 582.482 594.815 595.428 594.815 609.735C594.815 638.548 576.028 661.922 552.842 661.922C547.295 661.922 542.015 660.575 537.162 658.148C545.749 673.242 560.202 682.548 576.055 682.548Z" fill="white"/>
<path d="M950.734 1042.25C950.241 1042.16 949.735 1042.07 949.241 1041.97C925.908 1064.32 897.281 1082.63 865.241 1096.15L964.295 1410.15H1161.53V1407.77C1161.53 1341.49 1107.61 1287.57 1041.33 1287.57C1038.65 1287.57 1036.27 1285.88 1035.37 1283.36L950.881 1042.84C950.815 1042.65 950.788 1042.45 950.734 1042.25Z" fill="#F579C3"/>
<path d="M495.029 1047.39C494.402 1047.39 493.762 1047.36 493.135 1047.36L410.215 1283.36C409.335 1285.88 406.948 1287.57 404.268 1287.57C337.988 1287.57 284.068 1341.49 284.068 1407.77V1410.15H481.295L582.268 1090.07C558.442 1078.31 537.042 1063.63 519.095 1046.33C511.095 1047.03 503.015 1047.39 495.029 1047.39Z" fill="#F579C3"/>
<path d="M816.281 695.175C791.895 695.175 770.255 678.561 761.148 652.841C758.295 644.815 756.855 636.295 756.855 627.535C756.855 590.281 783.481 559.921 816.201 559.881C849.055 559.881 875.722 590.228 875.722 627.535C875.722 664.828 849.055 695.175 816.281 695.175ZM696.175 729.415C672.361 729.415 653.708 716.628 653.708 700.321C653.708 684.001 672.361 671.228 696.175 671.228C719.988 671.228 738.628 684.001 738.628 700.321C738.628 716.628 719.988 729.415 696.175 729.415ZM712.495 775.348C709.708 789.095 698.108 798.988 680.962 802.628C682.895 812.841 684.921 832.068 676.335 844.975C676.855 847.815 677.548 852.401 677.681 857.588C678.015 869.748 675.295 879.055 669.588 885.241C655.508 900.535 628.762 911.268 595.228 896.761C579.108 906.428 502.788 950.215 442.295 950.228C429.122 950.228 416.708 948.148 405.815 943.188C339.908 913.175 333.082 849.188 332.828 846.481C332.495 843.015 335.041 839.935 338.508 839.601C341.975 839.268 345.055 841.815 345.388 845.281C345.402 845.415 346.975 860.428 355.908 878.521C367.761 902.548 386.308 920.441 411.041 931.695C435.295 942.748 473.961 938.201 522.841 918.561C560.588 903.401 591.148 884.468 591.455 884.281C593.282 883.148 595.548 883.015 597.495 883.935C604.015 887.028 637.708 901.215 660.308 876.695C665.615 870.921 665.535 859.241 664.562 851.308C661.508 851.815 658.468 851.988 655.775 851.988C650.948 851.988 647.215 851.455 646.455 851.348C643.015 850.815 640.655 847.588 641.175 844.148C641.708 840.708 644.921 838.348 648.375 838.868C651.308 839.308 659.695 839.948 665.708 838.148C671.561 829.655 670.441 814.735 668.641 805.255C665.535 805.775 662.442 805.948 659.695 805.948C654.855 805.948 651.135 805.415 650.375 805.308C646.935 804.775 644.575 801.548 645.095 798.108C645.628 794.668 648.841 792.295 652.281 792.828C655.361 793.295 664.321 793.961 670.375 791.868C671.068 791.508 671.828 791.255 672.628 791.175C695.175 788.775 699.375 776.535 700.135 772.841C701.321 767.001 699.055 761.375 694.495 758.841C686.215 754.241 666.441 754.415 639.081 754.655C632.081 754.721 624.135 754.775 615.775 754.788H615.762C603.975 754.788 594.588 762.375 588.788 768.748C578.082 780.508 573.242 794.708 573.655 799.028C573.882 801.468 572.682 803.815 570.588 805.055C570.362 805.188 548.415 818.121 523.535 830.295C488.708 847.335 465.748 854.535 453.375 852.295C420.508 846.375 398.575 802.095 397.655 800.215C396.122 797.081 397.428 793.308 400.562 791.775C403.695 790.255 407.468 791.548 408.988 794.681C409.295 795.295 429.121 835.095 455.615 839.881C472.521 842.935 527.975 815.255 561.162 795.948C562.282 785.695 569.668 771.001 579.455 760.255C590.228 748.415 602.788 742.161 615.748 742.161C616.148 742.175 616.508 742.161 616.881 742.161C624.761 742.161 631.975 742.095 638.975 742.041C670.441 741.761 689.428 741.588 700.628 747.801C710.015 753.028 714.788 764.095 712.495 775.348ZM575.975 559.881C608.828 559.881 635.495 590.228 635.495 627.535C635.495 664.828 608.828 695.175 576.055 695.175C551.668 695.175 530.028 678.561 520.922 652.841C518.068 644.815 516.628 636.295 516.628 627.535C516.628 590.281 543.255 559.921 575.975 559.881ZM1269.05 1013.95C1268.29 1013.31 1267.69 1012.51 1267.31 1011.6C1254.19 981.095 1235.07 949.015 1210.51 916.241C1168.48 860.175 1114.13 807.415 1061.39 771.495C1058.51 769.535 1057.76 765.601 1059.72 762.721C1061.68 759.841 1065.62 759.095 1068.5 761.055C1119.3 795.655 1171.51 845.508 1213.21 899.015C1216.61 886.641 1218.35 873.961 1218.35 861.161C1218.35 821.855 1202.48 784.775 1172.45 753.908C1170.36 751.761 1170.08 748.428 1171.77 745.948C1189.32 720.361 1198.6 691.308 1198.6 661.921C1198.6 566.188 1102.35 488.308 984.041 488.308C968.935 488.308 953.815 489.601 939.081 492.148C935.948 492.681 932.895 490.801 931.962 487.761C920.788 450.828 894.281 417.335 857.335 393.428C818.988 368.628 772.721 355.521 723.548 355.521C626.628 355.521 541.401 408.388 516.308 484.095C515.428 486.735 512.961 488.468 510.148 488.415C507.695 488.348 505.455 488.308 503.322 488.308C385.015 488.308 288.775 566.188 288.775 661.921C288.775 694.028 299.722 725.401 320.428 752.655C322.242 755.041 322.121 758.375 320.135 760.641C294.188 790.135 280.481 824.895 280.481 861.161C280.481 954.775 372.535 1031.31 487.255 1034.63C488.295 1034.37 489.402 1034.4 490.495 1034.71C492.002 1034.73 493.522 1034.76 495.028 1034.76C503.588 1034.76 512.255 1034.33 520.801 1033.51C522.681 1033.32 524.521 1033.97 525.868 1035.29C576.775 1085.71 658.375 1113.61 744.148 1110.01C822.575 1106.71 894.988 1077.77 942.815 1030.61C944.335 1029.12 946.495 1028.49 948.575 1028.95C966.548 1032.8 985.121 1034.76 1003.77 1034.76C1058.96 1034.76 1110.97 1017.99 1150.95 987.428C1112.01 926.388 1061.67 875.281 1001.17 835.508C998.255 833.588 997.442 829.668 999.362 826.761C1001.28 823.855 1005.19 823.041 1008.11 824.961C1071.72 866.775 1124.41 920.801 1164.72 985.521C1169.87 993.761 1174.92 1002.4 1179.73 1011.2C1181.23 1013.93 1180.5 1017.35 1178.03 1019.24L1177.52 1019.63C1177.23 1019.84 1176.95 1020.05 1176.67 1020.28C1145.83 1045.19 1142.04 1076.63 1154.27 1094.79C1159.04 1101.87 1167.11 1108.88 1175.04 1107.03C1175.92 1104 1177 1096.64 1172.63 1084.16C1171.48 1080.88 1173.2 1077.28 1176.5 1076.12C1179.78 1074.96 1183.39 1076.69 1184.53 1079.99C1190.47 1096.88 1188.48 1107.35 1186.57 1112.35C1187.29 1114.07 1188.11 1115.71 1189.03 1117.24C1194.6 1126.48 1203.36 1132.43 1215.08 1134.92C1217.79 1135.49 1220.63 1135.84 1223.55 1136.01C1227.55 1127.01 1228.52 1116.47 1226.21 1106.91C1225.4 1103.51 1227.48 1100.11 1230.87 1099.28C1234.25 1098.47 1237.67 1100.55 1238.48 1103.93C1241 1114.39 1240.55 1125.37 1237.24 1135.53C1245.41 1134.49 1253.76 1132.2 1261.57 1128.77C1261.03 1127.31 1261.02 1125.63 1261.7 1124.08C1265.79 1114.65 1266.2 1103.68 1262.84 1093.97C1261.69 1090.68 1263.44 1087.09 1266.73 1085.95C1270.03 1084.81 1273.63 1086.55 1274.77 1089.84C1278.17 1099.68 1278.59 1110.51 1276.11 1120.61C1295.16 1106.99 1307.99 1077.33 1291.36 1043.91C1285.02 1031.12 1277.51 1021.04 1269.05 1013.95Z" fill="#F579C3"/>
<path d="M1276.11 1120.62C1278.59 1110.51 1278.18 1099.68 1274.78 1089.84C1273.63 1086.55 1270.03 1084.82 1266.74 1085.95C1263.44 1087.1 1261.7 1090.68 1262.84 1093.97C1266.2 1103.68 1265.79 1114.66 1261.7 1124.08C1261.02 1125.63 1261.03 1127.31 1261.58 1128.77C1253.76 1132.2 1245.42 1134.5 1237.24 1135.54C1240.55 1125.38 1241 1114.39 1238.48 1103.94C1237.67 1100.55 1234.26 1098.47 1230.87 1099.28C1227.48 1100.11 1225.4 1103.51 1226.22 1106.91C1228.52 1116.47 1227.55 1127.02 1223.55 1136.02C1220.63 1135.84 1217.79 1135.5 1215.08 1134.92C1203.36 1132.43 1194.6 1126.48 1189.03 1117.24C1188.11 1115.71 1187.3 1114.07 1186.58 1112.35C1188.48 1107.35 1190.47 1096.88 1184.54 1079.99C1183.39 1076.7 1179.78 1074.96 1176.5 1076.12C1173.2 1077.28 1171.48 1080.88 1172.63 1084.16C1177 1096.64 1175.92 1104 1175.04 1107.03C1167.11 1108.88 1159.04 1101.87 1154.27 1094.79C1142.04 1076.63 1145.83 1045.19 1176.67 1020.28C1176.95 1020.06 1177.23 1019.84 1177.52 1019.63L1178.03 1019.24C1180.5 1017.35 1181.23 1013.94 1179.74 1011.2C1174.92 1002.4 1169.87 993.762 1164.72 985.522C1124.42 920.802 1071.72 866.775 1008.11 824.962C1005.19 823.042 1001.28 823.855 999.362 826.762C997.442 829.668 998.255 833.588 1001.18 835.508C1061.67 875.282 1112.02 926.388 1150.95 987.428C1110.98 1017.99 1058.96 1034.76 1003.78 1034.76C985.122 1034.76 966.549 1032.8 948.575 1028.95C946.495 1028.5 944.335 1029.12 942.815 1030.62C894.989 1077.78 822.575 1106.71 744.149 1110.02C658.375 1113.62 576.775 1085.71 525.869 1035.3C524.522 1033.98 522.682 1033.32 520.802 1033.51C512.255 1034.33 503.589 1034.76 495.029 1034.76C493.522 1034.76 492.002 1034.73 490.496 1034.71C489.402 1034.4 488.295 1034.38 487.255 1034.63C372.535 1031.31 280.482 954.775 280.482 861.162C280.482 824.895 294.188 790.135 320.135 760.642C322.122 758.375 322.242 755.042 320.429 752.655C299.722 725.402 288.775 694.028 288.775 661.922C288.775 566.188 385.015 488.308 503.322 488.308C505.455 488.308 507.695 488.348 510.149 488.415C512.962 488.468 515.429 486.735 516.309 484.095C541.402 408.388 626.629 355.522 723.549 355.522C772.722 355.522 818.989 368.628 857.335 393.428C894.282 417.335 920.789 450.828 931.962 487.762C932.896 490.802 935.949 492.682 939.082 492.148C953.815 489.602 968.935 488.308 984.042 488.308C1102.35 488.308 1198.6 566.188 1198.6 661.922C1198.6 691.308 1189.32 720.362 1171.78 745.948C1170.08 748.428 1170.36 751.762 1172.46 753.908C1202.48 784.775 1218.35 821.855 1218.35 861.162C1218.35 873.962 1216.62 886.642 1213.22 899.015C1171.51 845.508 1119.3 795.655 1068.5 761.055C1065.62 759.095 1061.68 759.842 1059.72 762.722C1057.76 765.602 1058.51 769.535 1061.39 771.495C1114.14 807.415 1168.48 860.175 1210.51 916.242C1235.07 949.015 1254.19 981.095 1267.31 1011.6C1267.7 1012.51 1268.3 1013.31 1269.06 1013.95C1277.51 1021.04 1285.02 1031.12 1291.36 1043.91C1307.99 1077.33 1295.16 1106.99 1276.11 1120.62ZM1035.38 1283.36C1036.27 1285.88 1038.66 1287.58 1041.34 1287.58C1107.62 1287.58 1161.54 1341.5 1161.54 1407.78V1410.15H964.296L865.242 1096.15C897.282 1082.63 925.909 1064.32 949.242 1041.97C949.735 1042.07 950.242 1042.16 950.735 1042.26C950.789 1042.46 950.815 1042.65 950.882 1042.84L1035.38 1283.36ZM481.296 1410.15H284.068V1407.78C284.068 1341.5 337.988 1287.58 404.268 1287.58C406.948 1287.58 409.335 1285.88 410.215 1283.36L493.135 1047.36C493.762 1047.36 494.402 1047.39 495.029 1047.39C503.016 1047.39 511.096 1047.03 519.096 1046.34C537.042 1063.63 558.442 1078.31 582.269 1090.07L481.296 1410.15ZM1278.32 1005.27C1265.19 975.095 1246.46 943.535 1222.62 911.388C1228.16 895.108 1230.96 878.228 1230.96 861.162C1230.96 820.068 1215.1 781.335 1185.02 748.815C1202.18 722.175 1211.23 692.242 1211.23 661.922C1211.23 611.922 1187.43 565.015 1144.2 529.802C1101.36 494.908 1044.48 475.695 984.042 475.695C970.069 475.695 956.069 476.748 942.349 478.828C929.469 441.148 901.896 407.215 864.189 382.842C823.789 356.708 775.162 342.895 723.549 342.895C623.135 342.895 534.415 397.282 505.855 475.708C505.002 475.695 504.149 475.695 503.322 475.695C442.882 475.695 386.002 494.908 343.162 529.802C299.949 565.002 276.149 611.922 276.149 661.922C276.149 695.202 286.922 727.682 307.335 756.175C281.482 787.175 267.855 823.362 267.855 861.162C267.855 959.682 361.669 1040.55 479.896 1046.96L399.762 1275.03C328.602 1277.42 271.442 1336.04 271.442 1407.78V1416.46C271.442 1419.94 274.269 1422.76 277.749 1422.76H485.922C488.682 1422.76 491.122 1420.98 491.949 1418.35L593.802 1095.46C634.295 1113.26 680.962 1122.95 729.322 1122.95C734.429 1122.95 739.549 1122.84 744.682 1122.63C782.962 1121.02 819.895 1113.47 853.482 1100.83L953.656 1418.35C954.482 1420.98 956.909 1422.76 959.669 1422.76H1167.84C1171.32 1422.76 1174.15 1419.94 1174.15 1416.46V1407.78C1174.15 1336.04 1116.99 1277.42 1045.83 1275.03L964.882 1044.63C977.709 1046.44 990.722 1047.39 1003.78 1047.39C1061.3 1047.39 1115.64 1029.95 1157.67 998.175C1160.54 1002.91 1163.36 1007.75 1166.11 1012.66C1139.84 1035.42 1124.07 1072.52 1143.8 1101.83C1152.59 1114.9 1164.72 1121.43 1176.04 1119.71C1176.71 1121.09 1177.43 1122.46 1178.22 1123.76C1185.56 1135.94 1197.4 1144.07 1212.46 1147.26C1217.35 1148.3 1222.5 1148.8 1227.79 1148.8C1246.47 1148.8 1266.82 1142.51 1282.91 1131.28C1297.84 1120.84 1307.36 1105.75 1310.43 1087.66C1313.18 1071.43 1310.42 1053.88 1302.67 1038.3C1295.83 1024.51 1287.64 1013.42 1278.32 1005.27Z" fill="#040606"/>
<path d="M700.629 747.802C689.429 741.589 670.442 741.762 638.976 742.042C631.976 742.095 624.762 742.162 616.882 742.162C616.509 742.162 616.149 742.175 615.749 742.162C602.789 742.162 590.229 748.415 579.456 760.255C569.669 771.002 562.282 785.695 561.162 795.949C527.976 815.255 472.522 842.935 455.616 839.882C429.122 835.095 409.296 795.295 408.989 794.682C407.469 791.549 403.696 790.255 400.562 791.775C397.429 793.308 396.122 797.082 397.656 800.215C398.576 802.095 420.509 846.375 453.375 852.295C465.749 854.535 488.709 847.335 523.535 830.295C548.415 818.122 570.362 805.189 570.589 805.055C572.682 803.815 573.882 801.469 573.656 799.029C573.242 794.709 578.082 780.509 588.789 768.749C594.589 762.375 603.976 754.789 615.762 754.789H615.776C624.136 754.775 632.082 754.722 639.082 754.655C666.442 754.415 686.216 754.242 694.496 758.842C699.056 761.375 701.322 767.002 700.135 772.842C699.375 776.535 695.176 788.775 672.629 791.175C671.829 791.255 671.069 791.508 670.376 791.868C664.322 793.962 655.362 793.295 652.282 792.829C648.842 792.295 645.629 794.668 645.096 798.108C644.576 801.548 646.936 804.775 650.376 805.308C651.136 805.415 654.856 805.949 659.696 805.949C662.442 805.949 665.536 805.775 668.642 805.255C670.442 814.735 671.562 829.655 665.709 838.149C659.696 839.949 651.309 839.308 648.376 838.868C644.922 838.348 641.709 840.709 641.176 844.149C640.656 847.589 643.016 850.815 646.456 851.349C647.216 851.455 650.949 851.989 655.776 851.989C658.469 851.989 661.509 851.815 664.562 851.308C665.536 859.242 665.616 870.922 660.309 876.695C637.709 901.215 604.016 887.028 597.496 883.935C595.549 883.015 593.282 883.149 591.456 884.282C591.149 884.469 560.589 903.402 522.842 918.562C473.962 938.202 435.295 942.749 411.042 931.695C386.309 920.442 367.762 902.549 355.909 878.522C346.975 860.429 345.402 845.415 345.389 845.282C345.056 841.815 341.975 839.268 338.509 839.602C335.042 839.935 332.496 843.015 332.829 846.482C333.082 849.189 339.909 913.175 405.816 943.189C416.709 948.149 429.122 950.229 442.296 950.229C502.789 950.215 579.109 906.429 595.229 896.762C628.762 911.269 655.509 900.535 669.589 885.242C675.296 879.055 678.016 869.749 677.682 857.589C677.549 852.402 676.855 847.815 676.335 844.975C684.922 832.068 682.896 812.842 680.962 802.629C698.109 798.989 709.709 789.095 712.496 775.349C714.789 764.095 710.016 753.029 700.629 747.802Z" fill="#040606"/>
<path d="M696.175 716.788C682.055 716.788 666.322 710.028 666.322 700.322C666.322 690.602 682.055 683.842 696.175 683.842C710.281 683.842 726.015 690.602 726.015 700.322C726.015 710.028 710.281 716.788 696.175 716.788ZM696.175 671.228C672.361 671.228 653.708 684.002 653.708 700.322C653.708 716.628 672.361 729.415 696.175 729.415C719.988 729.415 738.628 716.628 738.628 700.322C738.628 684.002 719.988 671.228 696.175 671.228Z" fill="#040606"/>
<path d="M816.282 682.548C800.429 682.548 785.975 673.242 777.402 658.148C782.242 660.575 787.522 661.922 793.068 661.922C816.255 661.922 835.042 638.548 835.042 609.735C835.042 595.428 830.402 582.482 822.909 573.055C845.602 576.855 863.096 599.828 863.096 627.535C863.096 657.868 842.095 682.548 816.282 682.548ZM816.202 559.882C783.482 559.922 756.855 590.282 756.855 627.535C756.855 636.295 758.295 644.815 761.149 652.841C770.255 678.561 791.895 695.175 816.282 695.175C849.055 695.175 875.722 664.828 875.722 627.535C875.722 590.228 849.055 559.882 816.202 559.882Z" fill="#040606"/>
<path d="M552.842 661.922C576.029 661.922 594.815 638.548 594.815 609.735C594.815 595.428 590.175 582.482 582.682 573.055C605.362 576.855 622.868 599.828 622.868 627.535C622.868 657.868 601.869 682.548 576.055 682.548C560.202 682.548 545.749 673.242 537.162 658.148C542.016 660.575 547.295 661.922 552.842 661.922ZM576.055 695.175C608.829 695.175 635.496 664.828 635.496 627.535C635.496 590.228 608.829 559.882 575.975 559.882C543.255 559.922 516.629 590.282 516.629 627.535C516.629 636.295 518.069 644.815 520.922 652.841C530.029 678.561 551.669 695.175 576.055 695.175Z" fill="#040606"/>
</svg>
