<svg width="1223" height="1158" viewBox="0 0 1223 1158" fill="none" xmlns="http://www.w3.org/2000/svg">
<path d="M1198.01 120.801C1189.09 120.801 1181.87 128.028 1181.87 136.948C1181.87 145.855 1189.09 153.082 1198.01 153.082C1206.92 153.082 1214.15 145.855 1214.15 136.948C1214.15 128.028 1206.92 120.801 1198.01 120.801Z" fill="#040606"/>
<path d="M1039.77 133.975L1048.4 142.601L1080.68 110.321V155.975H1092.89V110.321L1125.17 142.601L1133.81 133.975L1101.53 101.695H1147.17V89.4814H1101.52L1133.81 57.2013L1125.17 48.5746L1092.89 80.8547V35.2013H1080.68V80.8547L1048.4 48.5746L1039.77 57.2013L1072.05 89.4814H1026.4V101.695H1072.05L1039.77 133.975Z" fill="#040606"/>
<path d="M1185.03 1021.67C1185.03 1096.83 919.893 1157.76 592.835 1157.76C265.777 1157.76 0.645264 1096.83 0.645264 1021.67C0.645264 946.508 265.777 885.588 592.835 885.588C919.893 885.588 1185.03 946.508 1185.03 1021.67Z" fill="#FBF29A"/>
<path d="M379.073 627.281C387.648 627.281 394.625 620.308 394.625 611.721C394.625 608.095 389.757 596.428 379.073 580.401C368.389 596.428 363.52 608.108 363.52 611.721C363.52 620.308 370.496 627.281 379.073 627.281Z" fill="white"/>
<path d="M373.953 565.641C375.14 563.988 377.044 563.015 379.073 563.015C381.101 563.015 383.005 563.988 384.192 565.641C388.041 570.975 407.247 598.295 407.247 611.721C407.247 627.268 394.608 639.908 379.073 639.908C363.537 639.908 350.899 627.268 350.899 611.721C350.899 598.295 370.104 570.975 373.953 565.641ZM407.579 439.628H478.32C505.167 439.628 527.007 461.468 527.007 488.308C527.007 515.161 505.167 537.001 478.32 537.001H407.579C380.733 537.001 358.892 515.161 358.892 488.308C358.892 461.468 380.733 439.628 407.579 439.628ZM550.867 603.068C556.372 583.828 574.999 570.401 596.164 570.401C616.068 570.401 633.864 582.281 640.445 599.975C641.66 603.241 639.996 606.881 636.729 608.095C633.464 609.308 629.829 607.641 628.615 604.375C623.863 591.601 610.821 583.015 596.164 583.015C580.601 583.015 566.964 592.695 563.001 606.548C562.208 609.321 559.681 611.121 556.936 611.121C556.361 611.121 555.777 611.041 555.197 610.881C551.847 609.921 549.907 606.428 550.867 603.068ZM708.46 439.628H779.201C806.048 439.628 827.889 461.468 827.889 488.308C827.889 515.161 806.048 537.001 779.201 537.001H708.46C681.615 537.001 659.773 515.161 659.773 488.308C659.773 461.468 681.615 439.628 708.46 439.628ZM800.913 639.908C785.379 639.908 772.74 627.268 772.74 611.721C772.74 598.295 791.945 570.975 795.795 565.641C796.981 563.988 798.885 563.015 800.913 563.015C802.943 563.015 804.847 563.988 806.033 565.641C809.883 570.975 829.088 598.295 829.088 611.721C829.088 627.268 816.449 639.908 800.913 639.908ZM800.913 743.668C785.379 743.668 772.74 731.028 772.74 715.495C772.74 702.068 791.945 674.748 795.795 669.401C796.981 667.761 798.885 666.788 800.913 666.788C802.943 666.788 804.847 667.761 806.033 669.401C809.884 674.748 829.088 702.068 829.088 715.495C829.088 731.028 816.449 743.668 800.913 743.668ZM171.021 1038.75H478.913L488.691 913.241C484.392 909.935 480.54 906.441 477.152 902.761C452.088 907.255 427.397 911.375 403.241 913.801C401.44 921.161 396.077 943.308 391.793 963.148C391.156 966.095 388.54 968.121 385.632 968.121C385.191 968.121 384.743 968.081 384.293 967.975C380.887 967.241 378.721 963.881 379.457 960.481C383.14 943.428 387.608 924.708 389.968 914.961C380.505 915.655 371.128 916.055 361.851 916.055C359.351 916.055 356.859 916.028 354.373 915.961C291.128 914.481 243.007 867.095 228.791 792.281C228.14 788.855 230.389 785.548 233.813 784.895C237.233 784.255 240.541 786.495 241.191 789.921C247.312 822.135 260.469 849.708 279.237 869.668C299.32 891.015 325.403 902.668 354.668 903.348C393.923 904.268 435.605 897.415 478.411 889.721C478.484 889.708 478.556 889.708 478.629 889.695C478.853 889.668 479.077 889.655 479.303 889.641C479.499 889.641 479.693 889.628 479.885 889.641C480.092 889.655 480.292 889.681 480.496 889.721C480.697 889.748 480.896 889.775 481.092 889.828C481.292 889.881 481.484 889.948 481.679 890.028C481.863 890.095 482.047 890.148 482.223 890.241C482.415 890.321 482.595 890.441 482.777 890.548C482.945 890.655 483.112 890.748 483.271 890.868C483.432 890.988 483.581 891.121 483.733 891.255C483.896 891.401 484.055 891.548 484.201 891.708C484.253 891.775 484.315 891.815 484.364 891.868C491.635 900.548 501.981 908.255 515.116 914.775C549.668 931.961 580.296 918.535 594.189 898.761C589.681 899.908 585.029 900.481 580.377 900.481C574.247 900.481 568.12 899.481 562.329 897.481C559.036 896.335 557.292 892.748 558.433 889.455C559.575 886.161 563.165 884.415 566.463 885.561C576.449 889.015 587.736 888.588 597.429 884.375C599.033 883.668 600.767 883.695 602.273 884.295C605.848 876.161 608.241 867.455 609.293 858.921C603.272 860.908 596.967 861.935 590.643 861.935C585.987 861.935 581.324 861.388 576.761 860.281C573.373 859.468 571.291 856.055 572.111 852.668C572.928 849.281 576.337 847.201 579.727 848.015C589.597 850.401 600.493 849.375 609.769 845.228C609.588 842.188 609.228 839.241 608.631 836.415C606.069 824.361 599.948 815.348 590.435 809.601C588.825 808.641 587.111 807.788 585.325 807.055C582.793 808.015 578.831 809.015 573.324 809.015C567.845 809.015 560.844 808.028 552.225 805.001C548.936 803.841 547.205 800.241 548.357 796.961C549.511 793.668 553.112 791.935 556.401 793.095C569.261 797.601 576.84 796.468 579.999 795.535C581.247 789.868 578.664 781.561 567.431 773.988C548.748 761.415 516.431 765.295 490.809 797.041C490.535 797.375 490.269 797.735 490.001 798.081L489.789 798.361C489.759 798.401 489.719 798.428 489.687 798.468C489.539 798.655 489.371 798.815 489.201 798.988C489.073 799.121 488.952 799.255 488.816 799.361C488.652 799.508 488.471 799.615 488.292 799.735C488.125 799.855 487.965 799.975 487.789 800.068C487.623 800.161 487.44 800.228 487.263 800.295C487.056 800.388 486.852 800.481 486.637 800.548C486.587 800.561 486.543 800.588 486.491 800.601L481.648 801.988C463.004 807.295 443.028 812.961 422.787 815.748C422.619 815.788 422.449 815.801 422.277 815.828C414.435 816.895 406.555 817.535 398.696 817.535C389.064 817.535 379.469 816.588 370.021 814.361C343.013 807.975 325.32 787.708 321.479 758.775C321.02 755.321 323.449 752.148 326.904 751.681C330.361 751.215 333.532 753.655 333.991 757.108C337.151 780.908 350.979 796.881 372.925 802.068C387.272 805.468 402.301 805.508 417.389 803.708C444.816 743.775 486.629 712.988 541.735 712.241C542.229 712.241 542.727 712.241 543.217 712.241C569.343 712.241 590.705 721.641 607.091 740.268C628.499 722.041 653.309 712.615 680.928 712.241C707.219 711.881 729.021 721.135 745.723 739.735C759.055 754.575 769.141 775.521 775.745 802.015C794.663 805.321 813.736 806.335 831.737 802.068C853.685 796.881 867.513 780.908 870.673 757.108C871.133 753.655 874.303 751.215 877.76 751.681C881.213 752.148 883.64 755.321 883.187 758.775C879.347 787.708 861.651 807.975 834.643 814.361C825.197 816.588 815.597 817.535 805.968 817.535C777.655 817.535 749.041 809.388 723.016 801.988L718.173 800.601C718.123 800.588 718.08 800.561 718.029 800.548C717.808 800.481 717.597 800.388 717.384 800.295C717.212 800.215 717.036 800.148 716.875 800.068C716.695 799.961 716.529 799.841 716.359 799.735C716.185 799.615 716.007 799.495 715.847 799.361C715.708 799.241 715.584 799.108 715.453 798.975C715.288 798.815 715.121 798.655 714.976 798.468C714.943 798.428 714.903 798.401 714.871 798.361L714.68 798.108C714.409 797.748 714.137 797.388 713.853 797.028C688.232 765.295 655.915 761.415 637.233 773.988C634.26 775.988 631.297 778.561 628.957 781.455C628.579 782.721 627.809 783.855 626.725 784.681C624.717 788.108 623.76 791.828 624.651 795.535C627.801 796.468 635.384 797.601 648.263 793.095C651.552 791.935 655.152 793.668 656.305 796.961C657.459 800.241 655.728 803.841 652.439 805.001C643.82 808.028 636.819 809.015 631.339 809.015C625.832 809.015 621.869 808.015 619.339 807.055C617.552 807.788 615.839 808.641 614.229 809.601C613.173 810.241 612.164 810.935 611.185 811.655C615.864 817.908 619.183 825.348 620.976 833.801C625.191 853.641 620.795 877.801 609.736 897.681C609.955 898.001 610.168 898.335 610.391 898.641C624.248 918.481 654.928 932.001 689.547 914.775C702.683 908.255 713.029 900.548 720.299 891.868C720.345 891.815 720.403 891.775 720.452 891.721C720.607 891.548 720.773 891.401 720.945 891.241C721.089 891.108 721.231 890.988 721.384 890.868C721.548 890.748 721.721 890.641 721.896 890.535C722.075 890.428 722.249 890.321 722.436 890.241C722.613 890.148 722.797 890.095 722.983 890.028C723.179 889.948 723.372 889.881 723.573 889.828C723.763 889.775 723.956 889.748 724.152 889.721C724.363 889.681 724.572 889.655 724.785 889.641C724.969 889.628 725.155 889.641 725.341 889.641C725.576 889.655 725.809 889.668 726.043 889.695C726.113 889.708 726.183 889.708 726.253 889.721C769.059 897.415 810.728 904.268 849.996 903.348C879.261 902.668 905.347 891.015 925.427 869.668C944.2 849.708 957.347 822.135 963.467 789.921C964.12 786.495 967.427 784.255 970.853 784.895C974.28 785.548 976.52 788.855 975.867 792.281C961.653 867.095 913.533 914.481 850.291 915.961C847.807 916.028 845.311 916.055 842.813 916.055C823.865 916.055 804.511 914.428 784.833 911.895C783.856 940.401 781.109 963.668 779.593 974.775C816.944 977.801 847.877 1003.89 858.085 1038.75H1014.4V239.401H171.021V1038.75Z" fill="#83BFEA"/>
<path d="M785.361 611.721C785.361 620.308 792.339 627.281 800.913 627.281C809.491 627.281 816.467 620.308 816.467 611.721C816.467 608.108 811.599 596.428 800.913 580.401C790.231 596.428 785.361 608.108 785.361 611.721Z" fill="white"/>
<path d="M429.037 524.375H478.32C498.207 524.375 514.385 508.202 514.385 488.308C514.385 468.428 498.207 452.255 478.32 452.255H429.037C440.976 459.815 448.908 473.135 448.908 488.308C448.908 503.495 440.976 516.815 429.037 524.375Z" fill="white"/>
<path d="M729.918 524.375H779.201C799.088 524.375 815.266 508.202 815.266 488.308C815.266 468.428 799.088 452.255 779.201 452.255H729.918C741.857 459.815 749.79 473.135 749.79 488.308C749.79 503.495 741.857 516.815 729.918 524.375Z" fill="white"/>
<path d="M630.184 763.522C661.139 742.682 700.593 760.575 723.609 789.029L726.471 789.842C737.891 793.095 749.832 796.495 761.961 799.229C748.04 749.349 720.829 724.295 681.097 724.868C656.319 725.202 634.043 733.749 614.809 750.282C618.399 755.562 621.689 761.389 624.68 767.762C626.368 766.282 628.192 764.869 630.184 763.522Z" fill="#83BFEA"/>
<path d="M596.952 798.802C598.845 799.935 600.629 801.202 602.328 802.548C604.033 801.202 605.825 799.935 607.712 798.802C609.081 797.975 610.5 797.215 611.963 796.508C611.035 790.548 612.363 784.375 615.676 778.562C600.364 741.975 576.171 724.428 541.905 724.868C493.736 725.522 457.847 750.575 432.476 801.362C448.105 798.402 463.576 794.002 478.193 789.842L481.055 789.028C504.076 760.575 543.528 742.682 574.48 763.522C587.847 772.522 594.505 784.922 592.701 796.508C594.164 797.215 595.584 797.975 596.952 798.802Z" fill="#83BFEA"/>
<path d="M633.144 987.108C631.293 987.108 629.536 986.295 628.337 984.881C627.139 983.481 626.619 981.615 626.916 979.788C626.949 979.575 630.199 959.361 632.065 930.695C620.292 926.388 610.193 919.028 602.332 908.961C591.793 922.468 577.241 931.108 560.012 934.028C555.815 934.735 551.529 935.081 547.216 935.081C534.457 935.081 521.425 932.015 509.497 926.081C506.439 924.561 503.517 922.975 500.721 921.335L488.407 1079.4H709.856V1063.81C709.856 1021.52 675.444 987.108 633.144 987.108Z" fill="#83BFEA"/>
<path d="M772.336 987.108C770.485 987.108 768.728 986.295 767.529 984.881C766.331 983.481 765.811 981.615 766.108 979.788C766.157 979.468 770.993 949.321 772.261 910.175C757.503 908.028 742.576 905.455 727.511 902.761C719.344 911.628 708.488 919.455 695.167 926.081C683.239 932.015 670.205 935.081 657.448 935.081C653.133 935.081 648.851 934.735 644.652 934.028C644.599 934.015 644.547 934.001 644.493 934.001C643.239 952.255 641.496 966.721 640.4 974.775C686.28 978.481 722.477 1017 722.477 1063.81V1079.4H849.048V1063.81C849.048 1021.52 814.636 987.108 772.336 987.108Z" fill="#83BFEA"/>
<path d="M785.361 715.495C785.361 724.081 792.339 731.055 800.913 731.055C809.491 731.055 816.467 724.081 816.467 715.495C816.467 711.868 811.599 700.201 800.913 684.175C790.231 700.201 785.361 711.868 785.361 715.495Z" fill="white"/>
<path d="M429.037 452.255H478.32C498.207 452.255 514.385 468.428 514.385 488.308C514.385 508.201 498.207 524.375 478.32 524.375H429.037C440.976 516.815 448.908 503.495 448.908 488.308C448.908 473.135 440.976 459.815 429.037 452.255ZM407.579 537.001H478.32C505.167 537.001 527.007 515.161 527.007 488.308C527.007 461.468 505.167 439.628 478.32 439.628H407.579C380.733 439.628 358.892 461.468 358.892 488.308C358.892 515.161 380.733 537.001 407.579 537.001Z" fill="#040606"/>
<path d="M729.919 452.255H779.201C799.088 452.255 815.267 468.428 815.267 488.308C815.267 508.201 799.088 524.375 779.201 524.375H729.919C741.857 516.815 749.791 503.495 749.791 488.308C749.791 473.135 741.857 459.815 729.919 452.255ZM708.46 537.001H779.201C806.048 537.001 827.889 515.161 827.889 488.308C827.889 461.468 806.048 439.628 779.201 439.628H708.46C681.615 439.628 659.773 461.468 659.773 488.308C659.773 515.161 681.615 537.001 708.46 537.001Z" fill="#040606"/>
<path d="M800.913 731.055C792.339 731.055 785.361 724.081 785.361 715.495C785.361 711.868 790.231 700.201 800.913 684.175C811.599 700.201 816.467 711.868 816.467 715.495C816.467 724.081 809.491 731.055 800.913 731.055ZM800.913 666.788C798.885 666.788 796.981 667.761 795.795 669.401C791.945 674.748 772.74 702.068 772.74 715.495C772.74 731.028 785.379 743.668 800.913 743.668C816.449 743.668 829.088 731.028 829.088 715.495C829.088 702.068 809.884 674.748 806.033 669.401C804.847 667.761 802.943 666.788 800.913 666.788Z" fill="#040606"/>
<path d="M379.073 580.402C389.757 596.428 394.625 608.095 394.625 611.722C394.625 620.308 387.648 627.282 379.073 627.282C370.496 627.282 363.52 620.308 363.52 611.722C363.52 608.108 368.389 596.428 379.073 580.402ZM379.073 639.908C394.608 639.908 407.247 627.268 407.247 611.722C407.247 598.295 388.041 570.975 384.192 565.642C383.005 563.988 381.101 563.015 379.073 563.015C377.044 563.015 375.14 563.988 373.953 565.642C370.104 570.975 350.899 598.295 350.899 611.722C350.899 627.268 363.537 639.908 379.073 639.908Z" fill="#040606"/>
<path d="M800.913 627.282C792.339 627.282 785.361 620.308 785.361 611.722C785.361 608.108 790.231 596.428 800.913 580.402C811.599 596.428 816.467 608.108 816.467 611.722C816.467 620.308 809.491 627.282 800.913 627.282ZM800.913 563.015C798.885 563.015 796.981 563.988 795.795 565.642C791.945 570.975 772.74 598.295 772.74 611.722C772.74 627.268 785.379 639.908 800.913 639.908C816.449 639.908 829.088 627.268 829.088 611.722C829.088 598.295 809.883 570.975 806.033 565.642C804.847 563.988 802.943 563.015 800.913 563.015Z" fill="#040606"/>
<path d="M555.197 610.882C555.777 611.042 556.361 611.122 556.936 611.122C559.681 611.122 562.208 609.322 563.001 606.548C566.964 592.695 580.601 583.015 596.164 583.015C610.821 583.015 623.863 591.602 628.615 604.375C629.829 607.642 633.464 609.308 636.729 608.095C639.996 606.882 641.66 603.242 640.445 599.975C633.864 582.282 616.068 570.402 596.164 570.402C574.999 570.402 556.372 583.828 550.867 603.068C549.907 606.428 551.847 609.922 555.197 610.882Z" fill="#040606"/>
<path d="M614.809 750.282C634.043 733.748 656.319 725.202 681.097 724.868C720.829 724.295 748.04 749.348 761.961 799.228C749.832 796.495 737.891 793.095 726.471 789.842L723.609 789.028C700.593 760.575 661.139 742.682 630.184 763.522C628.192 764.868 626.368 766.282 624.68 767.762C621.689 761.388 618.399 755.562 614.809 750.282ZM574.48 763.522C543.528 742.682 504.076 760.575 481.055 789.028L478.193 789.842C463.576 794.002 448.105 798.402 432.476 801.362C457.847 750.575 493.736 725.522 541.905 724.868C576.171 724.428 600.364 741.975 615.676 778.562C612.363 784.375 611.035 790.548 611.963 796.508C610.5 797.215 609.081 797.975 607.712 798.802C605.825 799.935 604.033 801.202 602.328 802.548C600.629 801.202 598.845 799.935 596.952 798.802C595.584 797.975 594.164 797.215 592.701 796.508C594.505 784.922 587.847 772.522 574.48 763.522ZM1014.4 1038.75H858.085C847.877 1003.89 816.944 977.802 779.593 974.775C781.109 963.668 783.856 940.402 784.833 911.895C804.511 914.428 823.865 916.055 842.813 916.055C845.31 916.055 847.806 916.028 850.29 915.962C913.533 914.482 961.653 867.095 975.867 792.282C976.52 788.855 974.28 785.548 970.853 784.895C967.427 784.255 964.12 786.495 963.467 789.922C957.347 822.135 944.2 849.708 925.427 869.668C905.347 891.015 879.261 902.668 849.996 903.348C810.728 904.268 769.059 897.415 726.253 889.722C726.183 889.708 726.113 889.708 726.043 889.695C725.809 889.668 725.576 889.655 725.341 889.642C725.154 889.642 724.969 889.628 724.785 889.642C724.572 889.655 724.362 889.682 724.152 889.722C723.956 889.748 723.763 889.775 723.573 889.828C723.372 889.882 723.179 889.948 722.983 890.028C722.797 890.095 722.613 890.148 722.436 890.242C722.249 890.322 722.074 890.428 721.896 890.535C721.721 890.642 721.548 890.748 721.384 890.868C721.231 890.988 721.089 891.108 720.945 891.242C720.773 891.402 720.606 891.548 720.452 891.722C720.402 891.775 720.345 891.815 720.299 891.868C713.029 900.548 702.682 908.255 689.546 914.775C654.928 932.002 624.248 918.482 610.391 898.642C610.168 898.335 609.955 898.002 609.736 897.682C620.795 877.802 625.191 853.642 620.976 833.802C619.183 825.348 615.864 817.908 611.185 811.655C612.164 810.935 613.173 810.242 614.229 809.602C615.839 808.642 617.552 807.788 619.339 807.055C621.869 808.015 625.832 809.015 631.339 809.015C636.819 809.015 643.82 808.028 652.439 805.002C655.728 803.842 657.459 800.242 656.305 796.962C655.152 793.668 651.552 791.935 648.263 793.095C635.384 797.602 627.801 796.468 624.651 795.535C623.76 791.828 624.717 788.108 626.725 784.682C627.809 783.855 628.579 782.722 628.957 781.455C631.297 778.562 634.26 775.988 637.233 773.988C655.915 761.415 688.232 765.295 713.853 797.028C714.137 797.388 714.409 797.748 714.68 798.108L714.871 798.362C714.903 798.402 714.943 798.428 714.976 798.468C715.121 798.655 715.288 798.815 715.453 798.975C715.584 799.108 715.708 799.242 715.846 799.362C716.006 799.495 716.185 799.615 716.359 799.735C716.529 799.842 716.694 799.962 716.874 800.068C717.036 800.148 717.212 800.215 717.384 800.295C717.597 800.388 717.808 800.482 718.029 800.548C718.08 800.562 718.123 800.588 718.173 800.602L723.016 801.988C749.041 809.388 777.655 817.535 805.968 817.535C815.597 817.535 825.197 816.588 834.643 814.362C861.651 807.975 879.347 787.708 883.187 758.775C883.64 755.322 881.213 752.148 877.76 751.682C874.303 751.215 871.133 753.655 870.673 757.108C867.513 780.908 853.685 796.882 831.737 802.068C813.736 806.335 794.663 805.322 775.745 802.015C769.141 775.522 759.055 754.575 745.723 739.735C729.021 721.135 707.219 711.882 680.928 712.242C653.309 712.615 628.499 722.042 607.091 740.268C590.705 721.642 569.343 712.242 543.217 712.242C542.727 712.242 542.229 712.242 541.735 712.242C486.629 712.988 444.816 743.775 417.389 803.708C402.301 805.508 387.272 805.468 372.925 802.068C350.979 796.882 337.151 780.908 333.991 757.108C333.532 753.655 330.361 751.215 326.904 751.682C323.449 752.148 321.02 755.322 321.479 758.775C325.32 787.708 343.013 807.975 370.021 814.362C379.469 816.588 389.064 817.535 398.696 817.535C406.555 817.535 414.435 816.895 422.277 815.828C422.449 815.802 422.619 815.788 422.787 815.748C443.028 812.962 463.004 807.295 481.648 801.988L486.491 800.602C486.543 800.588 486.587 800.562 486.637 800.548C486.852 800.482 487.056 800.388 487.263 800.295C487.44 800.228 487.623 800.162 487.789 800.068C487.965 799.975 488.125 799.855 488.292 799.735C488.471 799.615 488.652 799.508 488.816 799.362C488.952 799.255 489.073 799.122 489.201 798.988C489.371 798.815 489.539 798.655 489.687 798.468C489.719 798.428 489.759 798.402 489.789 798.362L490.001 798.082C490.269 797.735 490.535 797.375 490.809 797.042C516.431 765.295 548.748 761.415 567.431 773.988C578.664 781.562 581.247 789.868 579.999 795.535C576.84 796.468 569.261 797.602 556.401 793.095C553.112 791.935 549.511 793.668 548.357 796.962C547.205 800.242 548.936 803.842 552.225 805.002C560.844 808.028 567.845 809.015 573.324 809.015C578.831 809.015 582.793 808.015 585.325 807.055C587.111 807.788 588.825 808.642 590.435 809.602C599.948 815.348 606.069 824.362 608.631 836.415C609.228 839.242 609.588 842.188 609.769 845.228C600.493 849.375 589.597 850.402 579.727 848.015C576.337 847.202 572.928 849.282 572.111 852.668C571.291 856.055 573.373 859.468 576.761 860.282C581.324 861.388 585.987 861.935 590.643 861.935C596.967 861.935 603.272 860.908 609.293 858.922C608.241 867.455 605.848 876.162 602.273 884.295C600.767 883.695 599.033 883.668 597.429 884.375C587.736 888.588 576.449 889.015 566.463 885.562C563.165 884.415 559.575 886.162 558.433 889.455C557.292 892.748 559.036 896.335 562.329 897.482C568.12 899.482 574.247 900.482 580.377 900.482C585.029 900.482 589.681 899.908 594.189 898.762C580.296 918.535 549.668 931.962 515.116 914.775C501.981 908.255 491.635 900.548 484.364 891.868C484.315 891.815 484.253 891.775 484.201 891.708C484.055 891.548 483.896 891.402 483.733 891.255C483.581 891.122 483.432 890.988 483.271 890.868C483.112 890.748 482.945 890.655 482.777 890.548C482.595 890.442 482.415 890.322 482.223 890.242C482.047 890.148 481.863 890.095 481.679 890.028C481.484 889.948 481.292 889.882 481.092 889.828C480.896 889.775 480.697 889.748 480.496 889.722C480.292 889.682 480.092 889.655 479.885 889.642C479.693 889.628 479.499 889.642 479.303 889.642C479.077 889.655 478.853 889.668 478.629 889.695C478.556 889.708 478.484 889.708 478.411 889.722C435.605 897.415 393.923 904.268 354.668 903.348C325.403 902.668 299.32 891.015 279.237 869.668C260.469 849.708 247.312 822.135 241.191 789.922C240.541 786.495 237.233 784.255 233.813 784.895C230.389 785.548 228.14 788.855 228.791 792.282C243.007 867.095 291.128 914.482 354.373 915.962C356.859 916.028 359.351 916.055 361.851 916.055C371.128 916.055 380.505 915.655 389.968 914.962C387.608 924.708 383.14 943.428 379.457 960.482C378.721 963.882 380.887 967.242 384.293 967.975C384.743 968.082 385.191 968.122 385.632 968.122C388.54 968.122 391.156 966.095 391.793 963.148C396.077 943.308 401.44 921.162 403.241 913.802C427.397 911.375 452.088 907.255 477.152 902.762C480.54 906.442 484.392 909.935 488.691 913.242L478.913 1038.75H171.021V239.402H1014.4V1038.75ZM849.048 1079.4H722.477V1063.81C722.477 1017 686.28 978.482 640.4 974.775C641.496 966.722 643.239 952.255 644.493 934.002C644.547 934.002 644.598 934.015 644.652 934.028C648.85 934.735 653.133 935.082 657.448 935.082C670.205 935.082 683.239 932.015 695.167 926.082C708.488 919.455 719.344 911.628 727.511 902.762C742.576 905.455 757.503 908.028 772.261 910.175C770.993 949.322 766.157 979.468 766.108 979.788C765.81 981.615 766.33 983.482 767.529 984.882C768.728 986.295 770.485 987.108 772.336 987.108C814.636 987.108 849.048 1021.52 849.048 1063.81V1079.4ZM709.856 1079.4H488.407L500.721 921.335C503.517 922.975 506.439 924.562 509.497 926.082C521.425 932.015 534.457 935.082 547.216 935.082C551.529 935.082 555.815 934.735 560.012 934.028C577.241 931.108 591.793 922.468 602.332 908.962C610.193 919.028 620.292 926.388 632.065 930.695C630.199 959.362 626.949 979.575 626.916 979.788C626.619 981.615 627.139 983.482 628.337 984.882C629.536 986.295 631.293 987.108 633.144 987.108C675.444 987.108 709.856 1021.52 709.856 1063.81V1079.4ZM1020.72 226.775H164.711C161.225 226.775 158.4 229.602 158.4 233.082V1045.07C158.4 1048.55 161.225 1051.38 164.711 1051.38H477.931L475.293 1085.23C475.156 1086.97 475.757 1088.71 476.952 1090C478.147 1091.29 479.825 1092.03 481.585 1092.03H716.167H855.359C858.844 1092.03 861.669 1089.2 861.669 1085.72V1063.81C861.669 1059.6 861.365 1055.44 860.795 1051.38H1020.72C1024.2 1051.38 1027.03 1048.55 1027.03 1045.07V233.082C1027.03 229.602 1024.2 226.775 1020.72 226.775Z" fill="#040606"/>
<path d="M1144.48 307.428C1144.48 325.348 1159.07 339.935 1176.99 339.935C1194.92 339.935 1209.49 325.348 1209.49 307.428C1209.49 293.668 1189.29 259.908 1176.99 241.121C1164.69 259.908 1144.48 293.668 1144.48 307.428Z" fill="#F579C3"/>
<path d="M1176.99 339.935C1159.07 339.935 1144.48 325.348 1144.48 307.428C1144.48 293.668 1164.69 259.908 1176.99 241.122C1189.29 259.908 1209.49 293.668 1209.49 307.428C1209.49 325.348 1194.92 339.935 1176.99 339.935ZM1176.99 223.482C1174.92 223.482 1172.97 224.495 1171.8 226.202C1167.71 232.122 1131.87 284.682 1131.87 307.428C1131.87 332.308 1152.11 352.548 1176.99 352.548C1201.88 352.548 1222.12 332.308 1222.12 307.428C1222.12 284.682 1186.27 232.122 1182.19 226.202C1181 224.495 1179.07 223.482 1176.99 223.482Z" fill="#040606"/>
<path d="M122.663 84.4152C122.663 102.349 137.245 116.922 155.169 116.922C173.093 116.922 187.675 102.349 187.675 84.4152C187.675 70.6686 167.467 36.9085 155.169 18.1085C142.871 36.9085 122.663 70.6686 122.663 84.4152Z" fill="#F9E444"/>
<path d="M155.169 116.922C137.245 116.922 122.663 102.348 122.663 84.415C122.663 70.6683 142.871 36.9082 155.169 18.1082C167.467 36.9082 187.675 70.6683 187.675 84.415C187.675 102.348 173.093 116.922 155.169 116.922ZM155.169 0.468255C153.096 0.468255 151.155 1.49492 149.976 3.20159C145.889 9.12159 110.041 61.6683 110.041 84.415C110.041 109.308 130.285 129.548 155.169 129.548C180.052 129.548 200.296 109.308 200.296 84.415C200.296 61.6683 164.449 9.12159 160.361 3.20159C159.183 1.49492 157.241 0.468255 155.169 0.468255Z" fill="#040606"/>
<path d="M19.0813 239.922C19.0813 257.855 33.6639 272.428 51.5879 272.428C69.5119 272.428 84.0933 257.855 84.0933 239.922C84.0933 226.175 63.8853 192.402 51.5879 173.615C39.2893 192.402 19.0813 226.175 19.0813 239.922Z" fill="#83BFEA"/>
<path d="M51.588 272.428C33.664 272.428 19.0813 257.855 19.0813 239.921C19.0813 226.175 39.2893 192.401 51.588 173.615C63.8853 192.401 84.0933 226.175 84.0933 239.921C84.0933 257.855 69.512 272.428 51.588 272.428ZM51.588 155.975C49.5146 155.975 47.5733 157.001 46.3946 158.695C42.308 164.615 6.45996 217.175 6.45996 239.921C6.45996 264.801 26.704 285.055 51.588 285.055C76.4706 285.055 96.7146 264.801 96.7146 239.921C96.7146 217.175 60.868 164.615 56.78 158.695C55.6013 157.001 53.66 155.975 51.588 155.975Z" fill="#040606"/>
</svg>
