<svg width="1464" height="951" viewBox="0 0 1464 951" fill="none" xmlns="http://www.w3.org/2000/svg">
<path d="M1333.69 337.96C1308.52 337.96 1284.37 345.947 1265.69 360.427C1264.15 361.627 1262.15 362.04 1260.25 361.56L1225.2 352.614L1243.27 378.24C1244.71 380.28 1244.8 382.987 1243.51 385.134C1236.03 397.547 1232.24 410.934 1232.24 424.934C1232.24 472.894 1277.75 511.92 1333.69 511.92C1389.64 511.92 1435.16 472.894 1435.16 424.934C1435.16 376.987 1389.64 337.96 1333.69 337.96Z" fill="#F579C3"/>
<path d="M1333.69 511.92C1277.75 511.92 1232.24 472.894 1232.24 424.934C1232.24 410.934 1236.03 397.547 1243.51 385.134C1244.8 382.987 1244.71 380.28 1243.27 378.24L1225.2 352.614L1260.25 361.56C1262.15 362.04 1264.15 361.627 1265.69 360.427C1284.37 345.947 1308.52 337.96 1333.69 337.96C1389.64 337.96 1435.16 376.987 1435.16 424.934C1435.16 472.894 1389.64 511.92 1333.69 511.92ZM1333.69 325.347C1306.84 325.347 1280.96 333.573 1260.44 348.587L1211.75 336.147C1209.19 335.494 1206.49 336.507 1205 338.68C1203.49 340.854 1203.51 343.734 1205.03 345.894L1230.63 382.227C1223.41 395.507 1219.61 410.187 1219.61 424.934C1219.61 479.854 1270.79 524.534 1333.69 524.534C1396.6 524.534 1447.77 479.854 1447.77 424.934C1447.77 370.027 1396.6 325.347 1333.69 325.347Z" fill="#040606"/>
<path d="M1322.8 22.8535C1252.09 22.8535 1194.57 72.267 1194.57 133C1194.57 147.907 1198 162.374 1204.73 176C1205.69 177.934 1205.6 180.227 1204.48 182.067L1177.07 227.28L1218.28 203.974C1219.25 203.427 1220.32 203.16 1221.39 203.16C1223.01 203.16 1224.61 203.787 1225.83 204.987C1250.25 229.24 1285.6 243.147 1322.8 243.147C1393.51 243.147 1451.04 193.734 1451.04 133C1451.04 72.267 1393.51 22.8535 1322.8 22.8535Z" fill="#55C06E"/>
<path d="M1322.8 243.147C1285.6 243.147 1250.25 229.24 1225.83 204.987C1224.61 203.787 1223.01 203.16 1221.39 203.16C1220.32 203.16 1219.25 203.427 1218.28 203.973L1177.07 227.28L1204.48 182.067C1205.6 180.227 1205.69 177.934 1204.73 176C1198 162.374 1194.57 147.907 1194.57 133C1194.57 72.2669 1252.09 22.8534 1322.8 22.8534C1393.51 22.8534 1451.04 72.2669 1451.04 133C1451.04 193.734 1393.51 243.147 1322.8 243.147ZM1322.8 10.2268C1245.15 10.2268 1181.96 65.3069 1181.96 133C1181.96 148.707 1185.31 163.973 1191.92 178.44L1153.76 241.387C1152.27 243.853 1152.63 247 1154.63 249.053C1156.63 251.12 1159.76 251.573 1162.27 250.16L1220.41 217.267C1246.99 241.8 1284.01 255.773 1322.8 255.773C1400.47 255.773 1463.65 200.694 1463.65 133C1463.65 65.3069 1400.47 10.2268 1322.8 10.2268Z" fill="#040606"/>
<path d="M742.613 377.215C733.427 382.495 722.933 385.282 712.28 385.282C678.64 385.282 651.28 357.922 651.28 324.282C651.28 290.655 678.64 263.295 712.28 263.295C722.933 263.295 733.427 266.095 742.613 271.375C761.52 282.228 773.266 302.508 773.266 324.282C773.266 346.068 761.52 366.348 742.613 377.215ZM660.186 421.441C660.186 464.908 624.826 500.282 581.36 500.282C537.88 500.282 502.52 464.908 502.52 421.441V401.762C502.52 398.282 505.346 395.455 508.826 395.455H653.88C657.36 395.455 660.186 398.282 660.186 401.762V421.441ZM480.786 377.215C471.6 382.495 461.106 385.282 450.44 385.282C416.813 385.282 389.44 357.922 389.44 324.282C389.44 290.655 416.813 263.295 450.44 263.295C461.106 263.295 471.6 266.095 480.786 271.375C499.693 282.228 511.426 302.508 511.426 324.282C511.426 346.068 499.693 366.348 480.786 377.215ZM852.053 382.375C852.053 337.388 874.306 315.708 887.573 306.788C889.066 305.788 891.373 304.241 943 290.508C921 213.241 871.293 143.402 802.613 93.4149C767.52 67.8949 728.426 48.015 686.4 34.335C642.893 20.175 597.2 12.9881 550.6 12.9881C442.173 12.9881 340.28 51.6948 263.653 121.975C187.2 192.121 145.08 285.335 145.08 384.455C145.08 415.335 149.227 445.988 157.413 475.655C172.733 466.681 188.8 458.161 205.44 450.255C208.586 448.761 212.36 450.108 213.853 453.255C215.346 456.401 214 460.161 210.853 461.655C149.853 490.655 96.6664 527.815 61.0664 566.308C60.3997 567.041 59.5729 567.602 58.6529 567.948C49.6529 571.308 40.5462 577.415 31.5862 586.108C9.03953 607.935 10.0798 634.815 20.7065 651.628C21.9198 643.095 25.3865 634.868 30.7732 628.121C32.9465 625.401 36.9198 624.948 39.6398 627.121C42.3598 629.295 42.8132 633.268 40.6398 635.988C35.1065 642.921 32.2929 651.962 32.9195 660.802C33.0129 662.242 32.6133 663.575 31.8799 664.695C36.8933 669.308 42.5466 673.282 48.4133 676.348C48.8533 667.215 51.6929 658.255 56.7195 650.535C58.6262 647.615 62.5329 646.788 65.4529 648.695C68.3729 650.588 69.1998 654.495 67.3065 657.428C62.7598 664.401 60.5062 673.068 61.0529 681.402C63.3195 682.028 65.5729 682.508 67.7862 682.802C78.0395 684.148 86.8795 681.828 94.0529 675.935C95.1729 675.002 96.2529 673.961 97.2529 672.855C97.2395 667.921 98.8531 658.535 108.6 646.415C110.786 643.708 114.746 643.268 117.466 645.455C120.186 647.641 120.613 651.615 118.44 654.321C111.613 662.815 110.173 668.921 109.893 671.708C115.613 675.015 123.813 671.708 129.533 667.468C144.746 656.175 150.68 629.361 132.573 599.962C132.387 599.655 132.186 599.348 131.986 599.041L131.8 598.775C130.093 596.161 130.56 592.695 132.88 590.615C165.133 561.708 201.24 537.508 240.226 518.668C243.36 517.162 247.133 518.468 248.653 521.615C250.173 524.748 248.853 528.521 245.72 530.041C227.506 538.828 209.947 548.828 193.147 559.962C200.96 573.215 218.266 597.855 226.933 609.241C228.346 611.108 228.613 613.615 227.626 615.735L168.28 742.721L301.413 681.815C303.32 680.935 305.56 681.068 307.36 682.188C340.586 702.815 386.08 724.241 436.293 738.655C436.626 738.695 436.973 738.748 437.306 738.841C437.6 738.935 437.853 739.055 438.12 739.175C460.613 745.535 484.026 750.495 507.706 753.308C508.133 753.308 508.573 753.348 509 753.441C522.826 755.041 536.733 755.921 550.6 755.921C700.293 755.921 837.12 680.908 908.013 560.055V463.762L890.2 459.028C868.4 458.162 852.053 425.495 852.053 382.375Z" fill="#8FD467"/>
<path d="M940.36 546.44C936.254 540.067 935.761 532.267 938.907 523.294C941.027 517.24 946.547 510.147 960.52 507.894V477.734L920.641 467.12V591.507H944.281C942.654 590.027 941.267 588.4 940.16 586.614C936.24 580.28 935.814 572.587 938.907 563.76C940.174 560.147 942.547 556.213 946.934 553.187C944.201 551.253 942 549.014 940.36 546.44Z" fill="#F2526C"/>
<path d="M973.147 507.2C975.534 507.254 977.814 507.36 980.174 507.48C981.307 507.534 982.48 507.6 983.693 507.653C987.173 507.8 989.88 510.747 989.72 514.227C989.573 517.72 986.653 520.427 983.133 520.253C981.893 520.2 980.693 520.147 979.52 520.08C976.04 519.907 973 519.76 969.547 519.8C968.72 520.2 967.813 520.44 966.827 520.44C966.093 520.44 965.4 520.294 964.733 520.067C955.16 521.027 951.853 524.52 950.827 527.467C949 532.654 949.054 536.64 950.974 539.627C954.027 544.374 962.427 547.614 974.627 548.747C978.093 549.067 980.653 552.134 980.333 555.614C980.027 558.88 977.28 561.334 974.053 561.334C973.853 561.334 973.667 561.333 973.467 561.307C971.533 561.133 969.68 560.907 967.893 560.627C953.48 560.414 951.48 566.067 950.827 567.934C949.027 573.054 949.053 576.987 950.893 579.96C953.667 584.454 960.893 587.547 971.8 588.907C971.96 588.92 972.107 588.974 972.253 589.014C972.467 589.054 972.68 589.094 972.893 589.16C973.08 589.214 973.267 589.293 973.453 589.373C973.653 589.467 973.84 589.533 974.027 589.64C974.2 589.733 974.373 589.854 974.533 589.96C974.707 590.08 974.88 590.187 975.027 590.32C975.187 590.453 975.32 590.6 975.467 590.734C975.613 590.88 975.76 591.027 975.88 591.173C976.014 591.333 976.12 591.494 976.227 591.667C976.347 591.84 976.453 592 976.56 592.187C976.653 592.36 976.72 592.547 976.8 592.734C976.88 592.92 976.96 593.107 977.027 593.307C977.093 593.493 977.12 593.707 977.16 593.907C977.213 594.107 977.254 594.307 977.28 594.507C977.294 594.72 977.293 594.934 977.293 595.147C977.293 595.32 977.32 595.467 977.307 595.627C977.294 595.694 977.28 595.733 977.28 595.787C977.267 595.84 977.28 595.894 977.267 595.947C977.253 596.134 977.2 596.294 977.16 596.467C977.12 596.64 977.094 596.827 977.04 597C976.974 597.2 976.894 597.387 976.814 597.573C976.734 597.76 976.68 597.947 976.587 598.12C976.507 598.267 976.413 598.4 976.32 598.534C975.867 599.254 975.28 599.854 974.587 600.334C974.467 600.414 974.36 600.507 974.24 600.587C974.067 600.68 973.88 600.76 973.707 600.84C973.534 600.933 973.347 601.027 973.16 601.094C973 601.147 972.84 601.187 972.667 601.227C972.44 601.294 972.213 601.347 971.987 601.387C971.827 601.413 971.667 601.427 971.507 601.427C971.347 601.44 971.187 601.48 971.014 601.48C970.907 601.48 970.787 601.467 970.667 601.453C970.627 601.453 970.587 601.467 970.547 601.453C963.88 600.973 952.44 601.6 951.92 607.08C951.52 611.347 952.507 616.267 962.92 620.294C972.133 623.867 983.253 622.213 989.053 620.907C1013.47 615.427 1015.88 580.267 1015.27 550.24C1014.91 532.333 1009.01 501.987 973.68 499.947C973.494 499.934 973.32 499.88 973.147 499.853V507.2Z" fill="#8FD467"/>
<path d="M662.2 754.668C685.56 826.922 732.627 915.161 744.334 936.655L876.774 882.935C864.347 863.895 843.24 852.335 820.187 852.335C813.36 852.335 806.574 853.375 800 855.428L786.774 859.562C783.947 860.455 780.867 859.241 779.4 856.655C777.787 853.801 741.027 788.762 723.28 734.362C703.6 742.548 683.187 749.348 662.2 754.668Z" fill="#8FD467"/>
<path d="M436.307 324.28C436.307 303.534 449.52 285.867 467.986 279.227C462.426 277.067 456.467 275.92 450.44 275.92C423.773 275.92 402.066 297.614 402.066 324.28C402.066 350.96 423.773 372.667 450.44 372.667C456.467 372.667 462.426 371.52 467.986 369.36C449.52 362.707 436.307 345.04 436.307 324.28Z" fill="white"/>
<path d="M1030.72 396.093C1030.49 391.547 1030.39 386.973 1030.39 382.387C1030.39 370.133 1031.2 357.987 1032.81 346.293C1037.09 315.32 1046.53 289.987 1059 273.493C988.854 291.333 902.347 313.84 894.374 317.427C883.161 325.053 864.681 343.52 864.681 382.373C864.681 420.12 878.6 446.413 891.094 446.413C891.64 446.413 892.187 446.493 892.72 446.627L1058.64 490.787C1046.35 474.28 1037.05 449.133 1032.81 418.453C1031.8 411.147 1031.11 403.667 1030.72 396.093Z" fill="#F2526C"/>
<path d="M729.814 279.227C724.254 277.067 718.307 275.92 712.281 275.92C685.601 275.92 663.894 297.614 663.894 324.28C663.894 350.96 685.601 372.667 712.281 372.667C718.307 372.667 724.254 371.52 729.814 369.36C711.347 362.707 698.134 345.04 698.134 324.28C698.134 303.534 711.347 285.867 729.814 279.227Z" fill="white"/>
<path d="M515.134 421.44C515.134 457.947 544.84 487.653 581.36 487.653C617.867 487.653 647.574 457.947 647.574 421.44V408.08H515.134V421.44Z" fill="#F2526C"/>
<path d="M1043.39 368.334C1043.28 370.427 1043.19 372.533 1043.12 374.627C1043.11 375.027 1043.11 375.427 1043.09 375.827C1043.04 378.013 1043 380.187 1043 382.387C1043 384.56 1043.04 386.747 1043.09 388.92C1043.11 389.32 1043.11 389.734 1043.12 390.134C1043.19 392.227 1043.27 394.307 1043.39 396.387C1043.4 396.787 1043.43 397.2 1043.45 397.6C1043.59 399.72 1043.72 401.84 1043.89 403.934C1043.91 403.974 1043.91 404.013 1043.91 404.053C1044.09 406.16 1044.31 408.267 1044.53 410.36C1044.56 410.6 1044.59 410.853 1044.61 411.107C1058.85 409.28 1069.89 397.093 1069.89 382.387C1069.89 367.653 1058.85 355.467 1044.61 353.653C1044.59 353.867 1044.57 354.08 1044.55 354.293C1044.07 358.56 1043.71 362.867 1043.45 367.213C1043.43 367.587 1043.41 367.96 1043.39 368.334Z" fill="#8FD467"/>
<path d="M405.493 816.042C389.853 822.748 361.867 812.428 319.933 784.482C298.28 770.055 278.546 754.562 269.36 747.148L194.72 858.388C207.546 865.282 222.227 867.495 236.707 864.588C253.253 861.268 267.48 851.682 276.76 837.588L281.613 830.215C282.613 828.695 284.24 827.682 286.04 827.428C287.853 827.188 289.68 827.748 291.053 828.948C291.706 829.535 357.987 887.282 409.08 892.868C409.88 892.962 410.693 893.002 411.493 893.002C445.44 893.002 481.267 816.242 499.213 764.922C479.013 762.175 459.067 757.962 439.733 752.708C431.36 779.602 419.133 810.175 405.493 816.042Z" fill="#8FD467"/>
<path d="M1094.17 265.147C1073.55 265.147 1053.95 296.72 1046.39 341.16C1066.75 343.84 1082.52 361.293 1082.52 382.387C1082.52 403.453 1066.75 420.907 1046.39 423.587C1053.09 463.04 1069.29 492.32 1087.28 498.414L1090.39 499.227C1091.64 499.467 1092.91 499.6 1094.17 499.6C1118.88 499.6 1145.32 452.493 1145.32 382.387C1145.32 312.253 1118.88 265.147 1094.17 265.147Z" fill="#F2526C"/>
<path d="M1094.17 499.602C1092.91 499.602 1091.64 499.468 1090.39 499.228L1087.28 498.415C1069.29 492.322 1053.09 463.041 1046.39 423.588C1066.75 420.908 1082.52 403.455 1082.52 382.388C1082.52 361.295 1066.75 343.842 1046.39 341.162C1053.95 296.722 1073.55 265.148 1094.17 265.148C1118.88 265.148 1145.32 312.255 1145.32 382.388C1145.32 452.495 1118.88 499.602 1094.17 499.602ZM1044.61 353.655C1058.85 355.468 1069.89 367.655 1069.89 382.388C1069.89 397.095 1058.85 409.281 1044.61 411.108C1044.59 410.855 1044.56 410.602 1044.53 410.362C1044.31 408.268 1044.09 406.161 1043.91 404.055C1043.91 404.015 1043.91 403.975 1043.89 403.935C1043.72 401.842 1043.59 399.722 1043.45 397.602C1043.43 397.202 1043.4 396.788 1043.39 396.388C1043.27 394.308 1043.19 392.228 1043.12 390.135C1043.11 389.735 1043.11 389.321 1043.09 388.921C1043.04 386.748 1043 384.561 1043 382.388C1043 380.188 1043.04 378.015 1043.09 375.828C1043.11 375.428 1043.11 375.028 1043.12 374.628C1043.19 372.535 1043.28 370.428 1043.39 368.335C1043.41 367.962 1043.43 367.588 1043.45 367.215C1043.71 362.868 1044.07 358.562 1044.55 354.295C1044.57 354.082 1044.59 353.868 1044.61 353.655ZM892.72 446.628C892.187 446.495 891.64 446.415 891.094 446.415C878.6 446.415 864.681 420.121 864.681 382.375C864.681 343.521 883.161 325.055 894.374 317.428C902.347 313.842 988.854 291.335 1059 273.495C1046.53 289.988 1037.09 315.322 1032.81 346.295C1031.2 357.988 1030.39 370.135 1030.39 382.388C1030.39 386.975 1030.49 391.548 1030.72 396.095C1031.11 403.668 1031.8 411.148 1032.81 418.455C1037.05 449.135 1046.35 474.281 1058.64 490.788L892.72 446.628ZM973.681 499.948C1009.01 501.988 1014.91 532.335 1015.27 550.241C1015.88 580.268 1013.47 615.428 989.054 620.908C983.254 622.215 972.134 623.868 962.92 620.295C952.507 616.268 951.52 611.348 951.92 607.082C952.44 601.602 963.881 600.975 970.547 601.455C970.587 601.468 970.627 601.455 970.667 601.455C970.787 601.468 970.907 601.482 971.014 601.482C971.187 601.482 971.347 601.442 971.507 601.428C971.667 601.428 971.827 601.415 971.987 601.388C972.214 601.348 972.44 601.295 972.667 601.228C972.84 601.188 973 601.148 973.16 601.095C973.347 601.028 973.534 600.935 973.707 600.841C973.881 600.761 974.067 600.681 974.241 600.588C974.361 600.508 974.467 600.415 974.587 600.335C975.28 599.855 975.867 599.255 976.32 598.535C976.414 598.402 976.507 598.268 976.587 598.121C976.68 597.948 976.734 597.761 976.814 597.575C976.894 597.388 976.974 597.202 977.041 597.002C977.094 596.828 977.12 596.642 977.16 596.468C977.2 596.295 977.254 596.135 977.267 595.948C977.28 595.895 977.267 595.841 977.281 595.788C977.281 595.735 977.294 595.695 977.307 595.628C977.321 595.468 977.294 595.322 977.294 595.148C977.294 594.935 977.294 594.721 977.281 594.508C977.254 594.308 977.214 594.108 977.16 593.908C977.12 593.708 977.094 593.495 977.027 593.308C976.96 593.108 976.88 592.922 976.8 592.735C976.72 592.548 976.654 592.361 976.56 592.188C976.454 592.001 976.347 591.842 976.227 591.668C976.12 591.495 976.014 591.335 975.881 591.175C975.761 591.028 975.614 590.882 975.467 590.735C975.32 590.602 975.187 590.455 975.027 590.321C974.88 590.188 974.707 590.082 974.534 589.962C974.374 589.855 974.2 589.735 974.027 589.641C973.84 589.535 973.654 589.468 973.454 589.375C973.267 589.295 973.08 589.215 972.894 589.162C972.68 589.095 972.467 589.055 972.254 589.015C972.107 588.975 971.96 588.921 971.8 588.908C960.894 587.548 953.667 584.455 950.894 579.962C949.054 576.988 949.027 573.055 950.827 567.935C951.48 566.068 953.48 560.415 967.894 560.628C969.68 560.908 971.534 561.135 973.467 561.308C973.667 561.335 973.854 561.335 974.054 561.335C977.28 561.335 980.027 558.882 980.334 555.615C980.654 552.135 978.094 549.068 974.627 548.748C962.427 547.615 954.027 544.375 950.974 539.628C949.054 536.642 949 532.655 950.827 527.468C951.854 524.522 955.16 521.028 964.734 520.068C965.4 520.295 966.094 520.441 966.827 520.441C967.814 520.441 968.721 520.202 969.547 519.802C973.001 519.762 976.04 519.908 979.52 520.082C980.694 520.148 981.894 520.201 983.134 520.255C986.654 520.428 989.574 517.722 989.72 514.228C989.88 510.748 987.174 507.801 983.694 507.655C982.48 507.601 981.307 507.535 980.174 507.482C977.814 507.362 975.534 507.255 973.147 507.202V499.855C973.321 499.881 973.494 499.935 973.681 499.948ZM938.907 563.762C935.814 572.588 936.24 580.282 940.16 586.615C941.267 588.402 942.654 590.028 944.281 591.508H920.641V467.121L960.52 477.735V507.895C946.547 510.148 941.027 517.242 938.907 523.295C935.761 532.268 936.254 540.068 940.36 546.441C942 549.015 944.2 551.255 946.934 553.188C942.547 556.215 940.174 560.148 938.907 563.762ZM908.014 560.055C837.121 680.908 700.294 755.921 550.6 755.921C536.734 755.921 522.827 755.041 509 753.441C508.574 753.348 508.134 753.308 507.707 753.308C484.027 750.495 460.614 745.535 438.12 739.175C437.854 739.055 437.601 738.935 437.307 738.841C436.974 738.748 436.627 738.695 436.294 738.655C386.08 724.241 340.587 702.815 307.36 682.188C305.56 681.068 303.321 680.935 301.414 681.815L168.281 742.721L227.627 615.735C228.614 613.615 228.347 611.108 226.934 609.241C218.267 597.855 200.961 573.215 193.147 559.962C209.947 548.828 227.507 538.828 245.72 530.041C248.854 528.521 250.174 524.748 248.654 521.615C247.134 518.468 243.36 517.162 240.227 518.668C201.24 537.508 165.134 561.708 132.881 590.615C130.561 592.695 130.094 596.161 131.8 598.775L131.987 599.041C132.187 599.348 132.387 599.655 132.574 599.962C150.681 629.362 144.747 656.175 129.534 667.468C123.814 671.708 115.614 675.015 109.894 671.708C110.174 668.921 111.614 662.815 118.441 654.321C120.614 651.615 120.187 647.641 117.467 645.455C114.747 643.268 110.787 643.708 108.6 646.415C98.8538 658.535 97.2402 667.921 97.2536 672.855C96.2536 673.961 95.1736 675.002 94.0536 675.935C86.8802 681.828 78.0402 684.148 67.7869 682.802C65.5736 682.508 63.3202 682.028 61.0536 681.402C60.5069 673.068 62.7606 664.402 67.3072 657.428C69.2006 654.495 68.3736 650.588 65.4536 648.695C62.5336 646.788 58.6269 647.615 56.7202 650.535C51.6936 658.255 48.854 667.215 48.414 676.348C42.5473 673.282 36.894 669.308 31.8807 664.695C32.614 663.575 33.0136 662.242 32.9202 660.802C32.2936 651.962 35.1072 642.921 40.6406 635.988C42.8139 633.268 42.3606 629.295 39.6406 627.121C36.9206 624.948 32.9472 625.401 30.7739 628.121C25.3872 634.868 21.9206 643.095 20.7072 651.628C10.0806 634.815 9.04025 607.935 31.5869 586.108C40.5469 577.415 49.6536 571.308 58.6536 567.948C59.5736 567.602 60.4005 567.041 61.0671 566.308C96.6671 527.815 149.854 490.655 210.854 461.655C214 460.161 215.347 456.401 213.854 453.255C212.36 450.108 208.587 448.761 205.441 450.255C188.801 458.161 172.734 466.681 157.414 475.655C149.227 445.988 145.081 415.335 145.081 384.455C145.081 285.335 187.2 192.121 263.654 121.975C340.28 51.6948 442.174 12.9881 550.6 12.9881C597.2 12.9881 642.894 20.175 686.4 34.335C728.427 48.015 767.521 67.8949 802.614 93.4149C871.294 143.402 921 213.241 943 290.508C891.374 304.241 889.067 305.788 887.574 306.788C874.307 315.708 852.054 337.388 852.054 382.375C852.054 425.495 868.4 458.162 890.2 459.028L908.014 463.762V560.055ZM779.4 856.655C780.867 859.241 783.947 860.455 786.774 859.561L800 855.428C806.574 853.375 813.36 852.335 820.187 852.335C843.24 852.335 864.347 863.895 876.774 882.935L744.334 936.655C732.627 915.161 685.56 826.922 662.2 754.668C683.187 749.348 703.601 742.548 723.281 734.362C741.027 788.762 777.787 853.801 779.4 856.655ZM411.494 893.002C410.694 893.002 409.881 892.962 409.081 892.868C357.987 887.282 291.707 829.535 291.054 828.948C289.68 827.748 287.854 827.188 286.041 827.428C284.241 827.681 282.614 828.695 281.614 830.215L276.76 837.588C267.48 851.681 253.254 861.268 236.707 864.588C222.227 867.495 207.547 865.281 194.72 858.388L269.36 747.148C278.547 754.562 298.28 770.055 319.934 784.482C361.867 812.428 389.854 822.748 405.494 816.041C419.134 810.175 431.36 779.601 439.734 752.708C459.067 757.961 479.014 762.175 499.214 764.921C481.267 816.241 445.44 893.002 411.494 893.002ZM1094.17 252.535C1090.61 252.535 1087.12 253.108 1083.72 254.215C1083.71 254.215 1083.69 254.215 1083.69 254.215C1083.23 254.335 1036.2 266.201 989 278.441C976.147 281.775 964.961 284.695 955.214 287.268C932.467 207.228 881.067 134.895 810.027 83.2149C773.88 56.9083 733.601 36.4283 690.307 22.335C645.534 7.76165 598.534 0.374829 550.6 0.374829C439.014 0.374829 334.08 40.2549 255.134 112.682C176.027 185.242 132.467 281.761 132.467 384.455C132.467 417.641 137.094 450.588 146.2 482.388C109.254 505.148 77.1605 530.575 52.8005 556.668C42.6538 560.735 32.5605 567.575 22.8005 577.041C11.6671 587.828 4.14723 601.735 1.64056 616.175C-1.15944 632.308 2.36035 647.828 11.827 661.055C24.8537 679.241 46.174 692.695 66.1473 695.308C68.5473 695.628 70.9206 695.788 73.2406 695.788C84.0939 695.788 93.9605 692.348 102.067 685.682C102.987 684.922 103.867 684.122 104.734 683.295C113.84 687.855 125.867 685.895 137.054 677.602C162.24 658.908 160.241 623.388 145.214 596.548C157.187 586.068 169.707 576.242 182.707 567.095C190.267 579.775 205.427 601.508 214.587 613.828L149.574 752.935C148.454 755.335 148.947 758.175 150.814 760.055C152.681 761.935 155.52 762.442 157.92 761.348L303.6 694.695C336.16 714.548 379.614 734.922 427.6 749.228C416.76 783.935 406.307 801.948 400.52 804.441C395.414 806.628 378.054 808.028 327.014 774.028C297.894 754.642 272.28 733.255 272.027 733.041C270.654 731.895 268.854 731.388 267.094 731.628C265.32 731.882 263.734 732.882 262.734 734.362L180.56 856.841C178.614 859.735 179.387 863.641 182.281 865.588C199.094 876.908 219.307 880.948 239.187 876.961C259.067 872.975 276.147 861.455 287.294 844.535L288.241 843.095C295.161 848.775 308.014 858.908 324.014 869.482C356.267 890.775 384.427 902.868 407.707 905.415C408.974 905.562 410.227 905.628 411.481 905.628C459.627 905.615 498.747 805.215 512.041 766.455C524.867 767.801 537.747 768.548 550.6 768.548C584.534 768.548 617.827 764.788 649.894 757.615C663.694 800.575 685.654 848.668 701.974 882.068C720.414 919.762 735.854 947.415 736 947.682C737.147 949.735 739.294 950.921 741.52 950.921C742.307 950.921 743.107 950.761 743.881 950.455L888.254 891.908C889.907 891.241 891.187 889.908 891.8 888.241C892.427 886.575 892.307 884.735 891.494 883.161C877.64 856.361 850.32 839.708 820.187 839.708C812.08 839.708 804.027 840.948 796.227 843.375L787.907 845.988C779.187 830.121 749.6 774.868 734.92 729.321C805.507 697.508 865.907 647.535 908.014 583.895V597.815C908.014 601.308 910.84 604.135 914.32 604.135H939.627C939.52 604.708 939.414 605.282 939.36 605.882C938.574 614.175 941.24 625.442 958.36 632.068C964.134 634.308 970.254 635.055 975.867 635.055C982.254 635.055 987.987 634.082 991.827 633.228C1029.43 624.775 1028.35 572.361 1027.89 549.975C1027.63 537.401 1025.17 526.228 1020.59 516.762C1011.87 498.762 995.894 488.588 974.414 487.348C973.974 487.322 973.561 487.335 973.147 487.402V481.095L1083.37 510.428C1084.68 510.868 1086 511.202 1087.33 511.482L1089.31 512.015C1089.84 512.148 1090.39 512.228 1090.93 512.228C1091.28 512.228 1091.64 512.188 1091.97 512.135C1092.71 512.175 1093.44 512.215 1094.17 512.215C1129.93 512.215 1157.95 455.188 1157.95 382.388C1157.95 309.575 1129.93 252.535 1094.17 252.535Z" fill="#040606"/>
<path d="M729.814 369.36C724.254 371.52 718.307 372.667 712.28 372.667C685.6 372.667 663.893 350.96 663.893 324.28C663.893 297.614 685.6 275.92 712.28 275.92C718.307 275.92 724.254 277.067 729.814 279.227C711.347 285.867 698.133 303.534 698.133 324.28C698.133 345.04 711.347 362.707 729.814 369.36ZM742.614 271.374C733.427 266.094 722.934 263.294 712.28 263.294C678.64 263.294 651.28 290.654 651.28 324.28C651.28 357.92 678.64 385.28 712.28 385.28C722.934 385.28 733.427 382.494 742.614 377.214C761.52 366.347 773.267 346.067 773.267 324.28C773.267 302.507 761.52 282.227 742.614 271.374Z" fill="#040606"/>
<path d="M450.44 372.667C423.774 372.667 402.067 350.96 402.067 324.28C402.067 297.614 423.774 275.92 450.44 275.92C456.467 275.92 462.427 277.067 467.987 279.227C449.52 285.867 436.307 303.534 436.307 324.28C436.307 345.04 449.52 362.707 467.987 369.36C462.427 371.52 456.467 372.667 450.44 372.667ZM480.787 271.374C471.6 266.094 461.107 263.294 450.44 263.294C416.814 263.294 389.44 290.654 389.44 324.28C389.44 357.92 416.814 385.28 450.44 385.28C461.107 385.28 471.6 382.494 480.787 377.214C499.693 366.347 511.427 346.067 511.427 324.28C511.427 302.507 499.693 282.227 480.787 271.374Z" fill="#040606"/>
<path d="M647.573 421.44C647.573 457.947 617.866 487.653 581.36 487.653C544.84 487.653 515.133 457.947 515.133 421.44V408.08H647.573V421.44ZM653.88 395.453H508.826C505.346 395.453 502.52 398.28 502.52 401.76V421.44C502.52 464.907 537.88 500.28 581.36 500.28C624.826 500.28 660.186 464.907 660.186 421.44V401.76C660.186 398.28 657.36 395.453 653.88 395.453Z" fill="#040606"/>
</svg>
