<svg width="1479" height="1108" viewBox="0 0 1479 1108" fill="none" xmlns="http://www.w3.org/2000/svg">
<path d="M1153.6 720.827L1144.92 721.747L1146.28 744.173L1155.97 743.133C1158.97 742.813 1161.65 741.36 1163.53 739.013C1165.41 736.693 1166.27 733.773 1165.95 730.8C1165.28 724.64 1159.75 720.173 1153.6 720.827Z" fill="white"/>
<path d="M1093.29 124.253C1097.21 118.453 1103.92 109.187 1109.69 104.32C1112.36 102.067 1116.33 102.414 1118.59 105.08C1120.83 107.747 1120.49 111.72 1117.83 113.974C1112.49 118.467 1105.01 129.267 1101.59 134.574C1101.72 138.014 1102.96 147.08 1111.84 154.027C1120.49 160.8 1130.56 155.053 1133.37 153.187C1136.12 149.147 1145.61 135.427 1151.09 130.453C1153.68 128.107 1157.67 128.307 1160.01 130.88C1162.36 133.467 1162.16 137.454 1159.57 139.8C1155.37 143.614 1146.32 156.534 1143.19 161.2C1143.15 161.267 1143.09 161.32 1143.04 161.387C1143.28 165.693 1144.6 175.467 1151.55 180.534C1159.63 186.427 1172.71 183.694 1182.52 180.214C1184.44 175.374 1186.04 170.213 1187.27 164.72C1192.68 140.413 1185.45 120.107 1165.8 104.334C1150.49 92.067 1133.09 87.1737 1132.92 87.1337C1131.67 86.787 1130.55 86.067 1129.72 85.067C1128.91 84.107 1109.12 61.2935 1078.61 80.7069C1073.07 84.2402 1067.33 91.7868 1063.64 97.3868C1071.83 102.347 1086.03 112.173 1093.29 124.253Z" fill="#F9E444"/>
<path d="M1089.45 629.08C1075.32 629.08 1039.12 625.56 1012.43 592.48C1007.57 600.627 1004.04 609.654 1002.13 619.267C1003.23 619.134 1004.36 619.267 1005.44 619.734L1042.51 636.24C1045.69 637.667 1047.12 641.4 1045.71 644.574C1044.65 646.934 1042.36 648.32 1039.93 648.32C1039.08 648.32 1038.21 648.147 1037.37 647.774L1000.64 631.414C1000.6 632.04 1000.56 632.654 1000.53 633.267L1000.17 645.92L1036.89 662.28C1040.08 663.694 1041.51 667.427 1040.09 670.6C1039.04 672.96 1036.73 674.347 1034.32 674.347C1033.47 674.347 1032.59 674.174 1031.76 673.8L999.773 659.56L999.693 662.48C1003.03 667.067 1011.48 679.494 1017.83 696.134C1027.76 722.147 1028.03 746.854 1018.68 767.974C1041.33 784.934 1069.88 791.094 1096.85 786.147L1090.09 629.067C1089.88 629.067 1089.67 629.08 1089.45 629.08Z" fill="#F2526C"/>
<path d="M1081.69 234.774C1082.87 232.347 1085.47 230.933 1088.13 231.253C1088.33 231.28 1109.36 233.667 1132.05 226.453C1150.61 220.547 1164.84 210.174 1174.6 195.494C1170.8 196.24 1167.2 196.627 1163.83 196.627C1156.05 196.627 1149.43 194.64 1144.03 190.667C1135.71 184.547 1132.44 175.174 1131.16 168.16C1130.79 168.28 1130.41 168.4 1130.03 168.52C1126.93 169.44 1123.89 169.894 1120.95 169.894C1114.81 169.894 1109.08 167.907 1104.07 163.974C1099.33 160.267 1096.08 156.134 1093.84 152.094C1092.8 153.68 1091.59 155.214 1090.16 156.68C1086.28 160.667 1080.55 162.667 1073.04 162.667C1070.03 162.667 1066.72 162.347 1063.15 161.694C1054.87 160.187 1047.88 157.454 1047.6 157.334C1044.35 156.054 1042.76 152.387 1044.05 149.147C1045.33 145.907 1049 144.32 1052.24 145.6C1061.29 149.174 1076.75 152.36 1081.11 147.88C1085.48 143.387 1085.48 139.707 1085.09 137.334C1084.12 131.2 1078.12 123.587 1068.23 115.88C1061.32 110.507 1054.56 106.68 1052.55 105.574C1049.63 104.894 1035.79 102.174 1026.33 109.627C1003.79 127.427 1015.77 153.947 1021.99 164.534C1023.16 166.547 1023.13 169.054 1021.91 171.04C1021.52 171.654 983.747 232.48 927.573 300.453C938.493 337.12 944.4 375.507 944.973 414.76C1008.93 350.68 1054.89 290.174 1081.69 234.774Z" fill="#F9E444"/>
<path d="M409.536 953.095C386.82 953.095 359.132 943.295 326.803 923.815C312.317 937.321 304.487 956.588 303.527 981.202C302.925 996.602 305.324 1009.75 306.54 1015.28C349.243 1034.75 386.528 1044.07 418.807 1043.2C416.121 1007.21 417.833 968.908 418.817 952.481C415.819 952.868 412.732 953.095 409.536 953.095Z" fill="white"/>
<path d="M1089.55 616.467L1086.72 550.76C1060.04 550.387 1035.93 562.507 1020.04 581.707C1043.77 613.547 1077.43 616.507 1089.55 616.467Z" fill="white"/>
<path d="M482.4 839.562C482.4 839.655 482.42 839.748 482.416 839.841C480.099 897.148 465.889 931.948 438.977 946.228C436.628 947.468 434.181 948.535 431.655 949.441C430.791 962.481 428.519 1003.83 431.396 1042.31C458.745 1039.15 482.249 1028.08 502.199 1009.05C539.524 973.455 565.171 892.641 565.951 839.641C552.227 840.988 538.392 841.682 524.472 841.682C510.387 841.682 496.344 840.962 482.4 839.562Z" fill="#F9E444"/>
<path d="M290.9 981.082C291.909 953.255 301.305 930.402 318.152 914.615C303.927 890.162 280.04 873.335 253.276 867.362L198.193 1014.62C210.783 1019.84 243.548 1037.1 255.395 1078.63C263.053 1073.02 269.832 1066.08 275.341 1057.98C274.287 1057.67 273.291 1057.11 272.487 1056.25L244.8 1026.59C242.423 1024.04 242.56 1020.04 245.108 1017.67C247.656 1015.28 251.649 1015.43 254.028 1017.98L281.464 1047.38C281.735 1046.82 282.02 1046.27 282.28 1045.71L287.557 1034.2L260.132 1004.82C257.753 1002.27 257.892 998.268 260.44 995.895C262.988 993.522 266.981 993.655 269.359 996.202L293.245 1021.8L294.464 1019.14C293.177 1013.63 290.255 998.882 290.9 981.082Z" fill="#F2526C"/>
<path d="M991.08 672.173C970.6 676.96 937.733 682.08 900.613 687C903.373 702.68 909.88 743.333 910.587 780.813C949.28 775.507 981.613 769.947 1006.45 764.307C1015.23 745.8 1015.11 724.4 1006.04 700.64C1001.07 687.64 994.653 677.373 991.08 672.173Z" fill="white"/>
<path d="M605.915 432.347V413.401C605.915 409.921 608.74 407.094 612.225 407.094H751.853C755.339 407.094 758.164 409.921 758.164 413.401V432.347C758.164 474.321 724.015 508.467 682.04 508.467C640.064 508.467 605.915 474.321 605.915 432.347ZM561.317 374.947C543.588 374.947 529.216 354.001 529.216 328.147C529.216 302.307 543.588 281.36 561.317 281.36C575.635 281.36 587.759 295.027 591.896 313.894L568.655 325.814L592.453 339.56C588.96 359.894 576.347 374.947 561.317 374.947ZM682.04 319.707C701.32 319.707 717.007 332.12 717.007 347.374C717.007 362.627 701.32 375.027 682.04 375.027C662.759 375.027 647.072 362.627 647.072 347.374C647.072 332.12 662.759 319.707 682.04 319.707ZM786.611 281.36C800.928 281.36 813.052 295.027 817.189 313.894L793.948 325.814L817.746 339.56C814.254 359.894 801.641 374.947 786.611 374.947C768.881 374.947 754.509 354.001 754.509 328.147C754.509 302.307 768.881 281.36 786.611 281.36ZM667.556 712.267C667.363 712.281 667.17 712.294 666.98 712.294C663.75 712.294 660.998 709.827 660.702 706.547C660.388 703.081 662.948 700.014 666.418 699.694C667.88 699.56 753.087 691.814 838.128 681.947C897.067 611.134 930.333 522.067 932.333 429.934C932.333 429.881 932.333 429.827 932.333 429.774C932.4 426.88 932.427 423.987 932.427 421.094C932.427 380.134 926.44 340.094 914.853 301.974C914.573 301.4 914.386 300.787 914.28 300.16C901.12 257.52 880.947 217.334 854.36 180.974H194.569C143.885 250.294 116.497 333.587 116.497 421.094C116.497 459.147 121.731 496.694 132.031 532.894C166.723 494.76 205.755 460.227 243.173 434.747C246.056 432.787 249.981 433.534 251.943 436.414C253.905 439.294 253.16 443.214 250.28 445.174C210.031 472.587 167.805 510.734 131.383 552.574C92.6906 597.014 62.5999 642.907 44.3626 685.294C43.9733 686.2 43.3759 687 42.6199 687.627C34.1773 694.707 26.6706 704.787 20.308 717.587C3.68529 751.014 16.5026 780.667 35.5586 794.294C33.0786 784.187 33.4959 773.361 36.9039 763.534C38.0453 760.241 41.6373 758.494 44.9333 759.627C48.2266 760.774 49.9706 764.374 48.8293 767.667C45.4653 777.374 45.8853 788.334 49.9813 797.76C50.6573 799.32 50.6466 800.987 50.0999 802.467C57.9079 805.881 66.2573 808.187 74.4333 809.214C71.1279 799.054 70.6639 788.067 73.1893 777.627C74.0093 774.24 77.4146 772.147 80.8066 772.974C84.1946 773.787 86.2773 777.2 85.4573 780.587C83.1466 790.147 84.1306 800.707 88.1306 809.707C91.0426 809.52 93.8813 809.174 96.588 808.601C108.308 806.107 117.076 800.16 122.648 790.92C123.581 789.374 124.399 787.721 125.103 786.014C123.24 781.027 121.231 770.494 127.131 753.667C128.283 750.374 131.884 748.654 135.173 749.801C138.463 750.961 140.193 754.56 139.04 757.84C134.687 770.267 135.737 777.6 136.637 780.694C144.569 782.547 152.635 775.547 157.4 768.467C169.632 750.307 165.848 718.867 134.949 693.92C134.591 693.64 134.227 693.361 133.861 693.081L133.669 692.934C131.181 691.054 130.449 687.627 131.948 684.881C141.86 666.747 152.856 649.24 164.827 632.454C164.94 632.267 165.059 632.094 165.191 631.934C202.647 579.507 249.691 534.067 303.569 498.64C306.483 496.72 310.396 497.534 312.309 500.44C314.225 503.347 313.417 507.267 310.505 509.174C259.004 543.054 213.9 586.294 177.721 636.134C213.331 693.414 262.917 741.374 321.375 774.987C382.872 810.36 453.103 829.054 524.472 829.054C571.831 829.054 618.196 821.027 662.283 805.187C662.376 805.147 662.473 805.134 662.568 805.107C662.72 805.067 662.873 805.027 663.029 804.987C663.275 804.934 663.519 804.894 663.765 804.867C663.852 804.854 663.933 804.827 664.023 804.827C664.6 804.787 722.689 801.094 794.017 794.201C832.079 790.507 866.907 786.587 897.987 782.507C897.44 745.48 890.72 703.747 888.067 688.627C792.056 700.947 674.645 711.627 667.556 712.267Z" fill="#F9E444"/>
<path d="M745.543 432.347V419.72H618.536V432.347C618.536 467.36 647.024 495.84 682.04 495.84C717.056 495.84 745.543 467.36 745.543 432.347Z" fill="#F2526C"/>
<path d="M682.04 362.4C694.152 362.4 704.385 355.52 704.385 347.374C704.385 339.214 694.152 332.334 682.04 332.334C669.927 332.334 659.693 339.214 659.693 347.374C659.693 355.52 669.927 362.4 682.04 362.4Z" fill="#55C06E"/>
<path d="M524.472 13.1199C430.487 13.1199 341.369 44.7067 269.193 102.827H779.744C707.572 44.7067 618.456 13.1199 524.472 13.1199Z" fill="#F9E444"/>
<path d="M193.772 1026.44L170.732 1088.03C195.125 1098.79 222.059 1097.04 244.199 1085.56C234.771 1046.99 204.949 1031.13 193.772 1026.44Z" fill="white"/>
<path d="M212.401 866.842L211.791 866.962L138.493 1073.62L159.184 1082.88L240.547 865.375C231.284 864.535 221.817 864.975 212.401 866.842Z" fill="white"/>
<path d="M136.665 1022.17C133.792 1021.31 130.757 1021.6 128.112 1023.01C125.469 1024.43 123.539 1026.79 122.673 1029.64C121.8 1032.52 122.099 1035.56 123.513 1038.2C124.925 1040.84 127.28 1042.77 130.141 1043.64L135.191 1045.17L142.7 1024L136.665 1022.17Z" fill="white"/>
<path d="M166.915 955.735L157.639 952.922C154.764 952.055 151.731 952.348 149.089 953.762C146.449 955.175 144.513 957.535 143.643 960.402C141.855 966.322 145.212 972.602 151.128 974.388L159.407 976.895L166.915 955.735Z" fill="white"/>
<path d="M191.396 886.708L182.056 883.882C179.18 883.015 176.141 883.308 173.496 884.722C170.857 886.135 168.929 888.495 168.065 891.349C167.192 894.229 167.489 897.268 168.901 899.908C170.313 902.548 172.671 904.482 175.541 905.349L183.885 907.882L191.396 886.708Z" fill="white"/>
<path d="M1099.36 551L1109.36 783.014C1118.21 780.16 1126.75 776.067 1134.69 770.667L1135.2 770.32L1122.03 551.44L1099.36 551Z" fill="white"/>
<path d="M1159.05 665.934C1160.93 663.601 1161.79 660.667 1161.48 657.694C1160.81 651.534 1155.27 647.067 1149.12 647.734L1140.52 648.654L1141.87 671.081L1151.51 670.04C1154.49 669.72 1157.17 668.254 1159.05 665.934Z" fill="white"/>
<path d="M1151.33 593.987C1153.21 591.653 1154.07 588.733 1153.75 585.76C1153.43 582.76 1151.97 580.08 1149.64 578.2C1147.31 576.32 1144.39 575.467 1141.41 575.787L1136.16 576.347L1137.52 598.773L1143.79 598.093C1146.77 597.773 1149.45 596.32 1151.33 593.987Z" fill="white"/>
<path d="M812.944 132.613C807.009 126.68 800.905 120.973 794.677 115.453H254.26C248.032 120.973 241.928 126.68 235.992 132.613C224.617 143.987 214.017 155.92 204.177 168.347H844.759C834.917 155.92 824.319 143.987 812.944 132.613Z" fill="#F2526C"/>
<path d="M961.893 782.253C958.467 782.253 955.653 779.52 955.587 776.08C954.813 738.92 945.48 690.68 942.64 676.787C941.947 673.36 944.147 670.027 947.56 669.334C950.987 668.64 954.307 670.84 955.013 674.253C958.72 692.4 967.427 738.64 968.2 775.814C968.28 779.294 965.507 782.187 962.027 782.253C961.973 782.253 961.933 782.253 961.893 782.253Z" fill="#55C06E"/>
<path d="M936.573 786.827C933.146 786.827 930.333 784.094 930.266 780.654C929.506 744.52 920.96 699.174 917.333 681.36C916.626 677.934 918.84 674.6 922.253 673.907C925.667 673.214 929 675.414 929.693 678.827C933.4 696.987 942.106 743.227 942.88 780.387C942.96 783.867 940.186 786.76 936.706 786.827C936.666 786.827 936.613 786.827 936.573 786.827Z" fill="#55C06E"/>
<path d="M360.045 1046.92C356.695 1046.92 353.904 1044.28 353.745 1040.91C351.289 988.415 363.152 942.482 363.657 940.548C364.543 937.175 367.989 935.161 371.361 936.055C374.732 936.935 376.748 940.375 375.867 943.748C375.747 944.202 363.991 989.815 366.353 1040.31C366.516 1043.8 363.827 1046.75 360.345 1046.91C360.244 1046.92 360.144 1046.92 360.045 1046.92Z" fill="#55C06E"/>
<path d="M389.147 1051.35C385.791 1051.35 382.999 1048.71 382.847 1045.32C380.495 993.028 389.397 947.389 389.777 945.469C390.455 942.055 393.776 939.829 397.193 940.509C400.612 941.189 402.835 944.508 402.157 947.922C402.068 948.388 393.175 994.042 395.456 1044.75C395.612 1048.24 392.917 1051.19 389.435 1051.35C389.339 1051.35 389.241 1051.35 389.147 1051.35Z" fill="#55C06E"/>
<path d="M786.611 374.947C801.641 374.947 814.255 359.893 817.747 339.56L793.948 325.813L817.189 313.893C813.052 295.027 800.928 281.36 786.611 281.36C768.881 281.36 754.509 302.307 754.509 328.147C754.509 354 768.881 374.947 786.611 374.947Z" fill="#040606"/>
<path d="M591.896 313.893C587.759 295.027 575.635 281.36 561.317 281.36C543.588 281.36 529.216 302.307 529.216 328.147C529.216 354 543.588 374.947 561.317 374.947C576.347 374.947 588.96 359.893 592.453 339.56L568.655 325.813L591.896 313.893Z" fill="#040606"/>
<path d="M1163.53 739.015C1161.65 741.362 1158.97 742.815 1155.97 743.135L1146.28 744.175L1144.92 721.749L1153.6 720.829C1159.75 720.175 1165.28 724.642 1165.95 730.802C1166.27 733.775 1165.41 736.695 1163.53 739.015ZM1140.52 648.655L1149.12 647.735C1155.27 647.069 1160.81 651.535 1161.48 657.695C1161.79 660.669 1160.93 663.602 1159.05 665.935C1157.17 668.255 1154.49 669.722 1151.51 670.042L1141.87 671.082L1140.52 648.655ZM1136.16 576.349L1141.41 575.788C1144.39 575.468 1147.31 576.322 1149.64 578.202C1151.97 580.082 1153.43 582.762 1153.75 585.762C1154.07 588.735 1153.21 591.655 1151.33 593.988C1149.45 596.322 1146.77 597.775 1143.79 598.095L1137.52 598.775L1136.16 576.349ZM1134.69 770.669C1126.75 776.069 1118.21 780.162 1109.36 783.015L1099.36 551.002L1122.03 551.442L1135.2 770.322L1134.69 770.669ZM1018.68 767.975C1028.03 746.855 1027.76 722.149 1017.83 696.135C1011.48 679.495 1003.03 667.069 999.693 662.482L999.773 659.562L1031.76 673.802C1032.59 674.175 1033.47 674.349 1034.32 674.349C1036.73 674.349 1039.04 672.962 1040.09 670.602C1041.51 667.429 1040.08 663.695 1036.89 662.282L1000.17 645.922L1000.53 633.269C1000.56 632.655 1000.6 632.042 1000.64 631.415L1037.37 647.775C1038.21 648.148 1039.08 648.322 1039.93 648.322C1042.36 648.322 1044.65 646.935 1045.71 644.575C1047.12 641.402 1045.69 637.668 1042.51 636.242L1005.44 619.735C1004.36 619.269 1003.23 619.135 1002.13 619.269C1004.04 609.655 1007.57 600.629 1012.43 592.482C1039.12 625.562 1075.32 629.082 1089.45 629.082C1089.67 629.082 1089.88 629.069 1090.09 629.069L1096.85 786.149C1069.88 791.095 1041.33 784.935 1018.68 767.975ZM1006.45 764.308C981.613 769.948 949.28 775.509 910.587 780.815C909.88 743.335 903.373 702.682 900.613 687.002C937.733 682.082 970.6 676.962 991.08 672.175C994.653 677.375 1001.07 687.642 1006.04 700.642C1015.11 724.402 1015.23 745.802 1006.45 764.308ZM794.017 794.202C722.689 801.095 664.6 804.789 664.023 804.829C663.933 804.829 663.852 804.855 663.765 804.869C663.519 804.895 663.275 804.935 663.029 804.988C662.873 805.028 662.72 805.068 662.568 805.108C662.473 805.135 662.376 805.148 662.283 805.188C618.196 821.028 571.831 829.055 524.472 829.055C453.103 829.055 382.872 810.362 321.375 774.988C262.917 741.375 213.331 693.415 177.721 636.135C213.9 586.295 259.004 543.055 310.505 509.175C313.417 507.268 314.225 503.348 312.309 500.442C310.396 497.535 306.483 496.722 303.569 498.642C249.691 534.068 202.647 579.509 165.191 631.935C165.059 632.095 164.94 632.268 164.827 632.455C152.856 649.242 141.86 666.749 131.948 684.882C130.449 687.629 131.181 691.055 133.669 692.935L133.861 693.082C134.227 693.362 134.591 693.642 134.949 693.922C165.848 718.868 169.632 750.309 157.4 768.469C152.635 775.549 144.569 782.549 136.637 780.695C135.737 777.602 134.687 770.268 139.04 757.842C140.193 754.562 138.463 750.962 135.173 749.802C131.884 748.655 128.283 750.375 127.131 753.669C121.231 770.495 123.24 781.029 125.103 786.015C124.399 787.722 123.581 789.375 122.648 790.922C117.076 800.162 108.308 806.109 96.588 808.602C93.8813 809.175 91.0427 809.522 88.1307 809.708C84.1307 800.708 83.1467 790.148 85.4574 780.588C86.2774 777.202 84.1946 773.788 80.8066 772.975C77.4146 772.148 74.0093 774.242 73.1893 777.629C70.664 788.069 71.128 799.055 74.4333 809.215C66.2573 808.189 57.908 805.882 50.1 802.469C50.6467 800.989 50.6573 799.322 49.9813 797.762C45.8853 788.335 45.4653 777.375 48.8293 767.669C49.9707 764.375 48.2267 760.775 44.9333 759.629C41.6373 758.495 38.0453 760.242 36.904 763.535C33.496 773.362 33.0787 784.189 35.5587 794.295C16.5027 780.669 3.68534 751.015 20.308 717.588C26.6707 704.788 34.1773 694.709 42.62 687.629C43.376 687.002 43.9733 686.202 44.3627 685.295C62.6 642.909 92.6907 597.015 131.383 552.575C167.805 510.735 210.031 472.589 250.28 445.175C253.16 443.215 253.905 439.295 251.943 436.415C249.981 433.535 246.056 432.789 243.173 434.749C205.755 460.229 166.723 494.762 132.031 532.895C121.731 496.695 116.497 459.149 116.497 421.095C116.497 333.589 143.885 250.295 194.569 180.975H854.36C880.947 217.335 901.12 257.522 914.28 300.162C914.387 300.789 914.573 301.402 914.853 301.975C926.44 340.095 932.427 380.135 932.427 421.095C932.427 423.989 932.4 426.882 932.333 429.775C932.333 429.829 932.333 429.882 932.333 429.935C930.333 522.069 897.067 611.135 838.128 681.949C753.087 691.815 667.88 699.562 666.419 699.695C662.948 700.015 660.388 703.082 660.703 706.549C660.999 709.829 663.751 712.295 666.98 712.295C667.171 712.295 667.363 712.282 667.556 712.269C674.645 711.629 792.056 700.949 888.067 688.629C890.72 703.749 897.44 745.482 897.987 782.508C866.907 786.588 832.079 790.509 794.017 794.202ZM502.199 1009.06C482.249 1028.08 458.745 1039.15 431.396 1042.31C428.519 1003.83 430.791 962.482 431.655 949.442C434.181 948.535 436.628 947.469 438.977 946.229C465.889 931.949 480.099 897.148 482.416 839.842C482.42 839.748 482.4 839.655 482.4 839.562C496.344 840.962 510.387 841.682 524.472 841.682C538.392 841.682 552.227 840.988 565.951 839.642C565.171 892.642 539.524 973.455 502.199 1009.06ZM235.992 132.615C241.928 126.682 248.032 120.975 254.26 115.455H794.677C800.905 120.975 807.009 126.682 812.944 132.615C824.319 143.989 834.917 155.922 844.759 168.349H204.177C214.017 155.922 224.617 143.989 235.992 132.615ZM524.472 13.1218C618.456 13.1218 707.572 44.7086 779.744 102.829H269.193C341.369 44.7086 430.487 13.1218 524.472 13.1218ZM1021.91 171.042C1023.13 169.055 1023.16 166.549 1021.99 164.535C1015.77 153.949 1003.79 127.429 1026.33 109.629C1035.79 102.175 1049.63 104.895 1052.55 105.575C1054.56 106.682 1061.32 110.509 1068.23 115.882C1078.12 123.589 1084.12 131.202 1085.09 137.335C1085.48 139.709 1085.48 143.389 1081.11 147.882C1076.75 152.362 1061.29 149.175 1052.24 145.602C1049 144.322 1045.33 145.909 1044.05 149.149C1042.76 152.389 1044.35 156.055 1047.6 157.335C1047.88 157.455 1054.87 160.189 1063.15 161.695C1066.72 162.349 1070.03 162.669 1073.04 162.669C1080.55 162.669 1086.28 160.669 1090.16 156.682C1091.59 155.215 1092.8 153.682 1093.84 152.095C1096.08 156.135 1099.33 160.269 1104.07 163.975C1109.08 167.909 1114.81 169.895 1120.95 169.895C1123.89 169.895 1126.93 169.442 1130.03 168.522C1130.41 168.402 1130.79 168.282 1131.16 168.162C1132.44 175.175 1135.71 184.549 1144.03 190.669C1149.43 194.642 1156.05 196.629 1163.83 196.629C1167.2 196.629 1170.8 196.242 1174.6 195.495C1164.84 210.175 1150.61 220.548 1132.05 226.455C1109.36 233.668 1088.33 231.282 1088.13 231.255C1085.47 230.935 1082.87 232.349 1081.69 234.775C1054.89 290.175 1008.93 350.682 944.973 414.762C944.4 375.509 938.493 337.122 927.573 300.455C983.747 232.482 1021.52 171.655 1021.91 171.042ZM1078.61 80.7085C1109.12 61.2952 1128.91 84.1087 1129.72 85.0687C1130.55 86.0687 1131.67 86.7887 1132.92 87.1353C1133.09 87.1753 1150.49 92.0687 1165.8 104.335C1185.45 120.109 1192.68 140.415 1187.27 164.722C1186.04 170.215 1184.44 175.375 1182.52 180.215C1172.71 183.695 1159.63 186.429 1151.55 180.535C1144.6 175.469 1143.28 165.695 1143.04 161.388C1143.09 161.322 1143.15 161.269 1143.19 161.202C1146.32 156.535 1155.37 143.615 1159.57 139.802C1162.16 137.455 1162.36 133.469 1160.01 130.882C1157.67 128.309 1153.68 128.108 1151.09 130.455C1145.61 135.428 1136.12 149.148 1133.37 153.188C1130.56 155.055 1120.49 160.802 1111.84 154.029C1102.96 147.082 1101.72 138.015 1101.59 134.575C1105.01 129.269 1112.49 118.469 1117.83 113.975C1120.49 111.722 1120.83 107.749 1118.59 105.082C1116.33 102.415 1112.36 102.068 1109.69 104.322C1103.92 109.188 1097.21 118.455 1093.29 124.255C1086.03 112.175 1071.83 102.348 1063.64 97.3885C1067.33 91.7885 1073.07 84.2419 1078.61 80.7085ZM1086.72 550.762L1089.55 616.469C1077.43 616.509 1043.77 613.548 1020.04 581.708C1035.93 562.508 1060.04 550.389 1086.72 550.762ZM418.807 1043.2C386.528 1044.07 349.243 1034.75 306.54 1015.28C305.324 1009.75 302.925 996.602 303.527 981.202C304.487 956.589 312.317 937.322 326.803 923.815C359.132 943.295 386.82 953.095 409.536 953.095C412.732 953.095 415.819 952.869 418.817 952.482C417.833 968.909 416.121 1007.22 418.807 1043.2ZM293.245 1021.8L269.359 996.202C266.981 993.655 262.988 993.522 260.44 995.895C257.892 998.269 257.753 1002.27 260.132 1004.82L287.557 1034.2L282.28 1045.71C282.02 1046.27 281.735 1046.82 281.464 1047.38L254.028 1017.98C251.649 1015.43 247.656 1015.28 245.108 1017.67C242.56 1020.04 242.423 1024.04 244.8 1026.59L272.487 1056.26C273.291 1057.11 274.287 1057.67 275.341 1057.98C269.832 1066.08 263.053 1073.02 255.395 1078.63C243.548 1037.1 210.783 1019.84 198.193 1014.62L253.276 867.362C280.04 873.335 303.927 890.162 318.152 914.615C301.305 930.402 291.909 953.255 290.9 981.082C290.255 998.882 293.177 1013.63 294.464 1019.14L293.245 1021.8ZM170.732 1088.03L193.772 1026.44C204.949 1031.14 234.771 1046.99 244.199 1085.56C222.059 1097.04 195.125 1098.79 170.732 1088.03ZM159.184 1082.88L138.493 1073.62L211.791 866.962L212.401 866.842C221.817 864.975 231.284 864.535 240.547 865.375L159.184 1082.88ZM130.141 1043.64C127.28 1042.78 124.925 1040.84 123.513 1038.2C122.099 1035.56 121.8 1032.52 122.673 1029.64C123.539 1026.79 125.469 1024.43 128.112 1023.02C130.757 1021.6 133.792 1021.31 136.665 1022.18L142.7 1024L135.191 1045.18L130.141 1043.64ZM151.128 974.388C145.212 972.602 141.855 966.322 143.643 960.402C144.513 957.535 146.449 955.175 149.089 953.762C151.731 952.349 154.764 952.055 157.639 952.922L166.915 955.735L159.407 976.895L151.128 974.388ZM175.541 905.349C172.671 904.482 170.313 902.548 168.901 899.908C167.489 897.268 167.192 894.229 168.065 891.349C168.929 888.495 170.857 886.135 173.496 884.722C176.141 883.308 179.18 883.015 182.056 883.882L191.396 886.708L183.885 907.882L175.541 905.349ZM1152.25 708.282L1144.16 709.135L1142.63 683.695L1152.85 682.588C1159.19 681.908 1164.88 678.815 1168.88 673.855C1172.87 668.908 1174.69 662.682 1174.03 656.349C1172.61 643.269 1160.83 633.775 1147.77 635.188L1139.76 636.042L1138.28 611.388L1145.13 610.642C1151.47 609.975 1157.16 606.868 1161.16 601.908C1165.16 596.948 1166.99 590.735 1166.29 584.415C1165.63 578.069 1162.52 572.375 1157.56 568.375C1152.6 564.375 1146.39 562.562 1140.07 563.242L1135.4 563.735L1134.27 544.869C1134.07 541.589 1131.39 539.002 1128.09 538.949L1087.41 538.149C1055.23 537.495 1026.19 552.789 1007.89 576.762C1007.28 577.309 1006.8 577.962 1006.45 578.682C995.32 594.002 988.507 612.682 987.92 632.908L987.133 660.135C959.493 666.469 908.96 673.495 856.053 679.829C882.64 645.829 903.707 608.215 918.747 567.815C934.867 524.509 943.64 479.095 944.88 432.629C1013.03 365.735 1062.21 302.349 1091.16 244.149C1099.13 244.562 1116.56 244.535 1135.43 238.615C1159.12 231.189 1189.49 212.815 1199.59 167.469C1206.08 138.335 1197.01 113.015 1173.37 94.2286C1158.91 82.7352 1143.29 77.1619 1138.05 75.4952C1135.49 72.8686 1129.51 67.4419 1120.73 63.8286C1109.91 59.3752 1092.63 56.8287 1071.84 70.0687C1063.16 75.5887 1055.48 86.6152 1051.73 92.5752C1044.32 91.4152 1029.91 90.7351 1018.52 99.7218C1010.85 105.775 988.093 128.189 1009.2 167.535C1001.09 180.269 968.667 230.095 923.013 286.109C902.573 225.602 868.347 170.162 821.869 123.682C742.433 44.242 636.816 0.495248 524.472 0.495248C412.128 0.495248 306.508 44.242 227.068 123.682C147.625 203.122 103.876 308.749 103.876 421.095C103.876 463.002 110.032 504.322 122.14 543.975C122.049 544.082 121.955 544.189 121.864 544.282C82.732 589.242 52.1533 635.775 33.3547 678.949C24.0493 687.082 15.864 698.175 9.00667 711.962C1.24934 727.575 -1.50666 745.109 1.24534 761.349C4.31334 779.442 13.832 794.535 28.7733 804.962C44.8573 816.202 65.2 822.495 83.8827 822.495C89.168 822.495 94.3253 821.989 99.2107 820.949C114.271 817.749 126.113 809.615 133.457 797.442C134.245 796.135 134.976 794.775 135.644 793.375C146.988 795.095 159.084 788.575 167.869 775.522C187.609 746.202 171.841 709.095 145.563 686.349C153.064 672.962 161.168 659.935 169.837 647.295C206.321 704.349 256.359 752.162 315.081 785.935C362.739 813.349 415.477 831.042 469.973 838.135C469.883 838.522 469.821 838.922 469.804 839.335C467.713 891.042 455.352 923.255 433.063 935.082C410.339 947.135 375.951 939.202 330.856 911.508C319.543 890.455 302.223 873.842 280.632 863.455C258.491 852.788 234.048 849.682 209.944 854.469L205.813 855.282C203.632 855.722 201.839 857.269 201.095 859.362L195.62 874.802L185.717 871.802C179.616 869.949 173.16 870.589 167.54 873.602C161.927 876.602 157.823 881.615 155.985 887.695C154.135 893.789 154.768 900.242 157.771 905.855C160.771 911.468 165.78 915.575 171.873 917.429L179.661 919.788L171.139 943.829L161.297 940.842C148.728 937.028 135.385 944.162 131.563 956.749C127.76 969.335 134.901 982.669 147.473 986.469L155.183 988.802L146.924 1012.1L140.327 1010.1C134.232 1008.24 127.78 1008.88 122.159 1011.88C116.541 1014.9 112.433 1019.91 110.595 1025.99C108.741 1032.08 109.379 1038.55 112.387 1044.16C115.391 1049.78 120.4 1053.88 126.481 1055.72L130.968 1057.08L124.651 1074.9C123.551 1077.99 125.017 1081.42 128.021 1082.76L165.161 1099.38C177.999 1105.12 191.461 1107.84 204.737 1107.84C221.921 1107.84 238.785 1103.28 253.568 1094.83C254.281 1094.58 254.917 1094.19 255.475 1093.71C271.725 1083.94 285.303 1069.39 293.752 1050.98L304.241 1028.1C345.403 1046.5 382.567 1055.8 414.969 1055.8C417.991 1055.8 420.956 1055.7 423.895 1055.54C424.459 1055.7 425.043 1055.82 425.655 1055.82C425.848 1055.82 426.043 1055.8 426.239 1055.79C426.944 1055.72 427.596 1055.51 428.209 1055.24C460.069 1052.59 487.893 1040.14 510.911 1018.19C550.864 980.082 578.22 893.815 578.592 838.229C608.307 834.415 637.437 827.442 665.671 817.375C673.115 816.882 728.36 813.229 795.192 806.762C860.213 800.469 949.6 790.162 1009.24 776.615C1027.67 791.069 1049.71 799.309 1073.2 800.429C1075.04 800.522 1076.88 800.562 1078.71 800.562C1101.28 800.562 1122.99 793.882 1141.79 781.108L1145.27 778.735C1147.11 777.495 1148.16 775.362 1148.03 773.149L1147.04 756.788L1157.32 755.682C1163.67 755.015 1169.36 751.909 1173.36 746.935C1177.35 741.989 1179.17 735.775 1178.49 729.455C1177.09 716.388 1165.33 706.895 1152.25 708.282Z" fill="#040606"/>
<path d="M682.04 332.334C694.152 332.334 704.385 339.213 704.385 347.373C704.385 355.52 694.152 362.4 682.04 362.4C669.927 362.4 659.693 355.52 659.693 347.373C659.693 339.213 669.927 332.334 682.04 332.334ZM682.04 375.027C701.32 375.027 717.007 362.627 717.007 347.373C717.007 332.12 701.32 319.707 682.04 319.707C662.759 319.707 647.072 332.12 647.072 347.373C647.072 362.627 662.759 375.027 682.04 375.027Z" fill="#040606"/>
<path d="M618.536 432.347V419.72H745.543V432.347C745.543 467.36 717.056 495.84 682.04 495.84C647.024 495.84 618.536 467.36 618.536 432.347ZM758.164 432.347V413.4C758.164 409.92 755.339 407.093 751.853 407.093H612.225C608.74 407.093 605.915 409.92 605.915 413.4V432.347C605.915 474.32 640.064 508.467 682.04 508.467C724.015 508.467 758.164 474.32 758.164 432.347Z" fill="#040606"/>
<path d="M1340.35 480.667L1271.41 463.427L1266.52 392.547L1332.43 365.987L1378.05 420.453L1340.35 480.667ZM1453.67 363.44C1453.12 362.187 1452.56 360.947 1451.99 359.72C1441.28 337.04 1424.93 317.334 1404.71 302.734C1403.61 301.947 1402.52 301.187 1401.41 300.44L1342.92 324.014L1302.43 275.68C1301.09 275.814 1299.76 275.974 1298.44 276.16C1273.71 279.494 1250.01 289.187 1229.92 304.16C1228.83 304.974 1227.73 305.8 1226.67 306.64L1230.99 369.134L1173.6 392.267C1173.32 393.587 1173.04 394.907 1172.8 396.227C1168.25 421.12 1170.21 446.894 1178.45 470.76C1178.91 472.067 1179.37 473.374 1179.87 474.667L1239.31 489.547L1243.48 550.24C1244.61 550.907 1245.75 551.547 1246.88 552.174C1246.95 552.2 1247 552.24 1247.05 552.267C1258.11 558.334 1269.99 562.974 1282.35 566.067C1294.73 569.16 1307.39 570.653 1320 570.52C1320.07 570.52 1320.13 570.52 1320.2 570.52C1321.51 570.507 1322.8 570.467 1324.11 570.414L1356.37 518.84L1415.81 533.707C1416.85 532.8 1417.88 531.88 1418.88 530.934C1437.41 513.76 1451.28 491.947 1459 467.84C1459.4 466.56 1459.79 465.267 1460.16 463.973L1420.41 416.534L1453.67 363.44Z" fill="white"/>
<path d="M1266.52 392.547L1271.41 463.427L1340.35 480.667L1378.05 420.453L1332.43 365.987L1266.52 392.547Z" fill="#040606"/>
<path d="M1459 467.84C1451.28 491.947 1437.41 513.76 1418.88 530.934C1417.88 531.88 1416.85 532.8 1415.81 533.707L1356.37 518.84L1324.11 570.414C1322.8 570.467 1321.51 570.507 1320.2 570.52C1320.13 570.52 1320.07 570.52 1320 570.52C1307.39 570.653 1294.73 569.16 1282.35 566.067C1269.99 562.974 1258.11 558.334 1247.05 552.267C1247 552.24 1246.95 552.2 1246.88 552.174C1245.75 551.547 1244.61 550.907 1243.48 550.24L1239.31 489.547L1179.87 474.667C1179.37 473.374 1178.91 472.067 1178.45 470.76C1170.21 446.894 1168.25 421.12 1172.8 396.227C1173.04 394.907 1173.32 393.587 1173.6 392.267L1230.99 369.134L1226.67 306.64C1227.73 305.8 1228.83 304.974 1229.92 304.16C1250.01 289.187 1273.71 279.494 1298.44 276.16C1299.76 275.974 1301.09 275.814 1302.43 275.68L1342.92 324.014L1401.41 300.44C1402.52 301.187 1403.61 301.947 1404.71 302.734C1424.93 317.334 1441.28 337.04 1451.99 359.72C1452.56 360.947 1453.12 362.187 1453.67 363.44L1420.41 416.534L1460.16 463.974C1459.79 465.267 1459.4 466.56 1459 467.84ZM1463.39 354.334C1451.79 329.734 1434.05 308.347 1412.08 292.494C1406.87 288.734 1401.4 285.28 1395.83 282.2C1383.73 275.534 1370.72 270.427 1357.17 267.04C1343.63 263.654 1329.76 262.027 1315.95 262.214C1309.53 262.307 1303.07 262.787 1296.75 263.64C1269.91 267.28 1244.19 277.787 1222.39 294.04C1217.61 297.574 1212.99 301.427 1208.65 305.48C1188.28 324.494 1173.16 348.64 1164.95 375.307C1164.12 378 1163.33 380.827 1162.6 383.734C1161.75 387.134 1161.01 390.574 1160.39 393.947C1155.45 420.987 1157.57 448.974 1166.52 474.867C1168.35 480.174 1170.49 485.494 1172.92 490.667C1184.77 515.96 1203.05 537.814 1225.77 553.84C1230.69 557.307 1235.81 560.507 1240.97 563.334C1241.03 563.36 1241.08 563.387 1241.15 563.414C1253.09 569.96 1265.93 574.974 1279.29 578.307C1292.13 581.52 1305.27 583.147 1318.36 583.147C1318.89 583.147 1319.43 583.147 1319.96 583.147C1320.03 583.147 1320.09 583.147 1320.16 583.147C1326.19 583.067 1332.2 582.653 1338.03 581.92C1365.63 578.493 1392.04 567.84 1414.4 551.094C1418.97 547.667 1423.39 544 1427.47 540.187C1447.59 521.547 1462.64 497.867 1471.01 471.68C1472.07 468.4 1473.03 465.014 1473.88 461.627C1474.6 458.72 1475.24 455.84 1475.76 453.094C1481.08 425.694 1479.13 397.28 1470.11 370.894C1468.17 365.24 1465.91 359.667 1463.39 354.334Z" fill="#040606"/>
</svg>
