<svg width="1503" height="1400" viewBox="0 0 1503 1400" fill="none" xmlns="http://www.w3.org/2000/svg">
<path d="M1345.63 1122.12L1442.61 1114.41L1389.23 1056.61L1345.63 1122.12Z" fill="#55C06E"/>
<path d="M1345.63 1122.12L1389.23 1056.62L1442.61 1114.42L1345.63 1122.12ZM1461.95 1121.98C1462.83 1119.72 1462.35 1117.18 1460.71 1115.4L1393.05 1042.16C1391.73 1040.74 1389.85 1039.99 1387.92 1040.15C1385.99 1040.31 1384.23 1041.34 1383.16 1042.95L1327.92 1125.95C1326.57 1127.96 1326.51 1130.56 1327.73 1132.64C1328.87 1134.58 1330.95 1135.76 1333.17 1135.76C1333.33 1135.76 1333.51 1135.75 1333.67 1135.74L1456.57 1125.98C1458.97 1125.78 1461.07 1124.23 1461.95 1121.98Z" fill="#040606"/>
<path d="M1456.07 1259.11C1437.27 1259.11 1421.96 1243.8 1421.96 1225C1421.96 1206.19 1437.27 1190.89 1456.07 1190.89C1474.88 1190.89 1490.17 1206.19 1490.17 1225C1490.17 1243.8 1474.88 1259.11 1456.07 1259.11ZM1456.07 1178.27C1430.31 1178.27 1409.35 1199.23 1409.35 1225C1409.35 1250.76 1430.31 1271.72 1456.07 1271.72C1481.84 1271.72 1502.8 1250.76 1502.8 1225C1502.8 1199.23 1481.84 1178.27 1456.07 1178.27Z" fill="#040606"/>
<path d="M175.56 1024.23C189.786 1026.79 243.547 1037.07 311.947 1057.33L354.906 846.415C319.693 840.508 285.613 830.242 253.306 815.868L175.56 1024.23Z" fill="#F9E444"/>
<path d="M624.147 1330.64C623.881 1330.64 623.627 1330.62 623.36 1330.58L631.027 1361.11L934.907 1235.6L923.414 1215.15C921.601 1211.92 919.667 1208.82 917.641 1205.76L626.627 1330.14C625.827 1330.48 624.974 1330.64 624.147 1330.64Z" fill="white"/>
<path d="M736.667 1173.08C738.44 1177.68 742.24 1180.87 747.08 1181.81C753.173 1183.01 759.413 1179.99 762.267 1174.48L780.733 1138.8C772.507 1139.41 764.267 1140.72 756.067 1142.75L749.933 1144.25L738.493 1159.61C735.56 1163.57 734.88 1168.48 736.667 1173.08Z" fill="#F579C3"/>
<path d="M289.974 1206.61L270.654 1217.81C266.387 1220.29 263.84 1224.53 263.667 1229.47C263.48 1234.4 265.72 1238.81 269.8 1241.6C274.92 1245.09 281.854 1244.77 286.64 1240.84L314.547 1217.89C307.801 1214.04 300.707 1210.67 293.267 1207.85L289.974 1206.61Z" fill="#F579C3"/>
<path d="M277.693 1256.63C272.453 1256.63 267.2 1255.11 262.693 1252.03C255.067 1246.83 250.72 1238.23 251.053 1229.01C251.386 1219.79 256.346 1211.52 264.32 1206.89L283.773 1195.61L290.093 1164.57C239.293 1151.95 187.787 1139.67 136.813 1128.03L82.4932 1273.59L390.227 1338.43C387.053 1292.75 363.067 1250.91 325.8 1224.99L294.653 1250.59C289.786 1254.6 283.747 1256.63 277.693 1256.63Z" fill="#83BFEA"/>
<path d="M507.933 477.681C507.933 458.535 534.267 444.095 569.2 444.095C604.12 444.095 630.467 458.535 630.467 477.681C630.467 496.828 604.12 511.268 569.2 511.268C534.267 511.268 507.933 496.828 507.933 477.681ZM477.52 140.428C478.426 137.068 481.88 135.055 485.253 135.961C488.586 136.855 490.587 140.255 489.747 143.588C489.493 144.708 485.347 166.308 525.6 189.535C528.613 191.268 529.653 195.135 527.907 198.148C526.747 200.175 524.613 201.308 522.44 201.308C521.373 201.308 520.28 201.041 519.293 200.468C469.786 171.908 477.186 141.708 477.52 140.428ZM454.96 415.868C443.32 415.868 433.88 398.788 433.88 377.721C433.88 356.655 443.32 339.575 454.96 339.575C466.6 339.575 476.04 356.655 476.04 377.721C476.04 398.788 466.6 415.868 454.96 415.868ZM536.36 140.428C537.266 137.068 540.72 135.068 544.093 135.961C547.426 136.855 549.426 140.255 548.586 143.588C548.333 144.708 544.187 166.308 584.44 189.535C587.453 191.268 588.493 195.135 586.747 198.148C585.587 200.175 583.453 201.308 581.28 201.308C580.213 201.308 579.12 201.041 578.133 200.468C528.627 171.908 536.026 141.708 536.36 140.428ZM669.707 339.575C681.347 339.575 690.786 356.655 690.786 377.721C690.786 398.788 681.347 415.868 669.707 415.868C658.067 415.868 648.626 398.788 648.626 377.721C648.626 356.655 658.067 339.575 669.707 339.575ZM881.653 666.708C898.346 655.001 916.2 641.868 935.44 627.175C936.72 626.188 938.347 625.735 939.947 625.908C950.853 627.081 963.253 625.521 976.826 621.268C1012.24 610.148 1024.68 580.575 1021.36 557.508C1015.81 566.241 1007.76 573.388 998.373 577.721C997.52 578.108 996.613 578.295 995.733 578.295C993.347 578.295 991.067 576.935 990 574.628C988.547 571.455 989.92 567.708 993.093 566.255C1002.37 561.975 1009.95 554.108 1013.89 544.681C1014.55 543.095 1015.79 541.921 1017.25 541.295C1014.36 533.241 1010.28 525.695 1005.35 519.148C1000.33 528.575 992.747 536.535 983.467 541.948C982.467 542.535 981.373 542.815 980.293 542.815C978.12 542.815 976 541.695 974.826 539.681C973.08 536.668 974.093 532.801 977.093 531.041C985.52 526.135 992.386 518.201 996.093 509.175C994.96 508.628 993.987 507.748 993.347 506.601C992.4 505.841 991.427 505.108 990.44 504.415C984.733 500.388 975.626 495.735 964.693 496.428C957.253 496.908 951.027 502.828 944.44 509.108C941.76 511.655 939 514.295 936.08 516.615C933.347 518.775 929.373 518.321 927.213 515.588C925.04 512.868 925.506 508.895 928.226 506.721C929.64 505.601 931.053 504.348 932.48 503.028L928.493 489.388C904.36 497.721 883.866 537.601 886.12 563.441C886.16 563.975 886.28 565.015 886.28 565.028C886.48 566.655 886.04 568.281 885.053 569.588C884.2 570.708 863.973 597.161 829.107 623.041C786.347 654.801 740.32 671.375 695.307 671.375C691.467 671.375 687.653 671.255 683.826 671.015C627.266 667.441 553.946 622.001 550.853 620.068C547.893 618.215 547 614.321 548.853 611.375C550.693 608.415 554.587 607.521 557.547 609.361C558.28 609.815 631.266 655.041 684.626 658.415C721.64 660.761 754.947 650.708 782.147 637.201C782.28 636.815 782.453 636.441 782.667 636.081C819.987 572.801 839.72 500.295 839.72 426.415C839.72 316.001 796.72 212.201 718.653 134.135C640.586 56.068 536.787 13.0681 426.373 13.0681C315.96 13.0681 212.173 56.068 134.093 134.135C56.0265 212.201 13.04 316.001 13.04 426.415C13.04 536.815 56.0265 640.615 134.093 718.681C212.173 796.761 315.96 839.748 426.373 839.748C514.253 839.748 597.6 812.761 668.267 761.588C579.253 756.601 493.747 700.828 489.907 698.295C486.987 696.375 486.187 692.468 488.107 689.561C490.027 686.641 493.946 685.841 496.853 687.761C497.826 688.401 595.253 751.935 686.533 749.241C720.92 748.241 754.467 739.668 794 720.201C794.547 719.801 795.146 719.521 795.786 719.308C821.253 706.615 849.213 689.415 881.467 666.841C881.52 666.788 881.586 666.748 881.653 666.708Z" fill="#F9E444"/>
<path d="M620.494 1319.19C620.854 1318.93 621.24 1318.71 621.667 1318.52L910.041 1195.29C881.974 1160.03 839.387 1139.28 794.76 1138.43C794.654 1139.05 794.481 1139.68 794.174 1140.27L773.481 1180.28C768.854 1189.21 759.534 1194.69 749.707 1194.69C748.041 1194.69 746.347 1194.53 744.667 1194.2C735.614 1192.43 728.214 1186.24 724.894 1177.64C721.56 1169.04 722.867 1159.48 728.374 1152.08L740.4 1135.92L728.907 1108.91C679.854 1127.35 630.481 1146.47 581.947 1165.79L620.494 1319.19Z" fill="#83BFEA"/>
<path d="M605.253 491.308C613.253 487.335 617.84 482.375 617.84 477.682C617.84 472.988 613.253 468.015 605.253 464.042C595.719 459.322 582.92 456.708 569.2 456.708C555.48 456.708 542.667 459.322 533.147 464.042C525.147 468.015 520.56 472.988 520.56 477.682C520.56 482.375 525.147 487.335 533.147 491.308C542.667 496.042 555.48 498.642 569.2 498.642C582.92 498.642 595.719 496.042 605.253 491.308Z" fill="#040606"/>
<path d="M566.026 828.948C544.96 836.255 523.413 841.842 501.52 845.748L554.947 1058.33C568.12 1052.36 618.213 1030.32 686.04 1008.2L603.36 813.962C591.173 819.535 578.733 824.548 566.026 828.948Z" fill="#F9E444"/>
<path d="M578.84 1153.44C626.773 1134.36 675.52 1115.51 723.96 1097.28L691 1019.87C618.56 1043.41 566.466 1066.92 558.066 1070.77L578.84 1153.44Z" fill="white"/>
<path d="M141.267 1116.11C191.6 1127.6 242.44 1139.73 292.626 1152.2L309.413 1069.75C236.453 1048.05 180.173 1037.84 171.067 1036.25L141.267 1116.11Z" fill="white"/>
<path d="M963.893 483.828C971.947 483.322 980.08 484.908 987.853 488.428L870.6 86.8018C870.427 86.2151 870.04 85.9084 869.747 85.7351C869.454 85.5751 868.973 85.4152 868.386 85.5885L828.986 97.0951C828.04 97.3751 827.493 98.3618 827.76 99.3084L942.84 493.495C948.72 488.548 955.453 484.375 963.893 483.828Z" fill="#F28453"/>
<path d="M66.4004 1316.71L387.84 1385.79L389.974 1362.43C390.32 1358.73 390.494 1355.05 390.56 1351.39L78.027 1285.55L66.4004 1316.71Z" fill="white"/>
<path d="M1021.41 604.802C1012.2 617.242 998.787 626.948 983.387 632.375L988.587 650.188C993.293 641.522 1002.93 632.175 1020.28 630.202C1023.32 629.855 1026.27 629.748 1029.15 629.868L1021.71 604.388C1021.61 604.535 1021.52 604.668 1021.41 604.802Z" fill="#F28453"/>
<path d="M972.96 750.042C960.32 738.295 961.76 723.282 965.667 713.615C961.547 709.668 957.88 703.668 956.334 696.682C926.027 692.455 902.6 684.602 886.253 678.868C858.547 698.175 833.88 713.562 811.16 725.602C835.027 738.268 898.507 767.988 973.187 770.735C970.093 762.828 971.453 754.922 972.96 750.042Z" fill="#F9E444"/>
<path d="M1069.43 761.308C1069.8 760.628 1070.29 760.028 1070.88 759.521C1071.6 758.601 1072.29 757.668 1072.95 756.695C1079.24 747.295 1077.92 731.921 1076.85 719.561L1076.73 718.175C1072.96 673.735 1056.91 656.121 1050.19 650.601C1043.49 645.121 1035.89 642.428 1027.07 642.428C1025.32 642.428 1023.55 642.535 1021.71 642.735C1010.8 643.975 1004.77 648.735 1001.44 653.282C1007.21 652.428 1012.84 651.842 1017.76 651.615C1021.2 651.468 1024.19 654.148 1024.35 657.628C1024.51 661.108 1021.81 664.068 1018.33 664.228C1010.91 664.561 1001.25 665.868 992.52 667.695H992.507C992.493 667.695 992.493 667.708 992.48 667.708C987.813 668.655 983.28 670.428 979.026 672.975C971.56 677.455 967.906 683.295 968.16 690.335C968.453 697.935 973.267 704.468 976.48 706.081C978.067 706.881 979.24 708.308 979.72 710.015C980.2 711.721 979.947 713.561 979 715.068C977.973 716.748 969.227 732.108 984.173 742.935C986.693 744.761 987.507 748.161 986.08 750.935C986.053 750.988 981.653 759.961 985.507 767.428C988.56 773.375 996.573 777.535 1008.68 779.428C1034.04 783.428 1056.25 776.668 1069.43 761.308Z" fill="#F9E444"/>
<path d="M1255.83 997.508L1243.95 974.908C1233.99 955.921 1213.08 945.495 1191.92 948.948L1130.99 958.921C1127.84 959.428 1124.8 957.521 1123.91 954.455L1071.97 776.535C1060.89 785.935 1046.49 791.535 1030.24 792.855L1085.13 980.881C1085.68 982.761 1085.33 984.788 1084.19 986.361L1030.15 1060.73C1021.2 1073.05 1018.39 1088.53 1022.45 1103.21L1037.92 1159.05L1255.83 997.508Z" fill="#F28453"/>
<path d="M1039.8 1173.37L996 1331.47H1029.6L1066.55 1208.63C1067.47 1205.56 1070.52 1203.68 1073.67 1204.21C1076.8 1204.76 1079.05 1207.56 1078.89 1210.75L1073.31 1326.28C1080.51 1321.92 1091.15 1315.45 1103.85 1307.6C1105.53 1271.17 1103.84 1181.32 1103.83 1180.41C1103.76 1176.92 1106.53 1174.05 1110.01 1173.99C1113.45 1173.89 1116.37 1176.68 1116.44 1180.17C1116.45 1181.01 1117.93 1258.96 1116.77 1299.57C1126.43 1293.55 1136.85 1286.97 1147.61 1280.09C1149.28 1243.52 1147.6 1154.04 1147.57 1153.15C1147.51 1149.65 1150.28 1146.77 1153.76 1146.71C1157.2 1146.67 1160.13 1149.41 1160.2 1152.91C1160.21 1153.75 1161.67 1231.03 1160.55 1271.77C1172.4 1264.09 1184.44 1256.17 1196.07 1248.31C1197.77 1212 1196.07 1121.84 1196.05 1120.93C1195.99 1117.45 1198.76 1114.57 1202.24 1114.51C1202.28 1114.51 1202.32 1114.51 1202.36 1114.51C1205.79 1114.51 1208.6 1117.25 1208.67 1120.69C1208.69 1121.53 1210.15 1198.67 1209.01 1239.45C1221.39 1230.91 1232.99 1222.59 1243.08 1214.88C1243.04 1214.59 1242.99 1214.28 1242.99 1213.97C1243.13 1124.37 1234.35 1056.39 1234.25 1055.72C1233.8 1052.25 1236.24 1049.09 1239.69 1048.64C1243.15 1048.19 1246.32 1050.61 1246.77 1054.07C1246.85 1054.73 1255.17 1118.99 1255.6 1205C1264.01 1198.07 1270.64 1191.92 1274.75 1186.96C1276.04 1172.79 1283.56 1078.19 1260.81 1009.52L1039.8 1173.37Z" fill="white"/>
<path d="M669.707 415.868C681.347 415.868 690.787 398.788 690.787 377.722C690.787 356.655 681.347 339.575 669.707 339.575C658.067 339.575 648.627 356.655 648.627 377.722C648.627 398.788 658.067 415.868 669.707 415.868Z" fill="#040606"/>
<path d="M454.96 339.575C443.32 339.575 433.88 356.655 433.88 377.722C433.88 398.788 443.32 415.868 454.96 415.868C466.6 415.868 476.04 398.788 476.04 377.722C476.04 356.655 466.6 339.575 454.96 339.575Z" fill="#040606"/>
<path d="M578.134 200.468C579.12 201.041 580.214 201.308 581.28 201.308C583.454 201.308 585.587 200.175 586.747 198.148C588.494 195.135 587.454 191.268 584.44 189.535C544.187 166.308 548.333 144.708 548.587 143.588C549.427 140.255 547.427 136.855 544.093 135.961C540.72 135.068 537.267 137.068 536.36 140.428C536.027 141.708 528.627 171.908 578.134 200.468Z" fill="#040606"/>
<path d="M522.44 201.308C524.613 201.308 526.746 200.175 527.906 198.148C529.653 195.135 528.613 191.268 525.599 189.535C485.346 166.308 489.493 144.708 489.746 143.588C490.586 140.255 488.586 136.855 485.253 135.961C481.879 135.055 478.426 137.068 477.519 140.428C477.186 141.708 469.786 171.908 519.293 200.468C520.279 201.041 521.373 201.308 522.44 201.308Z" fill="#040606"/>
<path d="M520.56 477.681C520.56 472.988 525.147 468.015 533.147 464.041C542.667 459.321 555.48 456.708 569.2 456.708C582.92 456.708 595.72 459.321 605.253 464.041C613.253 468.015 617.84 472.988 617.84 477.681C617.84 482.375 613.253 487.335 605.253 491.308C595.72 496.041 582.92 498.641 569.2 498.641C555.48 498.641 542.667 496.041 533.147 491.308C525.147 487.335 520.56 482.375 520.56 477.681ZM630.467 477.681C630.467 458.535 604.12 444.095 569.2 444.095C534.267 444.095 507.934 458.535 507.934 477.681C507.934 496.828 534.267 511.268 569.2 511.268C604.12 511.268 630.467 496.828 630.467 477.681Z" fill="#040606"/>
<path d="M1274.75 1186.96C1270.64 1191.92 1264.01 1198.07 1255.6 1205C1255.17 1118.99 1246.85 1054.74 1246.77 1054.07C1246.32 1050.62 1243.15 1048.19 1239.69 1048.64C1236.24 1049.1 1233.8 1052.26 1234.25 1055.72C1234.35 1056.39 1243.13 1124.38 1242.99 1213.98C1242.99 1214.28 1243.04 1214.59 1243.08 1214.88C1232.99 1222.59 1221.39 1230.91 1209.01 1239.46C1210.15 1198.67 1208.69 1121.54 1208.67 1120.7C1208.6 1117.26 1205.79 1114.51 1202.36 1114.51C1202.32 1114.51 1202.28 1114.51 1202.24 1114.51C1198.76 1114.58 1195.99 1117.46 1196.05 1120.94C1196.07 1121.84 1197.77 1212 1196.07 1248.31C1184.44 1256.18 1172.4 1264.1 1160.55 1271.78C1161.67 1231.03 1160.21 1153.75 1160.2 1152.91C1160.13 1149.42 1157.2 1146.67 1153.76 1146.71C1150.28 1146.78 1147.51 1149.66 1147.57 1153.15C1147.6 1154.04 1149.28 1243.52 1147.61 1280.1C1136.85 1286.98 1126.43 1293.55 1116.77 1299.58C1117.93 1258.96 1116.45 1181.02 1116.44 1180.18C1116.37 1176.68 1113.45 1173.9 1110.01 1173.99C1106.53 1174.06 1103.76 1176.92 1103.83 1180.42C1103.84 1181.32 1105.53 1271.18 1103.85 1307.6C1091.15 1315.46 1080.51 1321.92 1073.31 1326.28L1078.89 1210.75C1079.05 1207.56 1076.8 1204.76 1073.67 1204.22C1070.52 1203.68 1067.47 1205.56 1066.55 1208.63L1029.6 1331.47H996L1039.8 1173.38L1260.81 1009.52C1283.56 1078.19 1276.04 1172.79 1274.75 1186.96ZM1022.45 1103.22C1018.39 1088.54 1021.2 1073.06 1030.15 1060.74L1084.19 986.362C1085.33 984.788 1085.68 982.762 1085.13 980.882L1030.24 792.855C1046.49 791.535 1060.89 785.935 1071.97 776.535L1123.91 954.455C1124.8 957.522 1127.84 959.428 1130.99 958.922L1191.92 948.948C1213.08 945.495 1233.99 955.922 1243.95 974.908L1255.83 997.508L1037.92 1159.06L1022.45 1103.22ZM1008.68 779.428C996.574 777.535 988.561 773.375 985.507 767.428C981.654 759.962 986.054 750.988 986.081 750.935C987.507 748.162 986.694 744.762 984.174 742.935C969.227 732.108 977.974 716.748 979 715.068C979.947 713.562 980.2 711.722 979.72 710.015C979.24 708.308 978.067 706.882 976.481 706.082C973.267 704.468 968.454 697.935 968.16 690.335C967.907 683.295 971.56 677.455 979.027 672.975C983.28 670.428 987.814 668.655 992.481 667.708C992.494 667.708 992.494 667.695 992.507 667.695H992.52C1001.25 665.868 1010.91 664.562 1018.33 664.228C1021.81 664.068 1024.51 661.108 1024.35 657.628C1024.19 654.148 1021.2 651.468 1017.76 651.615C1012.84 651.842 1007.21 652.428 1001.44 653.282C1004.77 648.735 1010.8 643.975 1021.71 642.735C1023.55 642.535 1025.32 642.428 1027.07 642.428C1035.89 642.428 1043.49 645.122 1050.19 650.602C1056.91 656.122 1072.96 673.735 1076.73 718.175L1076.85 719.562C1077.92 731.922 1079.24 747.295 1072.95 756.695C1072.29 757.668 1071.6 758.602 1070.88 759.522C1070.29 760.028 1069.8 760.628 1069.43 761.308C1056.25 776.668 1034.04 783.428 1008.68 779.428ZM811.16 725.602C833.88 713.562 858.547 698.175 886.254 678.868C902.6 684.602 926.027 692.455 956.334 696.682C957.88 703.668 961.547 709.668 965.667 713.615C961.76 723.282 960.32 738.295 972.96 750.042C971.454 754.922 970.094 762.828 973.187 770.735C898.507 767.988 835.027 738.268 811.16 725.602ZM978.094 659.255C976.2 660.122 974.347 661.068 972.534 662.162C963.454 667.602 957.8 675.175 956.094 683.908C932.654 680.482 913.934 674.948 898.974 669.908C912.294 660.375 926.321 650.002 941.147 638.695C950.454 639.375 960.56 638.428 971.267 635.868L978.094 659.255ZM1029.15 629.868C1026.27 629.748 1023.32 629.855 1020.28 630.202C1002.93 632.175 993.294 641.522 988.587 650.188L983.387 632.375C998.787 626.948 1012.2 617.242 1021.41 604.802C1021.52 604.668 1021.61 604.535 1021.71 604.388L1029.15 629.868ZM795.787 719.308C795.147 719.522 794.547 719.802 794 720.202C754.467 739.668 720.92 748.242 686.534 749.242C595.254 751.935 497.827 688.402 496.854 687.762C493.947 685.842 490.027 686.642 488.107 689.562C486.187 692.468 486.987 696.375 489.907 698.295C493.747 700.828 579.254 756.602 668.267 761.588C597.6 812.762 514.254 839.748 426.374 839.748C315.961 839.748 212.174 796.762 134.094 718.682C56.0271 640.615 13.0406 536.815 13.0406 426.415C13.0406 316.002 56.0271 212.202 134.094 134.135C212.174 56.0684 315.961 13.0686 426.374 13.0686C536.787 13.0686 640.587 56.0684 718.654 134.135C796.72 212.202 839.72 316.002 839.72 426.415C839.72 500.295 819.987 572.802 782.667 636.082C782.454 636.442 782.281 636.815 782.147 637.202C754.947 650.708 721.64 660.762 684.627 658.415C631.267 655.042 558.281 609.815 557.547 609.362C554.587 607.522 550.694 608.415 548.854 611.375C547 614.322 547.894 618.215 550.854 620.068C553.947 622.002 627.267 667.442 683.827 671.015C687.654 671.255 691.467 671.375 695.307 671.375C740.321 671.375 786.347 654.802 829.107 623.042C863.974 597.162 884.2 570.708 885.054 569.588C886.04 568.282 886.481 566.655 886.281 565.028C886.281 565.015 886.16 563.975 886.12 563.442C883.867 537.602 904.36 497.722 928.494 489.388L932.481 503.028C931.054 504.348 929.64 505.602 928.227 506.722C925.507 508.895 925.041 512.868 927.214 515.588C929.374 518.322 933.347 518.775 936.081 516.615C939.001 514.295 941.761 511.655 944.441 509.108C951.027 502.828 957.254 496.908 964.694 496.428C975.627 495.735 984.734 500.388 990.441 504.415C991.427 505.108 992.401 505.842 993.347 506.602C993.987 507.748 994.96 508.628 996.094 509.175C992.387 518.202 985.52 526.135 977.094 531.042C974.094 532.802 973.08 536.668 974.827 539.682C976 541.695 978.12 542.815 980.294 542.815C981.374 542.815 982.467 542.535 983.467 541.948C992.747 536.535 1000.33 528.575 1005.35 519.148C1010.28 525.695 1014.36 533.242 1017.25 541.295C1015.79 541.922 1014.55 543.095 1013.89 544.682C1009.95 554.108 1002.37 561.975 993.094 566.255C989.92 567.708 988.547 571.455 990 574.628C991.067 576.935 993.347 578.295 995.734 578.295C996.614 578.295 997.521 578.108 998.374 577.722C1007.76 573.388 1015.81 566.242 1021.36 557.508C1024.68 580.575 1012.24 610.148 976.827 621.268C963.254 625.522 950.854 627.082 939.947 625.908C938.347 625.735 936.721 626.188 935.441 627.175C916.201 641.868 898.347 655.002 881.654 666.708C881.587 666.748 881.52 666.788 881.467 666.842C849.214 689.415 821.254 706.615 795.787 719.308ZM686.041 1008.2C618.214 1030.32 568.121 1052.36 554.947 1058.34L501.52 845.748C523.414 841.842 544.96 836.255 566.027 828.948C578.734 824.548 591.174 819.535 603.36 813.962L686.041 1008.2ZM723.96 1097.28C675.52 1115.51 626.774 1134.36 578.841 1153.44L558.067 1070.78C566.467 1066.92 618.56 1043.42 691 1019.87L723.96 1097.28ZM740.4 1135.92L728.374 1152.08C722.867 1159.48 721.56 1169.04 724.894 1177.64C728.214 1186.24 735.614 1192.43 744.667 1194.2C746.347 1194.54 748.041 1194.7 749.707 1194.7C759.534 1194.7 768.854 1189.22 773.481 1180.28L794.174 1140.27C794.481 1139.68 794.654 1139.06 794.76 1138.43C839.387 1139.28 881.974 1160.03 910.041 1195.3L621.667 1318.52C621.24 1318.71 620.854 1318.94 620.494 1319.19L581.947 1165.79C630.481 1146.47 679.854 1127.35 728.907 1108.91L740.4 1135.92ZM756.067 1142.75C764.267 1140.72 772.507 1139.42 780.734 1138.8L762.267 1174.48C759.414 1179.99 753.174 1183.02 747.081 1181.82C742.241 1180.87 738.44 1177.68 736.667 1173.08C734.88 1168.48 735.56 1163.58 738.494 1159.62L749.934 1144.26L756.067 1142.75ZM923.414 1215.15L934.907 1235.6L631.027 1361.11L623.36 1330.58C623.627 1330.62 623.881 1330.64 624.147 1330.64C624.974 1330.64 625.827 1330.48 626.627 1330.14L917.641 1205.76C919.667 1208.82 921.601 1211.92 923.414 1215.15ZM311.947 1057.34C243.547 1037.07 189.787 1026.79 175.56 1024.23L253.307 815.868C285.614 830.242 319.694 840.508 354.907 846.415L311.947 1057.34ZM292.627 1152.2C242.44 1139.74 191.601 1127.6 141.267 1116.11L171.067 1036.26C180.174 1037.84 236.454 1048.06 309.414 1069.75L292.627 1152.2ZM314.547 1217.9L286.641 1240.84C281.854 1244.78 274.921 1245.1 269.801 1241.6C265.721 1238.82 263.481 1234.4 263.667 1229.47C263.841 1224.54 266.387 1220.3 270.654 1217.82L289.974 1206.62L293.267 1207.86C300.707 1210.67 307.801 1214.04 314.547 1217.9ZM390.227 1338.43L82.4937 1273.59L136.814 1128.03C187.787 1139.67 239.294 1151.95 290.094 1164.58L283.774 1195.62L264.32 1206.9C256.347 1211.52 251.387 1219.79 251.054 1229.02C250.72 1238.23 255.067 1246.83 262.694 1252.03C267.2 1255.11 272.454 1256.63 277.694 1256.63C283.747 1256.63 289.787 1254.6 294.654 1250.59L325.801 1224.99C363.067 1250.91 387.054 1292.75 390.227 1338.43ZM389.974 1362.43L387.841 1385.79L66.4005 1316.71L78.0271 1285.55L390.56 1351.39C390.494 1355.06 390.321 1358.74 389.974 1362.43ZM827.76 99.3084C827.494 98.3617 828.04 97.3751 828.987 97.0951L868.387 85.5885C868.974 85.4152 869.454 85.5751 869.747 85.7351C870.041 85.9084 870.427 86.2151 870.6 86.8018L987.854 488.428C980.08 484.908 971.947 483.322 963.894 483.828C955.454 484.375 948.721 488.548 942.841 493.495L827.76 99.3084ZM1269.83 997.135C1269.79 997.028 1269.72 996.935 1269.67 996.828C1269.61 996.695 1269.57 996.562 1269.51 996.428L1255.12 969.028C1242.63 945.228 1216.41 932.162 1189.88 936.495L1134.47 945.562L1081.96 765.748C1082.45 765.068 1082.96 764.415 1083.43 763.722C1092.2 750.642 1090.6 732.055 1089.44 718.482L1089.32 717.108C1088.45 706.922 1086.31 691.588 1081.01 676.468C1075.49 660.722 1067.81 648.735 1058.19 640.842C1053.53 637.028 1048.47 634.202 1043.03 632.362L1030.36 588.975C1030.33 588.908 1030.29 588.842 1030.27 588.762C1034.37 578.135 1035.59 566.682 1033.75 554.935C1030.35 533.335 1019.27 512.722 1004.16 499.242L882.72 83.2684C881.64 79.5751 879.187 76.5218 875.814 74.6684C872.441 72.8151 868.534 72.4018 864.841 73.4818L825.441 84.9751C817.814 87.2017 813.427 95.2285 815.654 102.855L924.96 477.282C894.987 487.295 871.134 532.255 873.481 563.855C868.241 570.322 849.587 592.175 821.294 613.122C815.76 617.228 809.64 621.442 802.987 625.575C835.32 564.495 852.334 496.042 852.334 426.415C852.334 312.628 808.027 205.669 727.574 125.215C647.121 44.7618 540.147 0.455031 426.374 0.455031C312.601 0.455031 205.627 44.7618 125.174 125.215C44.7206 205.669 0.414062 312.628 0.414062 426.415C0.414062 540.188 44.7206 647.162 125.174 727.615C159.694 762.135 199.107 789.975 241.841 810.548C241.827 810.575 241.8 810.602 241.787 810.642L52.0271 1319.15C51.3871 1320.86 51.5205 1322.78 52.4005 1324.38C53.2805 1325.99 54.8141 1327.14 56.6141 1327.52L392.147 1399.63C392.587 1399.72 393.027 1399.76 393.481 1399.76C394.814 1399.76 396.121 1399.34 397.214 1398.54C398.667 1397.47 399.6 1395.83 399.76 1394.03L402.547 1363.58C403.081 1357.82 403.294 1352.07 403.2 1346.38C403.2 1346.31 403.2 1346.24 403.2 1346.18C402.334 1291.91 374.227 1241.64 329.427 1212.22C329.094 1211.94 328.734 1211.7 328.36 1211.51C318.854 1205.38 308.614 1200.16 297.734 1196.06L296.654 1195.64L367.4 848.322C386.787 850.988 406.467 852.375 426.374 852.375C447.467 852.375 468.387 850.842 489.027 847.802L620.574 1371.27C621.014 1373.04 622.214 1374.54 623.854 1375.36C624.747 1375.82 625.72 1376.04 626.694 1376.04C627.507 1376.04 628.32 1375.88 629.094 1375.56L946.307 1244.55C947.974 1243.86 949.267 1242.48 949.854 1240.78C950.44 1239.07 950.28 1237.19 949.387 1235.62L934.414 1208.96C931.574 1203.91 928.481 1199.04 925.174 1194.39C925.134 1194.34 925.081 1194.28 925.041 1194.23C886.627 1140.38 818.307 1114.39 753.041 1130.5L752.494 1130.63C752.44 1130.58 752.387 1130.52 752.32 1130.47C752.107 1130.31 751.854 1130.19 751.614 1130.06L614.774 808.548C639.921 796.122 663.84 781.215 686.254 763.935C687.014 763.348 687.574 762.628 687.987 761.828C723.28 760.642 757.574 751.962 797.52 732.522C813.907 742.042 890.387 783.375 983.574 783.575C989.347 787.588 997.067 790.388 1006.72 791.908C1010.24 792.455 1013.72 792.815 1017.13 793.002L1072.16 981.455L1019.93 1053.31C1008.71 1068.76 1005.2 1088.19 1010.29 1106.59L1027.75 1169.59L981.627 1336.1C981.094 1337.99 981.494 1340.03 982.681 1341.6C983.881 1343.16 985.734 1344.08 987.707 1344.08H1034.29C1037.08 1344.08 1039.53 1342.27 1040.35 1339.6L1063.8 1261.59L1060.13 1337.47C1060.01 1339.79 1061.19 1341.99 1063.17 1343.19C1065.17 1344.39 1067.67 1344.39 1069.65 1343.2C1077.27 1338.67 1256.37 1231.87 1285.87 1193.26C1286.57 1192.34 1287 1191.24 1287.13 1190.08C1287.25 1188.91 1290.17 1160.9 1289.56 1123C1288.75 1071.92 1282.09 1029.58 1269.83 997.135Z" fill="#040606"/>
<path d="M1456.07 1190.9C1437.27 1190.9 1421.96 1206.19 1421.96 1225C1421.96 1243.8 1437.27 1259.11 1456.07 1259.11C1474.88 1259.11 1490.17 1243.8 1490.17 1225C1490.17 1206.19 1474.88 1190.9 1456.07 1190.9Z" fill="#F2526C"/>
</svg>
