<svg width="1137" height="1143" viewBox="0 0 1137 1143" fill="none" xmlns="http://www.w3.org/2000/svg">
<path d="M807.067 180.427V126.187H799.307V118.493L814.8 110.72H822.533V180.427H807.067Z" fill="#040606"/>
<path d="M869 180.427V126.187H861.227V118.493L876.733 110.72H884.467V180.427H869Z" fill="#040606"/>
<path d="M931.12 166.16C931.507 168.307 932.333 169.933 933.6 171.027C934.867 172.107 936.574 172.653 938.707 172.653C940.854 172.653 942.693 171.893 944.2 170.373C945.72 168.84 946.467 167.04 946.467 164.96V138.64L931.12 166.16ZM946.32 124.88C945.267 120.627 942.72 118.493 938.707 118.493C936.574 118.493 934.747 119.253 933.214 120.76C931.694 122.28 930.933 124.08 930.933 126.187V152.547L946.32 124.88ZM930.933 110.72H946.467C950.707 110.72 954.347 112.253 957.374 115.293C960.414 118.347 961.933 121.973 961.933 126.187V164.96C961.933 169.147 960.414 172.773 957.374 175.827C954.347 178.893 950.707 180.427 946.467 180.427H930.933C926.693 180.427 923.067 178.907 920.027 175.867C916.987 172.827 915.467 169.2 915.467 164.96V126.187C915.467 121.96 916.987 118.32 920.027 115.28C923.067 112.24 926.693 110.72 930.933 110.72Z" fill="#040606"/>
<path d="M992.867 180.427V126.187H985.094V118.493L1000.6 110.72H1008.33V180.427H992.867Z" fill="#040606"/>
<path d="M686 55.9064C686.387 58.0664 687.214 59.6798 688.494 60.7731C689.76 61.8664 691.467 62.4132 693.587 62.4132C695.747 62.4132 697.574 61.6397 699.094 60.1197C700.6 58.5997 701.36 56.7864 701.36 54.7064V28.3864L686 55.9064ZM701.214 14.6398C700.147 10.3731 697.614 8.23976 693.587 8.23976C691.467 8.23976 689.627 8.99976 688.107 10.5064C686.587 12.0264 685.827 13.8399 685.827 15.9465V42.2931L701.214 14.6398ZM685.827 0.479863H701.36C705.6 0.479863 709.227 1.99971 712.267 5.05304C715.307 8.09304 716.827 11.7332 716.827 15.9465V54.7064C716.827 58.9064 715.307 62.5197 712.267 65.5864C709.227 68.6397 705.6 70.1731 701.36 70.1731H685.827C681.587 70.1731 677.947 68.6531 674.907 65.6265C671.881 62.5865 670.36 58.9464 670.36 54.7064V15.9465C670.36 11.7065 671.881 8.06648 674.907 5.02648C677.947 1.99981 681.587 0.479863 685.827 0.479863Z" fill="#040606"/>
<path d="M747.747 70.1731V15.9465H739.986V8.23976L755.48 0.479863H763.213V70.1731H747.747Z" fill="#040606"/>
<path d="M809.867 55.9064C810.254 58.0664 811.081 59.6798 812.347 60.7731C813.627 61.8664 815.32 62.4132 817.453 62.4132C819.613 62.4132 821.441 61.6397 822.947 60.1197C824.467 58.5997 825.227 56.7864 825.227 54.7064V28.3864L809.867 55.9064ZM825.081 14.6398C824.014 10.3731 821.467 8.23976 817.453 8.23976C815.32 8.23976 813.494 8.99976 811.974 10.5064C810.44 12.0264 809.681 13.8399 809.681 15.9465V42.2931L825.081 14.6398ZM809.681 0.479863H825.227C829.454 0.479863 833.094 1.99971 836.134 5.05304C839.174 8.09304 840.694 11.7332 840.694 15.9465V54.7064C840.694 58.9064 839.174 62.5197 836.134 65.5864C833.094 68.6397 829.454 70.1731 825.227 70.1731H809.681C805.454 70.1731 801.814 68.6531 798.774 65.6265C795.734 62.5865 794.214 58.9464 794.214 54.7064V15.9465C794.214 11.7065 795.734 8.06648 798.774 5.02648C801.814 1.99981 805.454 0.479863 809.681 0.479863Z" fill="#040606"/>
<path d="M871.8 55.9064C872.186 58.0664 873.013 59.6798 874.28 60.7731C875.56 61.8664 877.253 62.4132 879.386 62.4132C881.533 62.4132 883.373 61.6397 884.88 60.1197C886.4 58.5997 887.16 56.7864 887.16 54.7064V28.3864L871.8 55.9064ZM887.013 14.6398C885.946 10.3731 883.399 8.23976 879.386 8.23976C877.253 8.23976 875.426 8.99976 873.906 10.5064C872.373 12.0264 871.613 13.8399 871.613 15.9465V42.2931L887.013 14.6398ZM871.613 0.479863H887.16C891.386 0.479863 895.026 1.99971 898.066 5.05304C901.093 8.09304 902.613 11.7332 902.613 15.9465V54.7064C902.613 58.9064 901.093 62.5197 898.066 65.5864C895.026 68.6397 891.386 70.1731 887.16 70.1731H871.613C867.386 70.1731 863.746 68.6531 860.706 65.6265C857.666 62.5865 856.146 58.9464 856.146 54.7064V15.9465C856.146 11.7065 857.666 8.06648 860.706 5.02648C863.746 1.99981 867.386 0.479863 871.613 0.479863Z" fill="#040606"/>
<path d="M933.547 70.1731V15.9465H925.773V8.23976L941.28 0.479863H949.014V70.1731H933.547Z" fill="#040606"/>
<path d="M999.627 477.733C1010.2 473 1014.93 460.533 1010.2 449.973C1007.89 444.853 1003.75 440.933 998.494 438.933C997.36 438.493 996.2 438.173 995.027 437.947C995 437.947 994.96 437.947 994.92 437.933C994.867 437.92 994.814 437.893 994.747 437.88C993.507 437.667 992.267 437.547 991.014 437.547C988.094 437.547 985.174 438.16 982.427 439.4C971.854 444.147 967.107 456.6 971.854 467.173C976.6 477.747 989.054 482.48 999.627 477.733Z" fill="#F9E444"/>
<path d="M1095.56 427.947C1100.8 429.947 1106.51 429.774 1111.63 427.48C1116.75 425.187 1120.67 421.027 1122.67 415.787C1124.67 410.533 1124.49 404.827 1122.2 399.707C1119.91 394.587 1115.75 390.667 1110.51 388.667C1108.07 387.747 1105.55 387.28 1103.03 387.28C1100.09 387.28 1097.17 387.907 1094.43 389.134C1091.11 390.627 1088.29 392.907 1086.19 395.76L1086.17 395.773C1086.17 395.773 1086.17 395.787 1086.16 395.787C1085.03 397.32 1084.09 399 1083.39 400.84C1081.4 406.08 1081.56 411.787 1083.85 416.907C1086.16 422.027 1090.31 425.947 1095.56 427.947Z" fill="#F9E444"/>
<path d="M1021.76 360.693C1026.88 358.387 1030.8 354.24 1032.8 348.987C1034.8 343.747 1034.63 338.04 1032.33 332.92C1030.04 327.8 1025.88 323.88 1020.64 321.88C1018.2 320.96 1015.68 320.493 1013.15 320.493C1010.23 320.493 1007.31 321.12 1004.56 322.347C993.987 327.093 989.253 339.547 993.987 350.12C998.733 360.693 1011.19 365.44 1021.76 360.693Z" fill="#F9E444"/>
<path d="M982.427 439.4C985.173 438.16 988.094 437.547 991.014 437.547C992.267 437.547 993.507 437.667 994.747 437.88C994.814 437.893 994.867 437.92 994.92 437.934C994.96 437.947 995 437.947 995.027 437.947C996.2 438.173 997.36 438.494 998.493 438.934C1003.75 440.934 1007.89 444.853 1010.2 449.973C1014.93 460.533 1010.2 473 999.627 477.734C989.053 482.48 976.6 477.747 971.853 467.173C967.107 456.6 971.853 444.147 982.427 439.4ZM993.987 350.12C989.253 339.547 993.987 327.093 1004.56 322.347C1007.31 321.12 1010.23 320.493 1013.15 320.493C1015.68 320.493 1018.2 320.96 1020.64 321.88C1025.88 323.88 1030.04 327.8 1032.33 332.92C1034.63 338.04 1034.8 343.747 1032.8 348.987C1030.8 354.24 1026.88 358.387 1021.76 360.693C1011.19 365.44 998.733 360.693 993.987 350.12ZM1072.76 393.667C1072.33 394.534 1071.95 395.427 1071.6 396.347C1069.16 402.747 1068.75 409.56 1070.29 416.067L1018.59 439.28C1014.83 433.893 1009.59 429.747 1003.36 427.293L1013.23 375.147C1017.81 375.147 1022.48 374.2 1026.93 372.2C1030.28 370.707 1033.29 368.693 1035.92 366.293L1072.76 393.667ZM1083.39 400.84C1084.09 399 1085.03 397.32 1086.16 395.787C1086.17 395.787 1086.17 395.773 1086.17 395.773L1086.19 395.76C1088.29 392.907 1091.11 390.627 1094.43 389.134C1097.17 387.907 1100.09 387.28 1103.03 387.28C1105.55 387.28 1108.07 387.747 1110.51 388.667C1115.75 390.667 1119.91 394.587 1122.2 399.707C1124.49 404.827 1124.67 410.533 1122.67 415.787C1120.67 421.027 1116.75 425.187 1111.63 427.48C1106.51 429.773 1100.8 429.947 1095.56 427.947C1090.31 425.947 1086.16 422.027 1083.85 416.907C1081.56 411.787 1081.4 406.08 1083.39 400.84ZM991.08 492.2C995.667 492.2 1000.33 491.253 1004.8 489.253C1019.75 482.547 1027.4 466.187 1023.75 450.8L1075.47 427.587C1079.29 433.08 1084.67 437.307 1091.07 439.747C1094.96 441.227 1099 441.96 1103.04 441.96C1107.72 441.96 1112.4 440.974 1116.8 439C1125 435.32 1131.27 428.667 1134.47 420.267C1137.65 411.867 1137.39 402.734 1133.71 394.534C1130.04 386.347 1123.39 380.067 1114.99 376.88C1106.6 373.68 1097.45 373.947 1089.25 377.627C1085.92 379.12 1082.91 381.12 1080.28 383.534L1043.44 356.147C1043.85 355.28 1044.25 354.387 1044.6 353.48C1047.79 345.08 1047.52 335.947 1043.84 327.747C1040.17 319.547 1033.52 313.28 1025.12 310.08C1016.73 306.893 1007.59 307.16 999.387 310.827C982.467 318.427 974.88 338.373 982.48 355.293C986.214 363.613 992.947 369.667 1000.83 372.773L990.96 424.934C986.293 424.934 981.64 425.92 977.253 427.88C960.333 435.48 952.747 455.414 960.347 472.334C965.934 484.8 978.227 492.2 991.08 492.2Z" fill="#040606"/>
<path d="M153.707 1027.11C153.32 1029.25 151.853 1031.05 149.827 1031.85L119.733 1043.81C83.4534 1058.23 59.3466 1091.75 56.96 1130.29H259.707L284.027 973.508C284.12 972.962 284.294 972.455 284.507 971.975L174.987 908.748L153.707 1027.11Z" fill="#83BFEA"/>
<path d="M717.107 958.628H644.707C642.933 958.628 641.253 957.895 640.053 956.588C638.853 955.281 638.266 953.535 638.426 951.762L638.8 947.521L598.253 971.202C598.666 971.895 598.96 972.668 599.093 973.508L623.413 1130.29H826.173C823.787 1091.73 799.68 1058.23 763.386 1043.81L733.293 1031.85C731.266 1031.05 729.8 1029.25 729.413 1027.11L717.107 958.628Z" fill="#83BFEA"/>
<path d="M927.88 737.52C926.627 737.453 925.427 737.4 924.253 737.333C920.587 737.147 917.413 736.987 913.72 737.067C900.827 737.32 896.72 741.373 895.56 744.72C893.734 749.906 893.787 753.893 895.707 756.88C898.76 761.627 907.16 764.867 919.36 766C922.827 766.32 925.387 769.387 925.067 772.867C924.76 776.133 922.013 778.586 918.787 778.586C918.587 778.586 918.4 778.586 918.2 778.56C916.267 778.386 914.414 778.16 912.627 777.88C898.147 777.653 896.214 783.32 895.56 785.186C893.76 790.306 893.787 794.253 895.627 797.226C898.4 801.706 905.64 804.8 916.534 806.16C919.987 806.6 922.44 809.747 922 813.2C921.6 816.4 918.894 818.733 915.747 818.733C915.494 818.733 915.227 818.72 914.96 818.68C914.4 818.613 913.867 818.533 913.32 818.453C906.12 817.946 896.707 819.826 893.853 826.84C892.44 830.293 893.2 833.453 894.08 835.48C895.694 839.227 899.134 842.493 903.067 844.013C911.774 847.387 922.32 846.773 929.494 846.013C958.427 842.973 960.467 790.093 960 767.493C959.654 750.453 954.28 722.146 923.28 717.706L922.667 724.626C923.414 724.653 924.147 724.693 924.894 724.733C926.04 724.787 927.214 724.853 928.427 724.906C931.907 725.053 934.613 728 934.453 731.493C934.307 734.973 931.32 737.68 927.88 737.52Z" fill="#83BFEA"/>
<path d="M443.547 614.373L398.28 654.813L423.374 682.893C423.374 682.893 423.374 682.893 423.374 682.906C440.614 673.306 454.24 675.08 463.08 678.706C470.227 681.12 481.64 689.48 481.533 705.56C488.013 705.8 497.133 707.413 503.92 713.64C509.467 718.733 512.4 725.8 512.667 734.653C514.827 735.813 517.28 737.653 519.44 740.573C524.667 747.613 526.133 758 523.787 771.426C522.76 777.306 520.573 782.933 517.4 788.147L530.227 802.493L575.48 762.04L443.547 614.373Z" fill="#F2526C"/>
<path d="M817.88 633.36C815.88 633.36 812.693 636.96 810.84 643.613H824.907C823.067 637.093 819.893 633.36 817.88 633.36Z" fill="#83BFEA"/>
<path d="M543.253 807.773L583.04 816.053L579.266 775.587L543.253 807.773Z" fill="white"/>
<path d="M818.56 688.815C818.467 688.815 818.36 688.815 818.254 688.815C814.907 688.815 812.12 686.188 811.96 682.815C811.787 679.335 814.48 676.375 817.96 676.201C820.707 676.068 825.947 668.921 826.334 656.228H770.241C769.801 674.361 761.174 688.268 749.841 688.815C749.734 688.815 749.627 688.815 749.534 688.815C746.187 688.815 743.387 686.188 743.227 682.815C743.067 679.335 745.747 676.375 749.227 676.201C751.974 676.068 757.214 668.921 757.601 656.228H677.32L651.601 946.015H890.347L898.36 855.721C891.347 852.961 885.414 847.281 882.494 840.495C879.894 834.481 879.774 827.948 882.16 822.081C884.187 817.108 887.601 813.468 891.667 810.895C888.827 808.895 886.56 806.561 884.894 803.868C880.974 797.535 880.547 789.855 883.641 781.015C884.907 777.401 887.294 773.481 891.694 770.455C888.947 768.521 886.734 766.268 885.094 763.708C880.987 757.321 880.494 749.521 883.641 740.548C885.987 733.855 892.494 725.881 910.001 724.601L916.067 656.228H898.494C898.067 674.361 889.441 688.268 878.107 688.815C878.001 688.815 877.894 688.815 877.787 688.815C874.44 688.815 871.654 686.188 871.494 682.815C871.32 679.335 874.014 676.375 877.494 676.201C880.24 676.068 885.481 668.921 885.867 656.228H838.96C838.534 674.361 829.907 688.268 818.56 688.815Z" fill="white"/>
<path d="M749.147 633.36C747.147 633.36 743.96 636.96 742.106 643.613H756.173C754.333 637.093 751.173 633.36 749.147 633.36Z" fill="#83BFEA"/>
<path d="M609.84 505.04C623.507 505.04 636.694 501.213 648.067 494.107C646.707 494.213 645.334 494.293 643.947 494.293C617.387 494.293 595.854 472.747 595.854 446.2C595.854 443.787 596.04 441.413 596.387 439.093H537.854C541.054 475.987 572.12 505.04 609.84 505.04Z" fill="white"/>
<path d="M193.173 426.467H350.306C353.786 426.467 356.613 429.293 356.613 432.773C356.613 456.173 346.826 478.76 329.733 494.747C313.973 509.52 293.373 517.667 271.747 517.667C224.933 517.667 186.853 479.587 186.853 432.773C186.853 429.293 189.68 426.467 193.173 426.467ZM271.733 555.867C334.666 555.867 385.853 512.547 385.853 459.307C385.853 406.053 334.666 362.733 271.733 362.733C208.813 362.733 157.613 406.053 157.613 459.307C157.613 512.547 208.813 555.867 271.733 555.867Z" fill="#83BFEA"/>
<path d="M271.734 350.122C339.16 350.122 394.454 395.708 398.267 452.988H483.307C487.12 395.708 542.414 350.122 609.84 350.122C679.72 350.122 736.574 399.095 736.574 459.308C736.574 519.508 679.72 568.482 609.84 568.482C542.414 568.482 487.12 522.895 483.307 465.615H398.267C394.454 522.895 339.16 568.482 271.734 568.482C201.854 568.482 145 519.508 145 459.308C145 399.095 201.854 350.122 271.734 350.122ZM400.214 557.202C400.214 535.735 417.694 518.268 439.16 518.268C460.627 518.268 478.094 535.735 478.094 557.202C478.094 560.682 475.267 563.508 471.787 563.508C468.307 563.508 465.481 560.682 465.481 557.202C465.481 542.695 453.667 530.882 439.16 530.882C424.64 530.882 412.84 542.695 412.84 557.202C412.84 560.682 410.014 563.508 406.534 563.508C403.04 563.508 400.214 560.682 400.214 557.202ZM594.32 828.682C593.16 829.722 591.653 830.282 590.12 830.282C589.693 830.282 589.254 830.242 588.827 830.148L528.427 817.575C528.427 817.575 528.414 817.575 528.4 817.575C528.027 817.495 527.667 817.362 527.32 817.228C527.2 817.175 527.08 817.108 526.974 817.055C526.72 816.935 526.467 816.802 526.24 816.642C526.134 816.575 526.027 816.495 525.92 816.415C525.6 816.175 525.294 815.922 525.027 815.615C525.027 815.615 525.014 815.615 525.014 815.602L509.494 798.228C504.454 803.322 498.307 807.775 491.187 811.295C473.507 820.055 451.04 822.802 427.707 819.108C401.414 832.815 372.52 844.708 341.787 854.468C317.213 862.268 290.267 869.815 263.947 869.815C249.121 869.815 234.507 867.428 220.614 861.348C201.561 853.002 185.481 837.722 172.814 815.935C159.934 793.788 153.76 770.335 150.84 754.548C150.2 751.122 152.467 747.828 155.894 747.188C159.32 746.562 162.614 748.828 163.254 752.255C176.347 823.121 214.347 844.815 225.667 849.775C260.254 864.922 301.76 853.922 337.974 842.428C368.72 832.668 397.574 820.735 423.707 806.962C424.947 806.308 426.36 806.081 427.734 806.321C449.214 810.081 469.76 807.828 485.587 799.988C500 792.855 509.147 781.935 511.36 769.268C514.174 753.055 509.734 746.842 506.134 745.455C501.387 750.575 491.734 759.708 483.134 759.708C482.774 759.708 482.414 759.695 482.04 759.655C478.574 759.335 476.027 756.255 476.36 752.775C476.68 749.308 479.747 746.762 483.227 747.095C483.24 747.095 483.254 747.095 483.267 747.095C485.787 747.095 493.173 741.255 498.52 735.028C498.947 734.535 499.454 734.148 499.974 733.815C499.627 729.095 498.094 725.442 495.414 722.962C490.521 718.442 482.16 717.922 477.52 718.188C472.88 723.255 463.027 732.722 454.267 732.722C453.894 732.722 453.534 732.708 453.174 732.668C449.707 732.348 447.161 729.268 447.481 725.802C447.814 722.322 450.867 719.775 454.36 720.108C454.374 720.108 454.387 720.108 454.4 720.108C456.747 720.108 463.347 715.015 468.56 709.282C470.8 695.495 460.947 691.322 458.881 690.615C458.721 690.548 458.613 690.508 458.453 690.442C445.56 685.055 432.16 691.562 423.187 697.948C420.347 699.975 416.4 699.322 414.387 696.482C413.173 694.775 412.934 692.682 413.547 690.842L408.681 685.388C408.467 685.735 408.24 686.055 407.96 686.362C390.267 705.922 390.974 738.628 390.974 738.948C391.04 741.375 389.72 743.628 387.574 744.735C362.24 757.895 340.907 766.362 322.334 770.602C313.414 772.642 305.267 773.655 297.907 773.655C279.24 773.655 265.614 767.122 257.254 754.095C250 742.788 245.934 728.668 242.694 716.322C241.814 712.948 243.827 709.495 247.2 708.615C250.574 707.735 254.014 709.748 254.907 713.122C257.894 724.535 261.614 737.522 267.881 747.268C281.907 769.135 320.08 764.975 378.387 735.268C378.733 724.868 381.32 696.988 398.6 677.895C399.187 677.242 399.88 676.735 400.64 676.402L384.667 658.522C383.547 657.268 382.974 655.628 383.067 653.962C383.16 652.295 383.92 650.722 385.16 649.615L439.84 600.762C442.44 598.428 446.44 598.655 448.76 601.255L589.107 758.335C589.36 758.628 589.587 758.948 589.787 759.282C589.853 759.388 589.907 759.508 589.974 759.628C590.08 759.842 590.187 760.068 590.281 760.295C590.334 760.442 590.374 760.575 590.414 760.708C590.494 760.948 590.547 761.175 590.587 761.415C590.613 761.548 590.64 761.682 590.653 761.815C590.667 761.868 590.681 761.908 590.681 761.962L596.4 823.388C596.587 825.388 595.813 827.348 594.32 828.682ZM441.547 1048.07L639.32 932.615C639.587 932.455 639.867 932.335 640.16 932.228L660.267 705.682L587.214 933.055C586.361 935.735 583.881 937.442 581.214 937.442C580.574 937.442 579.921 937.335 579.281 937.135C575.961 936.068 574.134 932.508 575.2 929.202L665.547 647.988C665.587 647.868 665.654 647.762 665.694 647.642C665.787 647.402 665.88 647.175 665.987 646.948C666.08 646.788 666.187 646.642 666.281 646.495C666.401 646.308 666.52 646.135 666.653 645.962C666.773 645.815 666.907 645.682 667.04 645.535C667.174 645.402 667.32 645.255 667.467 645.122C667.614 645.002 667.774 644.882 667.934 644.775C668.094 644.655 668.267 644.548 668.44 644.455C668.614 644.348 668.774 644.268 668.947 644.188C669.134 644.108 669.32 644.028 669.507 643.962C669.694 643.908 669.894 643.842 670.081 643.802C670.267 643.762 670.453 643.722 670.653 643.695C670.867 643.668 671.08 643.642 671.294 643.628C671.374 643.628 671.467 643.615 671.547 643.615H729.147C731.961 629.788 739.721 620.735 749.147 620.735C758.734 620.735 766.427 630.028 769.174 643.615H797.881C800.681 629.788 808.454 620.735 817.881 620.735C827.454 620.735 835.16 630.028 837.907 643.615H857.414C858.894 636.335 861.734 630.375 865.481 626.362V308.282L439.16 62.1484L12.8535 308.268L15.227 801.935L441.547 1048.07Z" fill="#83BFEA"/>
<path d="M271.747 505.04C285.414 505.04 298.6 501.213 309.974 494.107C308.614 494.213 307.24 494.293 305.853 494.293C279.293 494.293 257.76 472.747 257.76 446.2C257.76 443.787 257.947 441.413 258.293 439.093H199.747C202.96 475.987 234.027 505.04 271.747 505.04Z" fill="white"/>
<path d="M531.267 426.467H688.4C691.893 426.467 694.707 429.293 694.707 432.773C694.707 456.173 684.92 478.76 667.84 494.747C652.067 509.52 631.467 517.667 609.84 517.667C563.04 517.667 524.96 479.587 524.96 432.773C524.96 429.293 527.773 426.467 531.267 426.467ZM609.84 555.867C672.76 555.867 723.96 512.547 723.96 459.307C723.96 406.053 672.76 362.733 609.84 362.733C546.907 362.733 495.72 406.053 495.72 459.307C495.72 512.547 546.907 555.867 609.84 555.867Z" fill="#83BFEA"/>
<path d="M258.294 439.094C257.947 441.414 257.76 443.787 257.76 446.2C257.76 472.747 279.294 494.294 305.854 494.294C307.24 494.294 308.614 494.214 309.974 494.107C298.6 501.214 285.414 505.04 271.747 505.04C234.027 505.04 202.961 475.987 199.747 439.094H258.294ZM271.747 517.667C293.374 517.667 313.974 509.52 329.734 494.747C346.827 478.76 356.614 456.174 356.614 432.774C356.614 429.294 353.787 426.467 350.307 426.467H193.174C189.68 426.467 186.854 429.294 186.854 432.774C186.854 479.587 224.934 517.667 271.747 517.667Z" fill="#040606"/>
<path d="M596.387 439.094C596.04 441.414 595.853 443.787 595.853 446.2C595.853 472.747 617.387 494.294 643.947 494.294C645.334 494.294 646.707 494.214 648.067 494.107C636.693 501.214 623.507 505.04 609.84 505.04C572.12 505.04 541.053 475.987 537.853 439.094H596.387ZM609.84 517.667C631.467 517.667 652.067 509.52 667.84 494.747C684.92 478.76 694.707 456.174 694.707 432.774C694.707 429.294 691.893 426.467 688.4 426.467H531.267C527.773 426.467 524.96 429.294 524.96 432.774C524.96 479.587 563.04 517.667 609.84 517.667Z" fill="#040606"/>
<path d="M543.253 807.773L579.266 775.587L583.04 816.053L543.253 807.773ZM517.399 788.147C520.573 782.933 522.759 777.307 523.786 771.427C526.133 758 524.666 747.613 519.44 740.573C517.28 737.653 514.826 735.813 512.666 734.653C512.399 725.8 509.466 718.733 503.919 713.64C497.133 707.413 488.013 705.8 481.533 705.56C481.639 689.48 470.226 681.12 463.08 678.707C454.24 675.08 440.613 673.307 423.373 682.907C423.373 682.893 423.373 682.893 423.373 682.893L398.28 654.813L443.546 614.373L575.48 762.04L530.226 802.493L517.399 788.147ZM590.68 761.96C590.68 761.907 590.666 761.867 590.653 761.813C590.639 761.68 590.613 761.547 590.586 761.413C590.546 761.173 590.493 760.947 590.413 760.707C590.373 760.573 590.333 760.44 590.28 760.293C590.186 760.067 590.08 759.84 589.973 759.627C589.906 759.507 589.853 759.387 589.786 759.28C589.586 758.947 589.36 758.627 589.106 758.334L448.759 601.253C446.439 598.653 442.44 598.427 439.84 600.76L385.159 649.613C383.919 650.72 383.159 652.293 383.066 653.96C382.973 655.627 383.546 657.267 384.666 658.52L400.64 676.4C399.88 676.734 399.186 677.24 398.599 677.893C381.319 696.987 378.733 724.867 378.386 735.267C320.079 764.974 281.906 769.134 267.88 747.267C261.613 737.52 257.893 724.533 254.906 713.12C254.013 709.747 250.573 707.733 247.199 708.613C243.826 709.493 241.813 712.947 242.693 716.32C245.933 728.667 249.999 742.787 257.253 754.093C265.613 767.12 279.24 773.653 297.906 773.653C305.266 773.653 313.413 772.64 322.333 770.6C340.906 766.36 362.24 757.894 387.573 744.734C389.72 743.627 391.04 741.373 390.973 738.947C390.973 738.627 390.266 705.92 407.959 686.36C408.239 686.053 408.466 685.733 408.68 685.387L413.546 690.84C412.933 692.68 413.173 694.773 414.386 696.48C416.399 699.32 420.346 699.973 423.186 697.947C432.159 691.56 445.559 685.053 458.453 690.44C458.613 690.507 458.72 690.547 458.88 690.613C460.946 691.32 470.799 695.493 468.559 709.28C463.346 715.013 456.746 720.107 454.399 720.107C454.386 720.107 454.373 720.107 454.359 720.107C450.866 719.773 447.813 722.32 447.48 725.8C447.16 729.267 449.706 732.347 453.173 732.667C453.533 732.707 453.893 732.72 454.266 732.72C463.026 732.72 472.879 723.253 477.519 718.187C482.159 717.92 490.52 718.44 495.413 722.96C498.093 725.44 499.626 729.093 499.973 733.813C499.453 734.147 498.946 734.533 498.519 735.027C493.173 741.253 485.786 747.093 483.266 747.093C483.253 747.093 483.239 747.093 483.226 747.093C479.746 746.76 476.679 749.307 476.359 752.773C476.026 756.253 478.573 759.333 482.04 759.653C482.413 759.693 482.773 759.707 483.133 759.707C491.733 759.707 501.386 750.573 506.133 745.453C509.733 746.84 514.173 753.054 511.359 769.267C509.146 781.934 499.999 792.853 485.586 799.987C469.759 807.827 449.213 810.08 427.733 806.32C426.359 806.08 424.946 806.307 423.706 806.96C397.573 820.733 368.72 832.667 337.973 842.427C301.76 853.92 260.253 864.92 225.666 849.773C214.346 844.813 176.346 823.12 163.253 752.253C162.613 748.827 159.319 746.56 155.893 747.187C152.466 747.827 150.2 751.12 150.84 754.547C153.76 770.333 159.933 793.787 172.813 815.934C185.48 837.72 201.56 853 220.613 861.347C234.506 867.427 249.12 869.813 263.946 869.813C290.266 869.813 317.213 862.267 341.786 854.467C372.519 844.707 401.413 832.813 427.706 819.107C451.04 822.8 473.506 820.053 491.186 811.293C498.306 807.773 504.453 803.32 509.493 798.227L525.013 815.6C525.013 815.614 525.026 815.613 525.026 815.613C525.293 815.92 525.599 816.173 525.919 816.413C526.026 816.493 526.133 816.573 526.24 816.64C526.466 816.8 526.72 816.933 526.973 817.053C527.08 817.107 527.199 817.173 527.319 817.227C527.666 817.36 528.026 817.493 528.399 817.573C528.413 817.573 528.426 817.573 528.426 817.573L588.826 830.147C589.253 830.24 589.693 830.28 590.119 830.28C591.653 830.28 593.159 829.72 594.319 828.68C595.813 827.347 596.586 825.387 596.399 823.387L590.68 761.96Z" fill="#040606"/>
<path d="M271.733 362.733C334.667 362.733 385.853 406.053 385.853 459.307C385.853 512.547 334.667 555.867 271.733 555.867C208.813 555.867 157.614 512.547 157.614 459.307C157.614 406.053 208.813 362.733 271.733 362.733ZM609.84 362.733C672.76 362.733 723.96 406.053 723.96 459.307C723.96 512.547 672.76 555.867 609.84 555.867C546.907 555.867 495.72 512.547 495.72 459.307C495.72 406.053 546.907 362.733 609.84 362.733ZM271.733 568.48C339.16 568.48 394.453 522.893 398.267 465.613H483.307C487.12 522.893 542.413 568.48 609.84 568.48C679.72 568.48 736.573 519.507 736.573 459.307C736.573 399.093 679.72 350.12 609.84 350.12C542.413 350.12 487.12 395.707 483.307 452.986H398.267C394.453 395.707 339.16 350.12 271.733 350.12C201.853 350.12 145 399.093 145 459.307C145 519.507 201.853 568.48 271.733 568.48Z" fill="#040606"/>
<path d="M439.16 62.1484L865.481 308.282V626.362C861.734 630.375 858.894 636.335 857.414 643.615H837.907C835.161 630.028 827.454 620.735 817.881 620.735C808.454 620.735 800.681 629.788 797.881 643.615H769.174C766.427 630.028 758.734 620.735 749.147 620.735C739.721 620.735 731.961 629.788 729.147 643.615H671.547C671.467 643.615 671.374 643.628 671.294 643.628C671.08 643.642 670.867 643.668 670.654 643.695C670.454 643.722 670.267 643.762 670.081 643.802C669.894 643.842 669.694 643.908 669.507 643.962C669.321 644.028 669.134 644.108 668.947 644.188C668.774 644.268 668.614 644.348 668.441 644.455C668.267 644.548 668.094 644.655 667.934 644.775C667.774 644.882 667.614 645.002 667.467 645.122C667.32 645.255 667.174 645.402 667.041 645.535C666.907 645.682 666.774 645.815 666.654 645.962C666.52 646.135 666.401 646.308 666.281 646.495C666.187 646.642 666.08 646.788 665.987 646.948C665.88 647.175 665.787 647.402 665.694 647.642C665.654 647.762 665.587 647.868 665.547 647.988L575.2 929.202C574.134 932.508 575.961 936.068 579.281 937.135C579.921 937.335 580.574 937.442 581.214 937.442C583.881 937.442 586.361 935.735 587.214 933.055L660.267 705.682L640.16 932.228C639.867 932.335 639.587 932.455 639.32 932.615L441.547 1048.07L15.227 801.935L12.8536 308.268L439.16 62.1484ZM810.841 643.615C812.694 636.962 815.881 633.362 817.881 633.362C819.894 633.362 823.067 637.095 824.907 643.615H810.841ZM742.107 643.615C743.961 636.962 747.147 633.362 749.147 633.362C751.174 633.362 754.334 637.095 756.174 643.615H742.107ZM885.867 656.228C885.48 668.922 880.24 676.068 877.494 676.202C874.014 676.375 871.32 679.335 871.494 682.815C871.654 686.188 874.44 688.815 877.787 688.815C877.894 688.815 878.001 688.815 878.107 688.815C889.441 688.268 898.067 674.362 898.494 656.228H916.067L910 724.602C892.494 725.882 885.987 733.855 883.641 740.548C880.494 749.522 880.987 757.322 885.094 763.708C886.734 766.268 888.947 768.522 891.694 770.455C887.294 773.482 884.907 777.402 883.641 781.015C880.547 789.855 880.974 797.535 884.894 803.868C886.56 806.562 888.827 808.895 891.667 810.895C887.6 813.468 884.187 817.108 882.16 822.082C879.774 827.948 879.894 834.482 882.494 840.495C885.414 847.282 891.347 852.962 898.36 855.722L890.347 946.015H651.6L677.32 656.228H757.6C757.214 668.922 751.974 676.068 749.227 676.202C745.747 676.375 743.067 679.335 743.227 682.815C743.387 686.188 746.187 688.815 749.534 688.815C749.627 688.815 749.734 688.815 749.841 688.815C761.174 688.268 769.801 674.362 770.241 656.228H826.334C825.947 668.922 820.707 676.068 817.96 676.202C814.48 676.375 811.787 679.335 811.96 682.815C812.12 686.188 814.907 688.815 818.254 688.815C818.36 688.815 818.467 688.815 818.56 688.815C829.907 688.268 838.534 674.362 838.96 656.228H885.867ZM878.107 633.495C880.107 634.202 882.801 637.788 884.441 643.615H878.107V633.495ZM928.427 724.908C927.214 724.855 926.04 724.788 924.894 724.735C924.147 724.695 923.414 724.655 922.667 724.628L923.281 717.708C954.281 722.148 959.654 750.455 960 767.495C960.467 790.095 958.427 842.975 929.494 846.015C922.32 846.775 911.774 847.388 903.067 844.015C899.134 842.495 895.694 839.228 894.081 835.482C893.201 833.455 892.44 830.295 893.854 826.842C896.707 819.828 906.12 817.948 913.32 818.455C913.867 818.535 914.4 818.615 914.96 818.682C915.227 818.722 915.494 818.735 915.747 818.735C918.894 818.735 921.6 816.402 922 813.202C922.44 809.748 919.987 806.602 916.534 806.162C905.64 804.802 898.4 801.708 895.627 797.228C893.787 794.255 893.76 790.308 895.56 785.188C896.214 783.322 898.147 777.655 912.627 777.882C914.414 778.162 916.267 778.388 918.2 778.562C918.4 778.588 918.587 778.588 918.787 778.588C922.014 778.588 924.76 776.135 925.067 772.868C925.387 769.388 922.827 766.322 919.36 766.002C907.16 764.868 898.761 761.628 895.707 756.882C893.787 753.895 893.734 749.908 895.56 744.722C896.72 741.375 900.827 737.322 913.72 737.068C917.414 736.988 920.587 737.148 924.254 737.335C925.427 737.402 926.627 737.455 927.881 737.522C931.321 737.682 934.307 734.975 934.454 731.495C934.614 728.002 931.907 725.055 928.427 724.908ZM733.294 1031.85L763.387 1043.81C799.68 1058.23 823.787 1091.73 826.174 1130.29H623.414L599.094 973.508C598.96 972.668 598.667 971.895 598.254 971.202L638.8 947.521L638.427 951.762C638.267 953.535 638.854 955.281 640.054 956.588C641.254 957.895 642.934 958.628 644.707 958.628H717.107L729.414 1027.11C729.801 1029.25 731.267 1031.05 733.294 1031.85ZM284.027 973.508L259.707 1130.29H56.9603C59.347 1091.75 83.4538 1058.23 119.734 1043.81L149.827 1031.85C151.854 1031.05 153.321 1029.25 153.707 1027.11L174.987 908.748L284.507 971.975C284.294 972.455 284.12 972.962 284.027 973.508ZM5.77387 811.055L163.36 902.028L141.907 1021.43L115.081 1032.08C71.9873 1049.2 44.1338 1090.23 44.1338 1136.6C44.1338 1140.08 46.9602 1142.91 50.4536 1142.91H265.12C268.227 1142.91 270.88 1140.64 271.36 1137.56L296.014 978.615L438.414 1060.83C439.387 1061.4 440.467 1061.68 441.56 1061.68C442.667 1061.68 443.761 1061.39 444.747 1060.81L586.987 977.775L611.774 1137.56C612.241 1140.64 614.894 1142.91 618 1142.91H832.681C836.161 1142.91 838.987 1140.08 838.987 1136.6C838.987 1090.23 811.147 1049.2 768.041 1032.08L741.214 1021.43L729.934 958.628H896.12C899.387 958.628 902.121 956.135 902.414 952.882L910.76 858.735C913.707 859.082 916.614 859.228 919.387 859.228C923.6 859.228 927.521 858.922 930.814 858.575C958.921 855.615 973.774 823.175 972.614 767.242C972.361 754.655 969.907 743.482 965.32 734.015C957.334 717.522 943.24 707.628 924.4 705.122L929.254 650.482C929.414 648.708 928.814 646.962 927.627 645.655C926.427 644.348 924.734 643.615 922.96 643.615H897.441C894.761 630.348 887.361 621.202 878.107 620.762V304.642C878.107 302.388 876.894 300.295 874.947 299.175L442.32 49.3882C440.36 48.2682 437.96 48.2682 436 49.3882L3.37387 299.175C1.41387 300.308 0.200643 302.402 0.213976 304.668L2.627 805.615C2.627 807.855 3.8272 809.935 5.77387 811.055Z" fill="#040606"/>
<path d="M412.84 557.2C412.84 542.694 424.64 530.88 439.16 530.88C453.667 530.88 465.481 542.694 465.481 557.2C465.481 560.68 468.307 563.507 471.787 563.507C475.267 563.507 478.094 560.68 478.094 557.2C478.094 535.734 460.627 518.267 439.16 518.267C417.694 518.267 400.214 535.734 400.214 557.2C400.214 560.68 403.04 563.507 406.534 563.507C410.014 563.507 412.84 560.68 412.84 557.2Z" fill="#040606"/>
</svg>
