<svg width="1257" height="1418" viewBox="0 0 1257 1418" fill="none" xmlns="http://www.w3.org/2000/svg">
<path d="M1111.93 336.468C1121.87 336.468 1130.27 329.842 1132.99 320.788H1090.88C1093.6 329.842 1102.01 336.468 1111.93 336.468Z" fill="white"/>
<path d="M1094.19 160.535C1088.67 170.735 1088.05 183.908 1093.39 194.095C1094.12 195.481 1094.85 196.321 1095.31 196.695C1095.47 196.588 1095.71 196.401 1096.01 196.135C1101.56 191.281 1104.03 182.642 1102.15 174.615C1100.97 169.548 1098.17 164.668 1094.19 160.535Z" fill="#F9E444"/>
<path d="M1113.56 146.055C1109.92 146.122 1105.96 147.775 1102.25 150.762C1108.35 156.735 1112.64 164.042 1114.44 171.748C1114.68 172.748 1114.87 173.762 1115.01 174.762C1117.16 166.668 1121.21 159.122 1126.76 152.855C1123.16 148.562 1118.2 145.948 1113.56 146.055Z" fill="#F9E444"/>
<path d="M1155.23 213.749C1152.95 216.375 1148.96 216.669 1146.33 214.389C1143.69 212.109 1143.4 208.122 1145.69 205.482C1166.16 181.829 1161.52 164.722 1159.61 160.055C1158.75 157.895 1157.19 155.055 1154.79 153.682C1151.37 151.762 1146.75 153.042 1142.75 155.535C1145.07 161.442 1146.36 168.389 1146.67 176.562C1146.93 183.202 1146.53 191.668 1141.16 198.268C1138.19 201.922 1134.27 204.109 1130.13 204.415C1124.03 204.855 1117.85 200.869 1115.15 194.682C1114.57 193.389 1114.15 192.015 1113.85 190.575C1112.09 196.415 1108.84 201.682 1104.33 205.629C1102.75 207.015 1100.25 208.908 1096.87 209.375C1091.11 210.175 1085.76 206.735 1082.21 199.949C1074.59 185.415 1075.63 167.042 1083.92 153.015C1081.05 151.642 1078.44 151.055 1076.12 151.242C1070.15 151.748 1065.56 157.642 1063.84 162.908C1061.63 169.668 1062.2 177.402 1063.03 185.402C1063.69 191.788 1064.48 197.948 1066.73 203.268C1068.96 208.562 1072.6 212.455 1076.69 213.962C1079.96 215.162 1081.64 218.788 1080.44 222.068C1079.49 224.615 1077.08 226.189 1074.51 226.189C1073.79 226.189 1073.05 226.068 1072.33 225.802C1064.97 223.095 1058.69 216.669 1055.11 208.189C1052.17 201.269 1051.24 194.082 1050.48 186.708C1049.53 177.682 1048.87 168.095 1051.84 158.989C1054.92 149.589 1063.29 139.655 1075.07 138.668C1080.44 138.228 1086.11 139.669 1091.96 142.989C1091.99 142.962 1092 142.935 1092.03 142.922C1098.48 136.949 1106.04 133.575 1113.32 133.442C1121.84 133.295 1130.28 137.455 1136.32 144.589C1146.05 138.562 1155.35 139.495 1161 142.695C1165.4 145.189 1168.97 149.549 1171.31 155.282C1174.63 163.442 1179.71 185.455 1155.23 213.749ZM1111.93 76.3219C1061.83 76.3219 1021.07 117.082 1021.07 167.189C1021.07 200.549 1039.29 231.162 1068.63 247.108C1070.65 248.202 1071.92 250.335 1071.92 252.655V265.842H1151.96V252.655C1151.96 250.335 1153.23 248.202 1155.25 247.108C1184.59 231.162 1202.81 200.549 1202.81 167.189C1202.81 117.082 1162.05 76.3219 1111.93 76.3219Z" fill="#F9E444"/>
<path d="M1132.72 165.762C1129.48 170.655 1127.28 176.215 1126.36 182.041C1125.83 185.388 1125.95 187.868 1126.71 189.628C1127.33 191.028 1128.61 191.882 1129.2 191.828C1129.68 191.788 1130.56 191.295 1131.37 190.295C1134.08 186.975 1134.23 181.468 1134.07 177.041C1133.89 172.801 1133.45 169.068 1132.72 165.762Z" fill="#F9E444"/>
<path d="M1131.37 190.295C1130.56 191.295 1129.68 191.788 1129.2 191.828C1128.61 191.882 1127.33 191.028 1126.71 189.628C1125.95 187.868 1125.83 185.388 1126.36 182.042C1127.28 176.215 1129.48 170.655 1132.72 165.762C1133.45 169.068 1133.89 172.802 1134.07 177.042C1134.23 181.468 1134.08 186.975 1131.37 190.295ZM1115.01 174.762C1114.87 173.762 1114.68 172.749 1114.44 171.749C1112.64 164.042 1108.35 156.735 1102.25 150.762C1105.96 147.775 1109.92 146.122 1113.56 146.055C1118.2 145.948 1123.16 148.562 1126.76 152.855C1121.21 159.122 1117.16 166.668 1115.01 174.762ZM1096.01 196.135C1095.71 196.402 1095.47 196.588 1095.31 196.695C1094.85 196.322 1094.12 195.482 1093.39 194.095C1088.05 183.908 1088.67 170.735 1094.19 160.535C1098.17 164.668 1100.97 169.549 1102.15 174.615C1104.03 182.642 1101.56 191.282 1096.01 196.135ZM1161 142.695C1155.35 139.495 1146.05 138.562 1136.32 144.588C1130.28 137.455 1121.84 133.295 1113.32 133.442C1106.04 133.575 1098.48 136.948 1092.03 142.922C1092 142.935 1091.99 142.962 1091.96 142.988C1086.11 139.668 1080.44 138.228 1075.07 138.668C1063.29 139.655 1054.92 149.588 1051.84 158.988C1048.87 168.095 1049.53 177.682 1050.48 186.708C1051.24 194.082 1052.17 201.268 1055.11 208.188C1058.69 216.668 1064.97 223.095 1072.33 225.802C1073.05 226.068 1073.79 226.188 1074.51 226.188C1077.08 226.188 1079.49 224.615 1080.44 222.068C1081.64 218.788 1079.96 215.162 1076.69 213.962C1072.6 212.455 1068.96 208.562 1066.73 203.268C1064.48 197.948 1063.69 191.788 1063.03 185.402C1062.2 177.402 1061.63 169.668 1063.84 162.908C1065.56 157.642 1070.15 151.748 1076.12 151.242C1078.44 151.055 1081.05 151.642 1083.92 153.015C1075.63 167.042 1074.59 185.415 1082.21 199.949C1085.76 206.735 1091.11 210.175 1096.87 209.375C1100.25 208.908 1102.75 207.015 1104.33 205.628C1108.84 201.682 1112.09 196.415 1113.85 190.575C1114.15 192.015 1114.57 193.389 1115.15 194.682C1117.85 200.869 1124.03 204.855 1130.13 204.415C1134.27 204.109 1138.19 201.922 1141.16 198.268C1146.53 191.668 1146.93 183.202 1146.67 176.562C1146.36 168.388 1145.07 161.442 1142.75 155.535C1146.75 153.042 1151.37 151.762 1154.79 153.682C1157.19 155.055 1158.75 157.895 1159.61 160.055C1161.52 164.722 1166.16 181.829 1145.69 205.482C1143.4 208.122 1143.69 212.108 1146.33 214.388C1148.96 216.668 1152.95 216.375 1155.23 213.749C1179.71 185.455 1174.63 163.442 1171.31 155.282C1168.97 149.549 1165.4 145.188 1161 142.695Z" fill="#040606"/>
<path d="M1155.25 247.108C1153.23 248.202 1151.96 250.335 1151.96 252.655V265.842H1071.92V252.655C1071.92 250.335 1070.65 248.202 1068.63 247.108C1039.29 231.162 1021.07 200.548 1021.07 167.188C1021.07 117.082 1061.83 76.3217 1111.93 76.3217C1162.05 76.3217 1202.81 117.082 1202.81 167.188C1202.81 200.548 1184.59 231.162 1155.25 247.108ZM1111.93 63.695C1054.87 63.695 1008.44 110.122 1008.44 167.188C1008.44 203.908 1027.84 237.722 1059.31 256.322V272.162C1059.31 275.642 1062.13 278.468 1065.61 278.468H1158.27C1161.75 278.468 1164.57 275.642 1164.57 272.162V256.322C1196.04 237.722 1215.44 203.908 1215.44 167.188C1215.44 110.122 1169.01 63.695 1111.93 63.695Z" fill="#040606"/>
<path d="M1065.61 300.642H1158.27C1161.75 300.642 1164.57 297.815 1164.57 294.322C1164.57 290.842 1161.75 288.015 1158.27 288.015H1065.61C1062.13 288.015 1059.31 290.842 1059.31 294.322C1059.31 297.815 1062.13 300.642 1065.61 300.642Z" fill="#040606"/>
<path d="M1132.99 320.788C1130.27 329.842 1121.87 336.468 1111.93 336.468C1102.01 336.468 1093.6 329.842 1090.88 320.788H1132.99ZM1065.61 320.788H1077.92C1080.89 336.868 1095.01 349.082 1111.93 349.082C1128.87 349.082 1142.99 336.868 1145.96 320.788H1158.27C1161.75 320.788 1164.57 317.962 1164.57 314.482C1164.57 310.988 1161.75 308.161 1158.27 308.161H1065.61C1062.13 308.161 1059.31 310.988 1059.31 314.482C1059.31 317.962 1062.13 320.788 1065.61 320.788Z" fill="#040606"/>
<path d="M1105.63 7.05476V42.4816C1105.63 45.9616 1108.45 48.7881 1111.93 48.7881C1115.43 48.7881 1118.25 45.9616 1118.25 42.4816V7.05476C1118.25 3.56142 1115.43 0.734964 1111.93 0.734964C1108.45 0.734964 1105.63 3.56142 1105.63 7.05476Z" fill="#040606"/>
<path d="M1028.72 23.0417C1025.69 24.7884 1024.67 28.6417 1026.4 31.655L1044.12 62.3485C1045.28 64.3618 1047.41 65.4951 1049.59 65.4951C1050.65 65.4951 1051.75 65.2285 1052.73 64.6551C1055.76 62.9085 1056.79 59.0551 1055.05 56.0285L1037.33 25.3485C1035.59 22.3352 1031.73 21.2951 1028.72 23.0417Z" fill="#040606"/>
<path d="M976.414 81.6551C973.387 79.9084 969.533 80.9484 967.786 83.9617C966.04 86.9884 967.08 90.8417 970.093 92.5884L1000.77 110.295C1001.77 110.882 1002.85 111.148 1003.93 111.148C1006.11 111.148 1008.23 110.015 1009.4 107.988C1011.15 104.975 1010.11 101.108 1007.09 99.375L976.414 81.6551Z" fill="#040606"/>
<path d="M1247.47 81.6551L1216.79 99.375C1213.77 101.108 1212.73 104.975 1214.48 107.988C1215.65 110.015 1217.77 111.148 1219.95 111.148C1221.03 111.148 1222.11 110.882 1223.09 110.295L1253.79 92.5884C1256.8 90.8417 1257.84 86.9884 1256.09 83.9617C1254.35 80.9484 1250.49 79.9084 1247.47 81.6551Z" fill="#040606"/>
<path d="M1186.55 25.3485L1168.83 56.0285C1167.09 59.0551 1168.12 62.9085 1171.15 64.6551C1172.13 65.2285 1173.23 65.4951 1174.29 65.4951C1176.47 65.4951 1178.59 64.3618 1179.76 62.3485L1197.48 31.655C1199.21 28.6417 1198.19 24.7884 1195.16 23.0417C1192.15 21.2951 1188.28 22.3352 1186.55 25.3485Z" fill="#040606"/>
<path d="M1178.04 578.108C1170.43 589.628 1156.59 608.108 1141.6 616.042C1141.13 616.282 1140.67 616.589 1140.2 616.922C1140.2 616.922 1140.19 616.935 1140.17 616.935C1135.96 619.988 1132.03 626.682 1133.2 637.055C1133.59 640.349 1136.21 643.042 1140.25 644.242C1143.8 645.295 1148.44 645.189 1153.59 643.162C1153.65 643.135 1153.72 643.109 1153.79 643.082C1158.95 641.002 1164.61 637.002 1170.17 630.282C1178.89 619.735 1183.13 607.242 1182.13 595.095C1181.59 588.509 1179.83 582.628 1178.04 578.108Z" fill="#F2526C"/>
<path d="M1120.67 638.468C1119.89 631.628 1120.8 623.161 1124.63 616.041C1113.24 611.308 1107.83 599.575 1106.11 591.308C1099.13 591.201 1090.87 589.335 1081.21 585.695C1077.96 584.468 1076.31 580.828 1077.53 577.575C1078.76 574.308 1082.4 572.655 1085.67 573.881C1103.83 580.721 1111.95 579.041 1115.56 576.428C1119.29 573.735 1121 567.908 1120.63 559.135C1120.09 546.201 1107.83 532.215 1091.47 525.881C1084.61 523.228 1067.28 518.428 1054.53 531.268C1031.61 554.388 1040.41 584.668 1040.8 585.948C1040.83 586.041 1040.83 586.135 1040.85 586.228C1040.91 586.455 1040.95 586.681 1040.99 586.921C1041.01 587.095 1041.03 587.255 1041.04 587.428C1041.05 587.681 1041.05 587.935 1041.03 588.175C1041.03 588.335 1041.01 588.481 1040.99 588.641C1040.96 588.895 1040.91 589.148 1040.84 589.401C1040.8 589.535 1040.76 589.668 1040.72 589.801C1040.63 590.055 1040.52 590.308 1040.4 590.548C1040.35 590.668 1040.29 590.775 1040.23 590.881C1040.09 591.135 1039.93 591.361 1039.77 591.588C1039.69 591.681 1039.63 591.788 1039.55 591.881C1039.36 592.081 1039.17 592.281 1038.96 592.468C1038.85 592.561 1038.76 592.641 1038.65 592.735C1038.44 592.895 1038.21 593.041 1037.99 593.188C1037.85 593.268 1037.72 593.335 1037.59 593.401C1037.47 593.468 1037.37 593.535 1037.25 593.588C995.053 611.735 952.467 620.855 910.147 620.855C895.96 620.855 881.8 619.828 867.693 617.775C820.906 610.961 783 593.775 758.226 579.575L727.787 635.161C727.96 635.255 728.147 635.321 728.32 635.428C753.773 652.041 795.266 673.428 848.386 681.068C911.373 690.121 975.307 677.775 1038.4 644.375C1040.47 643.281 1042.96 643.415 1044.89 644.735C1045.05 644.841 1061.21 655.655 1082.61 660.815C1102.81 665.695 1120.6 664.055 1135.76 656.041C1127.33 653.201 1121.59 646.548 1120.67 638.468Z" fill="#F2526C"/>
<path d="M597.453 470.055C580.96 470.055 562.586 477.508 562.586 488.188C562.586 496.775 576.906 506.335 597.453 506.335C613.946 506.335 632.32 498.882 632.32 488.188C632.32 479.615 618 470.055 597.453 470.055Z" fill="#83BFEA"/>
<path d="M346.2 1320.25C346.027 1322.77 344.36 1324.95 341.96 1325.77L293.28 1342.53C265.88 1351.96 246.853 1376.65 244.387 1405.15H405.867L428.107 1024.09L374.133 926.761L346.2 1320.25Z" fill="#F2526C"/>
<path d="M468.667 385.508C463.534 383.575 458.054 382.535 452.507 382.535C427.4 382.535 406.974 402.962 406.974 428.068C406.974 453.175 427.4 473.602 452.507 473.602C458.054 473.602 463.534 472.575 468.667 470.628C451.4 464.202 439.107 447.575 439.107 428.068C439.107 408.575 451.4 391.948 468.667 385.508Z" fill="white"/>
<path d="M515.253 1023.31L537.533 1405.15H699.013C696.546 1376.65 677.52 1351.96 650.12 1342.53L601.426 1325.77C599.039 1324.95 597.373 1322.77 597.186 1320.25L569.133 924.895L515.253 1023.31Z" fill="#F2526C"/>
<path d="M1130.36 545.908C1134.52 540.148 1137.05 533.628 1137.91 526.455C1137.85 520.522 1137.35 465.268 1137.88 456.708C1138.29 450.215 1134.21 439.188 1126.89 432.695C1122.49 428.788 1117.79 427.282 1112.88 428.175C1105.47 429.548 1097 438.695 1093.43 446.388C1087.72 458.628 1086.35 495.295 1086.27 511.242C1089.49 511.908 1092.76 512.842 1096.03 514.108C1112.17 520.375 1124.91 532.508 1130.36 545.908Z" fill="#F2526C"/>
<path d="M1133.29 561.615C1133.23 573.308 1129.76 581.735 1122.96 586.655C1121.61 587.628 1120.15 588.442 1118.59 589.108C1119.07 591.068 1120.03 594.255 1121.84 597.308C1124.93 602.535 1129.17 605.202 1134.71 605.468C1135.04 605.282 1135.35 605.068 1135.69 604.882C1152.57 595.962 1169.16 568.828 1172.51 563.162C1173.01 558.322 1174.44 538.255 1163.49 532.388C1156.21 528.495 1152 528.788 1150.2 529.775C1147.93 544.628 1140.24 555.015 1133.29 561.615Z" fill="#F2526C"/>
<path d="M716.907 385.508C711.774 383.575 706.293 382.535 700.747 382.535C675.64 382.535 655.213 402.962 655.213 428.068C655.213 453.175 675.64 473.602 700.747 473.602C706.293 473.602 711.774 472.575 716.907 470.628C699.64 464.202 687.347 447.575 687.347 428.068C687.347 408.575 699.64 391.948 716.907 385.508Z" fill="white"/>
<path d="M729.68 478.535C720.92 483.561 710.92 486.228 700.747 486.228C668.68 486.228 642.587 460.135 642.587 428.068C642.587 396.001 668.68 369.921 700.747 369.921C710.92 369.921 720.92 372.575 729.68 377.615C747.707 387.961 758.907 407.295 758.907 428.068C758.907 448.841 747.707 468.175 729.68 478.535ZM597.453 518.948C570.827 518.948 549.96 505.441 549.96 488.188C549.96 470.948 570.827 457.428 597.453 457.428C624.08 457.428 644.947 470.948 644.947 488.188C644.947 505.441 624.08 518.948 597.453 518.948ZM595.626 545.695C582.56 564.001 563.573 574.348 543.226 574.348C542.493 574.348 541.76 574.335 541.013 574.308C520.387 573.548 501.6 562.161 489.467 543.055C483.667 545.508 477.827 546.388 472.933 546.388C470.533 546.388 468.36 546.175 466.533 545.828C463.12 545.188 460.867 541.881 461.507 538.455C462.16 535.041 465.44 532.788 468.853 533.428C469.813 533.588 490.8 537.001 499.787 515.241C501.12 512.015 504.813 510.495 508.027 511.815C511.253 513.148 512.787 516.841 511.453 520.055C508.533 527.121 504.573 532.415 500.147 536.335C510.027 551.841 525.08 561.095 541.48 561.695C558.333 562.335 574.32 553.815 585.36 538.361C587.373 535.535 591.32 534.868 594.16 536.895C596.986 538.921 597.653 542.868 595.626 545.695ZM394.347 428.068C394.347 396.001 420.44 369.921 452.507 369.921C462.68 369.921 472.68 372.575 481.44 377.615C499.467 387.961 510.667 407.295 510.667 428.068C510.667 448.841 499.467 468.175 481.44 478.535C472.68 483.561 462.68 486.228 452.507 486.228C420.44 486.228 394.347 460.135 394.347 428.068ZM17.9067 258.335L184.053 557.961C204.28 545.668 218.4 538.561 218.667 538.428C221.787 536.868 225.573 538.135 227.133 541.255C228.693 544.361 227.427 548.161 224.32 549.721C222.413 550.668 33.6132 646.415 47.0799 746.348C50.7866 773.841 83.0799 801.121 140.493 825.241C185.08 843.975 229.147 854.041 229.587 854.135C229.813 854.188 230.04 854.255 230.267 854.335C243.747 859.028 248.253 867.375 249.68 873.548C251.693 882.348 248.507 891.535 241.36 897.508C228.067 908.628 220.067 919.788 219.933 927.348C219.893 930.321 221.067 932.775 223.64 935.081C226.987 938.068 230.227 939.201 233.813 938.641C238.36 937.921 242.947 934.655 246.907 930.788C251.213 922.868 257.453 917.055 258.547 916.081C260.853 914.001 264.333 913.908 266.747 915.868C269.16 917.828 269.787 921.255 268.227 923.948C267.467 925.255 263.453 931.895 257.253 938.321C255.96 941.015 255.173 943.761 255.413 946.268C255.52 947.401 255.853 950.868 261.56 954.348C268.56 958.615 280.827 957.015 292.827 950.281C322.867 933.428 333.587 899.015 333.6 872.415C333.613 857.095 326.267 834.228 291.213 812.268C277.893 803.908 262.92 797.441 246.72 793.028C203.56 781.281 131.8 755.975 136.12 718.535C142.373 664.321 252.653 614.975 257.333 612.895C260.533 611.495 264.253 612.935 265.667 616.121C267.067 619.308 265.627 623.028 262.44 624.441C262.253 624.521 248.2 630.775 230.08 640.961L471.667 1076.63L919.747 258.335H17.9067Z" fill="#F2526C"/>
<path d="M1170.17 630.282C1164.61 637.002 1158.95 641.002 1153.79 643.082C1153.72 643.108 1153.65 643.135 1153.59 643.162C1148.44 645.188 1143.8 645.295 1140.25 644.242C1136.21 643.042 1133.59 640.348 1133.2 637.055C1132.03 626.682 1135.96 619.988 1140.17 616.935C1140.19 616.935 1140.2 616.922 1140.2 616.922C1140.67 616.588 1141.13 616.282 1141.6 616.042C1156.59 608.108 1170.43 589.628 1178.04 578.108C1179.83 582.628 1181.59 588.508 1182.13 595.095C1183.13 607.242 1178.89 619.735 1170.17 630.282ZM1082.61 660.815C1061.21 655.655 1045.05 644.842 1044.89 644.735C1042.96 643.415 1040.47 643.282 1038.4 644.375C975.307 677.775 911.373 690.122 848.386 681.068C795.266 673.428 753.773 652.042 728.32 635.428C728.147 635.322 727.96 635.255 727.787 635.162L758.226 579.575C783 593.775 820.906 610.962 867.693 617.775C881.8 619.828 895.96 620.855 910.147 620.855C952.467 620.855 995.053 611.735 1037.25 593.588C1037.37 593.535 1037.47 593.468 1037.59 593.402C1037.72 593.335 1037.85 593.268 1037.99 593.188C1038.21 593.042 1038.44 592.895 1038.65 592.735C1038.76 592.642 1038.85 592.562 1038.96 592.468C1039.17 592.282 1039.36 592.082 1039.55 591.882C1039.63 591.788 1039.69 591.682 1039.77 591.588C1039.93 591.362 1040.09 591.135 1040.23 590.882C1040.29 590.775 1040.35 590.668 1040.4 590.548C1040.52 590.308 1040.63 590.055 1040.72 589.802C1040.76 589.668 1040.8 589.535 1040.84 589.402C1040.91 589.148 1040.96 588.895 1040.99 588.642C1041.01 588.482 1041.03 588.335 1041.03 588.175C1041.05 587.935 1041.05 587.682 1041.04 587.428C1041.03 587.255 1041.01 587.095 1040.99 586.922C1040.95 586.682 1040.91 586.455 1040.85 586.228C1040.83 586.135 1040.83 586.042 1040.8 585.948C1040.41 584.668 1031.61 554.388 1054.53 531.268C1067.28 518.428 1084.61 523.228 1091.47 525.882C1107.83 532.215 1120.09 546.202 1120.63 559.135C1121 567.908 1119.29 573.735 1115.56 576.428C1111.95 579.042 1103.83 580.722 1085.67 573.882C1082.4 572.655 1078.76 574.308 1077.53 577.575C1076.31 580.828 1077.96 584.468 1081.21 585.695C1090.87 589.335 1099.13 591.202 1106.11 591.308C1107.83 599.575 1113.24 611.308 1124.63 616.042C1120.8 623.162 1119.89 631.628 1120.67 638.468C1121.59 646.548 1127.33 653.202 1135.76 656.042C1120.6 664.055 1102.81 665.695 1082.61 660.815ZM308.853 809.055C305.44 806.495 301.787 804.002 297.92 801.575C283.547 792.562 267.426 785.588 250.026 780.855C235.786 776.975 208.466 768.762 185.546 757.335C167.773 748.482 146.947 734.802 148.653 719.988C150.853 700.975 170.906 678.548 206.68 655.108C210.88 652.362 215.066 649.748 219.16 647.295L308.853 809.055ZM471.666 1076.63L230.08 640.962C248.2 630.775 262.253 624.522 262.44 624.442C265.627 623.028 267.067 619.308 265.667 616.122C264.253 612.935 260.533 611.495 257.333 612.895C252.653 614.975 142.373 664.322 136.12 718.535C131.8 755.975 203.56 781.282 246.72 793.028C262.92 797.442 277.893 803.908 291.213 812.268C326.266 834.228 333.613 857.095 333.6 872.415C333.586 899.015 322.866 933.428 292.826 950.282C280.826 957.015 268.56 958.615 261.56 954.348C255.853 950.868 255.52 947.402 255.413 946.268C255.173 943.762 255.96 941.015 257.253 938.322C263.453 931.895 267.466 925.255 268.226 923.948C269.786 921.255 269.16 917.828 266.746 915.868C264.333 913.908 260.853 914.002 258.546 916.082C257.453 917.055 251.213 922.868 246.907 930.788C242.947 934.655 238.36 937.922 233.813 938.642C230.226 939.202 226.987 938.068 223.64 935.082C221.067 932.775 219.893 930.322 219.933 927.348C220.066 919.788 228.066 908.628 241.36 897.508C248.506 891.535 251.693 882.348 249.68 873.548C248.253 867.375 243.747 859.028 230.266 854.335C230.04 854.255 229.813 854.188 229.587 854.135C229.147 854.042 185.08 843.975 140.493 825.242C83.0797 801.122 50.7864 773.842 47.0798 746.348C33.6131 646.415 222.413 550.668 224.32 549.722C227.427 548.162 228.693 544.362 227.133 541.255C225.573 538.135 221.786 536.868 218.666 538.428C218.4 538.562 204.28 545.668 184.053 557.962L17.9066 258.335H919.747L471.666 1076.63ZM597.187 1320.26C597.373 1322.78 599.04 1324.95 601.426 1325.78L650.12 1342.54C677.52 1351.96 696.546 1376.66 699.013 1405.15H537.533L515.253 1023.31L569.133 924.895L597.187 1320.26ZM405.866 1405.15H244.387C246.853 1376.66 265.88 1351.96 293.28 1342.54L341.96 1325.78C344.36 1324.95 346.026 1322.78 346.2 1320.26L374.133 926.762L428.107 1024.1L405.866 1405.15ZM1093.43 446.388C1097 438.695 1105.47 429.548 1112.88 428.175C1117.79 427.282 1122.49 428.788 1126.89 432.695C1134.21 439.188 1138.29 450.215 1137.88 456.708C1137.35 465.268 1137.85 520.522 1137.91 526.455C1137.05 533.628 1134.52 540.148 1130.36 545.908C1124.91 532.508 1112.17 520.375 1096.03 514.108C1092.76 512.842 1089.49 511.908 1086.27 511.242C1086.35 495.295 1087.72 458.628 1093.43 446.388ZM1163.49 532.388C1174.44 538.255 1173.01 558.322 1172.51 563.162C1169.16 568.828 1152.57 595.962 1135.69 604.882C1135.35 605.068 1135.04 605.282 1134.71 605.468C1129.17 605.202 1124.93 602.535 1121.84 597.308C1120.03 594.255 1119.07 591.068 1118.59 589.108C1120.15 588.442 1121.61 587.628 1122.96 586.655C1129.76 581.735 1133.23 573.308 1133.29 561.615C1140.24 555.015 1147.93 544.628 1150.2 529.775C1152 528.788 1156.21 528.495 1163.49 532.388ZM1185.13 563.815C1185.95 555.855 1187.03 530.668 1169.44 521.268C1161.36 516.948 1155.12 516.055 1150.44 516.682C1150.27 494.615 1150.12 463.268 1150.48 457.508C1151.19 446.295 1144.65 431.575 1135.27 423.255C1127.92 416.735 1119.4 414.148 1110.6 415.762C1097.08 418.255 1086.08 432.255 1081.99 441.055C1078.36 448.828 1075.87 463.508 1074.56 484.682C1073.88 495.562 1073.71 505.268 1073.65 510.228C1062.88 510.722 1053.08 514.828 1045.57 522.388C1023.4 544.748 1025.32 572.335 1027.43 584.028C974.84 605.735 921.733 612.895 869.507 605.282C824.52 598.735 788.066 582.162 764.293 568.495L935.933 255.055C937 253.095 936.96 250.722 935.826 248.802C934.68 246.882 932.626 245.708 930.386 245.708H7.18654C4.95987 245.708 2.87976 246.895 1.74643 248.815C0.613098 250.749 0.586484 253.122 1.66648 255.082L173.32 564.628C157.667 574.548 139.6 586.908 121.88 601.095C94.1331 623.308 72.5864 645.602 57.8264 667.348C38.933 695.215 31.1199 722.362 34.5733 748.028C44.7466 823.548 214.933 863.735 226.44 866.362C232.773 868.642 236.347 871.908 237.373 876.362C238.307 880.455 236.693 884.948 233.253 887.828C212.067 905.562 207.453 919.002 207.32 927.148C207.213 933.762 209.946 939.762 215.226 944.495C221.36 949.975 228.48 952.255 235.8 951.095C238.306 950.708 240.72 949.922 243.026 948.882C243.84 953.722 246.653 960.042 254.987 965.122C259.56 967.908 265.16 969.282 271.293 969.282C279.893 969.282 289.573 966.588 299 961.295C321.16 948.855 344.8 920.122 346.16 876.322L362.907 906.535L333.907 1315.2L289.173 1330.6C254.667 1342.48 231.493 1374.98 231.493 1411.46C231.493 1414.94 234.32 1417.76 237.8 1417.76H411.813C415.16 1417.76 417.92 1415.16 418.12 1411.82L439.546 1044.72L466.173 1092.76C467.293 1094.78 469.4 1096.02 471.693 1096.02C471.706 1096.02 471.707 1096.02 471.72 1096.02C474.013 1096 476.133 1094.75 477.24 1092.74L503.826 1044.18L525.28 1411.82C525.48 1415.16 528.24 1417.76 531.587 1417.76H705.587C709.08 1417.76 711.907 1414.94 711.907 1411.46C711.907 1374.98 688.72 1342.48 654.226 1330.6L609.48 1315.2L580.36 904.668C580.346 904.602 580.333 904.535 580.32 904.468L721.733 646.215C748.293 663.482 791.413 685.628 846.6 693.562C860.573 695.575 874.573 696.575 888.6 696.575C939.44 696.575 990.547 683.402 1041.07 657.228C1047.2 660.908 1061.43 668.628 1079.27 672.988C1110.77 680.708 1138.52 674.228 1159.57 654.268C1167.57 650.695 1174.67 644.655 1179.89 638.322C1190.73 625.228 1195.99 609.508 1194.71 594.042C1193.52 579.788 1187.76 568.362 1185.13 563.815Z" fill="#040606"/>
<path d="M594.16 536.895C591.32 534.868 587.374 535.535 585.36 538.361C574.32 553.815 558.334 562.335 541.48 561.695C525.08 561.095 510.027 551.841 500.147 536.335C504.574 532.415 508.534 527.121 511.454 520.055C512.787 516.841 511.254 513.148 508.027 511.815C504.814 510.495 501.12 512.015 499.787 515.241C490.8 537.001 469.814 533.588 468.854 533.428C465.44 532.788 462.16 535.041 461.507 538.455C460.867 541.881 463.12 545.188 466.534 545.828C468.36 546.175 470.534 546.388 472.934 546.388C477.827 546.388 483.667 545.508 489.467 543.055C501.6 562.161 520.387 573.548 541.014 574.308C541.76 574.335 542.494 574.348 543.227 574.348C563.574 574.348 582.56 564.001 595.627 545.695C597.654 542.868 596.987 538.921 594.16 536.895Z" fill="#040606"/>
<path d="M597.453 506.335C576.907 506.335 562.587 496.775 562.587 488.188C562.587 477.508 580.96 470.055 597.453 470.055C618 470.055 632.32 479.615 632.32 488.188C632.32 498.882 613.947 506.335 597.453 506.335ZM597.453 457.428C570.827 457.428 549.96 470.948 549.96 488.188C549.96 505.442 570.827 518.948 597.453 518.948C624.08 518.948 644.947 505.442 644.947 488.188C644.947 470.948 624.08 457.428 597.453 457.428Z" fill="#040606"/>
<path d="M716.906 470.629C711.773 472.575 706.293 473.602 700.746 473.602C675.64 473.602 655.213 453.175 655.213 428.068C655.213 402.962 675.64 382.535 700.746 382.535C706.293 382.535 711.773 383.575 716.906 385.508C699.64 391.948 687.346 408.575 687.346 428.068C687.346 447.575 699.64 464.202 716.906 470.629ZM729.68 377.615C720.92 372.575 710.92 369.922 700.746 369.922C668.68 369.922 642.586 396.002 642.586 428.068C642.586 460.135 668.68 486.229 700.746 486.229C710.92 486.229 720.92 483.562 729.68 478.535C747.706 468.175 758.906 448.842 758.906 428.068C758.906 407.295 747.706 387.962 729.68 377.615Z" fill="#040606"/>
<path d="M468.667 470.629C463.533 472.575 458.053 473.602 452.507 473.602C427.4 473.602 406.974 453.175 406.974 428.068C406.974 402.962 427.4 382.535 452.507 382.535C458.053 382.535 463.533 383.575 468.667 385.508C451.4 391.948 439.107 408.575 439.107 428.068C439.107 447.575 451.4 464.202 468.667 470.629ZM510.667 428.068C510.667 407.295 499.467 387.962 481.44 377.615C472.68 372.575 462.68 369.922 452.507 369.922C420.44 369.922 394.347 396.002 394.347 428.068C394.347 460.135 420.44 486.229 452.507 486.229C462.68 486.229 472.68 483.562 481.44 478.535C499.467 468.175 510.667 448.842 510.667 428.068Z" fill="#040606"/>
</svg>
